<?xml version="1.0" standalone="no"?>
<!DOCTYPE svg PUBLIC "-//W3C//DTD SVG 20010904//EN"
 "http://www.w3.org/TR/2001/REC-SVG-20010904/DTD/svg10.dtd">
<svg version="1.0" xmlns="http://www.w3.org/2000/svg"
 width="360.000000pt" height="360.000000pt" viewBox="0 0 360.000000 360.000000"
 preserveAspectRatio="xMidYMid meet">

<g transform="translate(0.000000,360.000000) scale(0.100000,-0.100000)"
fill="#000000" stroke="none">
<path d="M2365 3220 c27 -12 43 -12 25 0 -8 5 -22 9 -30 9 -10 0 -8 -3 5 -9z"/>
<path d="M803 3033 c15 -2 37 -2 50 0 12 2 0 4 -28 4 -27 0 -38 -2 -22 -4z"/>
<path d="M630 3010 c-11 -7 -5 -8 20 -4 43 8 51 14 19 14 -13 0 -31 -5 -39
-10z"/>
<path d="M1560 2990 c-12 -16 -19 -30 -16 -30 2 0 14 14 26 30 12 17 19 30 16
30 -2 0 -14 -13 -26 -30z"/>
<path d="M1030 3000 c8 -5 22 -9 30 -9 10 0 8 3 -5 9 -27 12 -43 12 -25 0z"/>
<path d="M558 2983 c7 -3 16 -2 19 1 4 3 -2 6 -13 5 -11 0 -14 -3 -6 -6z"/>
<path d="M1331 2784 c13 -17 26 -30 28 -27 3 2 -8 16 -24 31 l-28 27 24 -31z"/>
<path d="M1848 2783 c6 -2 18 -2 25 0 6 3 1 5 -13 5 -14 0 -19 -2 -12 -5z"/>
<path d="M1798 2773 c7 -3 16 -2 19 1 4 3 -2 6 -13 5 -11 0 -14 -3 -6 -6z"/>
<path d="M2080 2760 c8 -5 22 -9 30 -9 10 0 8 3 -5 9 -27 12 -43 12 -25 0z"/>
<path d="M1728 2753 c7 -3 16 -2 19 1 4 3 -2 6 -13 5 -11 0 -14 -3 -6 -6z"/>
<path d="M2151 2736 c2 -2 15 -9 29 -15 24 -11 24 -11 6 3 -16 13 -49 24 -35
12z"/>
<path d="M1451 2714 c0 -11 3 -14 6 -6 3 7 2 16 -1 19 -3 4 -6 -2 -5 -13z"/>
<path d="M1401 2684 c0 -11 3 -14 6 -6 3 7 2 16 -1 19 -3 4 -6 -2 -5 -13z"/>
<path d="M1534 2664 c-18 -14 -18 -15 4 -4 12 6 22 13 22 15 0 8 -5 6 -26 -11z"/>
<path d="M2261 2677 c2 -2 18 -11 34 -21 l30 -17 -24 20 c-13 12 -28 21 -34
21 -6 0 -8 -1 -6 -3z"/>
<path d="M1048 2633 c7 -3 16 -2 19 1 4 3 -2 6 -13 5 -11 0 -14 -3 -6 -6z"/>
<path d="M1180 2630 c14 -4 32 -8 40 -9 13 -1 13 0 0 9 -8 5 -26 9 -40 9 l-25
-1 25 -8z"/>
<path d="M1420 2629 c0 -5 5 -7 10 -4 6 3 10 8 10 11 0 2 -4 4 -10 4 -5 0 -10
-5 -10 -11z"/>
<path d="M948 2613 c7 -3 16 -2 19 1 4 3 -2 6 -13 5 -11 0 -14 -3 -6 -6z"/>
<path d="M1278 2613 c7 -3 16 -2 19 1 4 3 -2 6 -13 5 -11 0 -14 -3 -6 -6z"/>
<path d="M875 2590 c-3 -6 1 -7 9 -4 18 7 21 14 7 14 -6 0 -13 -4 -16 -10z"/>
<path d="M1840 2406 c0 -2 7 -7 16 -10 8 -3 12 -2 9 4 -6 10 -25 14 -25 6z"/>
<path d="M1484 2360 c0 -25 5 -25 36 0 14 11 18 19 10 18 -8 -2 -18 -7 -22
-13 -5 -6 -8 -5 -8 3 0 6 -4 12 -8 12 -4 0 -8 -9 -8 -20z"/>
<path d="M1459 2348 c4 -13 6 -29 4 -36 -3 -8 4 -16 16 -19 15 -4 21 -13 20
-32 0 -23 -1 -24 -9 -6 -8 18 -9 18 -9 -5 -1 -29 14 -57 22 -43 4 5 19 9 34 8
15 -1 19 0 8 2 -16 4 -14 7 13 18 35 15 39 30 16 60 -16 20 -16 20 -10 -1 5
-18 1 -23 -20 -28 -14 -4 -29 -5 -32 -1 -3 3 2 5 11 5 10 0 17 5 17 11 0 6 -7
9 -15 5 -25 -9 -17 10 10 22 24 11 32 31 18 45 -3 4 -13 1 -21 -5 -22 -19 -62
-21 -62 -4 0 8 -4 18 -10 21 -6 4 -7 -2 -1 -17z"/>
<path d="M603 2348 c-15 -20 -25 -38 -20 -38 3 0 12 11 21 25 17 26 16 35 -1
13z"/>
<path d="M545 2269 c-4 -6 -5 -12 -2 -15 2 -3 7 2 10 11 7 17 1 20 -8 4z"/>
<path d="M1514 2182 c-9 -5 -8 -10 2 -19 8 -8 15 -9 19 -3 3 6 0 10 -7 11 -7
0 -4 4 7 9 13 6 15 9 5 9 -8 0 -20 -3 -26 -7z"/>
<path d="M1563 2151 c-35 -16 -53 -31 -53 -43 0 -19 17 -15 80 17 27 14 30 14
30 0 0 -8 -3 -14 -7 -13 -5 0 -19 -4 -33 -10 -17 -7 -20 -11 -8 -11 9 -1 19 3
23 9 7 11 35 2 35 -12 0 -5 -5 -6 -12 -2 -7 4 -8 3 -4 -5 14 -22 25 -1 19 37
-9 57 -13 59 -70 33z"/>
<path d="M1845 2158 c-22 -5 -71 -24 -110 -42 l-70 -33 60 -7 c33 -4 96 -13
140 -20 44 -8 83 -12 88 -9 4 2 7 15 7 29 0 18 -5 24 -17 22 -12 -2 -19 7 -26
35 -10 39 -11 40 -72 25z"/>
<path d="M2132 2088 c32 -113 33 -115 72 -122 23 -5 33 -11 30 -20 -3 -9 10
-19 36 -30 23 -9 38 -20 35 -26 -3 -5 6 -17 20 -26 13 -9 23 -19 20 -23 -2 -4
9 -15 26 -25 16 -9 29 -24 29 -32 0 -8 11 -19 25 -26 13 -6 22 -14 20 -19 -3
-4 -24 3 -48 16 -58 33 -191 77 -218 73 -20 -3 -25 -13 -35 -70 -7 -37 -16
-73 -19 -79 -4 -6 7 -4 23 5 17 9 33 12 37 7 3 -5 37 -8 75 -7 39 2 70 0 70
-4 0 -3 15 -5 33 -2 49 7 22 -11 -63 -42 -80 -28 -108 -44 -161 -91 -106 -94
-169 -238 -169 -387 0 -69 17 -168 28 -168 11 0 74 192 75 228 0 19 6 32 13
32 7 0 14 15 16 33 2 18 8 31 15 30 7 -2 15 13 19 32 4 24 12 35 24 35 10 0
23 13 30 29 7 18 17 28 25 25 8 -4 20 7 30 26 9 17 20 28 24 25 5 -2 14 2 21
10 7 8 18 15 26 15 7 0 22 9 33 21 11 12 24 18 29 15 6 -3 17 1 25 9 9 8 22
15 29 15 8 0 19 5 26 12 9 9 12 9 12 -1 0 -8 7 -10 20 -6 14 5 20 2 20 -9 0
-9 7 -16 15 -16 8 0 15 -5 15 -10 0 -6 11 -15 24 -20 13 -5 27 -18 31 -29 3
-12 10 -21 15 -21 5 0 16 -12 24 -27 8 -16 18 -27 23 -25 4 2 12 -10 17 -27 5
-17 15 -31 22 -31 7 0 14 -14 16 -32 2 -21 8 -33 18 -33 11 0 14 -9 12 -33 -3
-23 2 -38 13 -46 13 -9 14 -17 6 -39 -9 -22 -8 -27 4 -27 18 0 19 -14 4 -38
-7 -11 -8 -54 -2 -132 l8 -115 27 45 c63 107 87 276 56 397 -27 110 -107 210
-218 275 -48 28 -59 39 -47 44 10 3 24 1 31 -5 11 -9 15 -9 18 1 3 8 14 6 39
-9 19 -11 40 -18 47 -16 7 3 20 -1 28 -8 12 -10 17 -10 23 -1 5 8 18 2 43 -18
22 -19 39 -26 43 -20 4 6 18 -2 34 -19 19 -20 31 -27 38 -20 7 7 18 -2 33 -28
31 -50 30 -49 40 -33 6 10 13 3 25 -28 14 -34 20 -40 31 -31 11 9 14 7 14 -13
0 -14 15 -45 32 -69 18 -24 57 -78 86 -119 l54 -75 -5 80 c-3 44 -15 109 -26
145 -44 142 -196 313 -320 362 -59 23 -183 29 -283 14 -32 -5 -48 -4 -48 3 0
6 7 11 16 11 8 0 13 4 9 10 -3 5 12 14 34 20 21 5 42 17 45 25 3 8 17 15 30
15 18 0 24 4 20 15 -5 12 3 15 35 15 28 0 44 5 47 15 4 10 20 15 45 15 29 0
39 4 39 16 0 10 6 14 18 10 9 -2 28 -8 41 -11 15 -5 26 -2 31 5 6 10 15 10 41
1 28 -10 34 -9 42 5 8 14 11 14 30 -4 16 -14 57 -25 152 -40 71 -12 131 -19
133 -17 5 5 -48 53 -95 86 -103 72 -228 109 -368 109 -172 -1 -308 -84 -385
-236 l-34 -69 -12 78 c-27 172 -127 288 -301 348 -31 10 -60 19 -64 19 -4 0 2
-33 13 -72z"/>
<path d="M1001 2094 c0 -11 3 -14 6 -6 3 7 2 16 -1 19 -3 4 -6 -2 -5 -13z"/>
<path d="M1535 2080 c3 -5 8 -10 11 -10 2 0 4 5 4 10 0 6 -5 10 -11 10 -5 0
-7 -4 -4 -10z"/>
<path d="M1594 2049 c-4 -8 -3 -9 4 -5 8 5 12 0 12 -13 0 -14 -5 -19 -15 -15
-8 4 -22 1 -30 -6 -12 -10 -15 -9 -16 6 0 14 -3 12 -10 -7 -6 -16 -6 -35 0
-50 7 -17 10 -19 10 -6 1 16 16 21 54 18 9 -1 17 3 17 10 0 6 8 9 20 6 16 -4
20 0 20 20 0 20 -4 24 -20 20 -13 -3 -20 0 -20 8 0 19 -17 28 -26 14z"/>
<path d="M1635 2050 c3 -5 8 -10 11 -10 2 0 4 5 4 10 0 6 -5 10 -11 10 -5 0
-7 -4 -4 -10z"/>
<path d="M1560 2039 c0 -5 5 -7 10 -4 6 3 10 8 10 11 0 2 -4 4 -10 4 -5 0 -10
-5 -10 -11z"/>
<path d="M982 1990 c0 -14 2 -19 5 -12 2 6 2 18 0 25 -3 6 -5 1 -5 -13z"/>
<path d="M2086 1987 c3 -10 9 -15 12 -12 3 3 0 11 -7 18 -10 9 -11 8 -5 -6z"/>
<path d="M1598 1948 c5 -5 16 -8 23 -6 8 3 3 7 -10 11 -17 4 -21 3 -13 -5z"/>
<path d="M1580 1927 c0 -10 7 -25 15 -33 19 -19 19 -14 0 22 -11 21 -15 24
-15 11z"/>
<path d="M1650 1922 c0 -6 -8 -13 -17 -15 -16 -4 -16 -5 -1 -6 18 -1 34 16 24
26 -3 4 -6 1 -6 -5z"/>
<path d="M1645 1890 c-28 -13 -43 -16 -52 -8 -10 8 -13 6 -13 -5 0 -10 -6 -14
-15 -11 -19 8 -19 -15 0 -52 l15 -29 0 25 c0 20 5 26 25 28 41 3 85 30 85 52
0 11 -1 20 -2 19 -2 0 -21 -9 -43 -19z"/>
<path d="M982 1870 c0 -19 2 -27 5 -17 2 9 2 25 0 35 -3 9 -5 1 -5 -18z"/>
<path d="M1677 1830 c3 -11 7 -20 9 -20 2 0 4 9 4 20 0 11 -4 20 -9 20 -5 0
-7 -9 -4 -20z"/>
<path d="M1967 1796 c-73 -31 -124 -65 -201 -138 -50 -48 -69 -59 -114 -69
-44 -9 -56 -8 -63 3 -6 9 -9 2 -9 -19 0 -22 5 -33 14 -33 8 0 22 -3 32 -7 11
-4 15 -3 11 4 -6 9 21 22 46 23 12 0 8 -28 -5 -33 -8 -3 -6 -6 5 -6 9 -1 17 6
17 14 0 8 5 15 10 15 5 0 9 4 7 9 -1 5 3 9 8 10 11 1 12 -3 14 -54 l1 -36 45
31 c25 17 48 42 51 55 6 26 24 34 24 13 1 -7 13 2 29 19 18 21 31 29 37 23 6
-6 22 1 45 20 25 20 39 26 46 19 7 -7 20 -4 40 8 l30 18 -20 68 c-11 37 -25
67 -31 67 -6 0 -37 -11 -69 -24z"/>
<path d="M1687 1771 c-3 -13 -1 -18 9 -14 7 2 10 11 7 19 -7 19 -10 18 -16 -5z"/>
<path d="M1571 1755 c0 -26 2 -27 9 -10 7 17 9 17 9 3 1 -12 9 -18 24 -17 21
0 21 1 2 9 -18 7 -16 8 10 12 l30 5 -30 2 c-17 0 -36 6 -43 13 -9 9 -12 5 -11
-17z"/>
<path d="M1697 1744 c-8 -9 -79 -26 -105 -26 -17 0 -22 -5 -20 -19 4 -23 2
-23 78 -7 52 10 60 15 60 35 0 24 -2 27 -13 17z"/>
<path d="M1001 1724 c0 -11 3 -14 6 -6 3 7 2 16 -1 19 -3 4 -6 -2 -5 -13z"/>
<path d="M1686 1678 c3 -5 10 -6 15 -3 13 9 11 12 -6 12 -8 0 -12 -4 -9 -9z"/>
<path d="M1711 1654 c0 -11 3 -14 6 -6 3 7 2 16 -1 19 -3 4 -6 -2 -5 -13z"/>
<path d="M1590 1519 c0 -5 5 -7 10 -4 6 3 10 8 10 11 0 2 -4 4 -10 4 -5 0 -10
-5 -10 -11z"/>
<path d="M2413 1513 c-18 -7 -16 -30 3 -37 24 -9 54 -7 54 4 0 6 -4 10 -10 10
-5 0 -7 8 -3 18 5 14 3 15 -8 5 -16 -15 -33 -17 -24 -3 7 11 6 11 -12 3z"/>
<path d="M1690 1501 c0 -5 -3 -18 -6 -28 -5 -16 -4 -16 10 1 15 19 16 19 16
-10 0 -18 -5 -31 -12 -31 -7 0 -33 -3 -58 -7 -32 -5 -41 -4 -30 3 8 6 10 11 5
11 -15 0 -35 -21 -35 -38 0 -11 11 -13 50 -10 29 3 54 0 60 -6 8 -8 11 -7 8 3
-2 7 5 15 16 16 27 5 40 21 32 42 -6 15 -8 15 -16 3 -7 -11 -10 -7 -10 16 0
19 -6 34 -15 38 -8 3 -15 1 -15 -3z"/>
<path d="M2384 1459 c-7 -13 1 -21 38 -37 21 -9 27 -8 32 4 3 9 -1 14 -12 15
-14 0 -14 2 3 10 15 7 11 7 -14 3 -23 -4 -31 -3 -27 5 4 6 3 11 -3 11 -5 0
-13 -5 -17 -11z"/>
<path d="M2362 1400 c-6 -11 -12 -28 -12 -37 0 -10 -6 -29 -13 -43 -12 -22
-11 -27 10 -47 24 -23 49 -32 38 -13 -3 6 -1 10 4 10 6 0 11 -8 12 -17 1 -31
18 18 18 52 0 28 -1 29 -10 7 -7 -18 -14 -22 -31 -16 -31 9 -31 8 -23 43 8 36
7 36 44 16 33 -17 41 -12 40 24 -1 16 -3 20 -6 9 -4 -14 -8 -15 -29 -6 -13 6
-24 15 -24 20 0 5 9 4 20 -2 14 -7 20 -7 20 0 0 5 -4 10 -9 10 -5 0 -15 2 -23
5 -7 3 -19 -4 -26 -15z"/>
<path d="M2378 1343 c7 -3 16 -2 19 1 4 3 -2 6 -13 5 -11 0 -14 -3 -6 -6z"/>
<path d="M2360 1322 c0 -4 9 -8 20 -8 11 0 20 4 20 8 0 4 -9 8 -20 8 -11 0
-20 -4 -20 -8z"/>
<path d="M1583 1267 c-10 -17 17 -30 64 -30 83 -1 123 7 123 24 0 13 -14 16
-91 15 -50 -1 -93 -5 -96 -9z"/>
<path d="M2317 1243 c-12 -11 -8 -50 6 -50 6 -1 26 -6 44 -11 25 -8 33 -7 37
4 3 8 2 14 -3 14 -5 0 -26 7 -46 16 -29 12 -35 18 -24 25 8 5 9 9 3 9 -6 0
-14 -3 -17 -7z"/>
<path d="M2360 1230 c8 -5 20 -10 25 -10 6 0 3 5 -5 10 -8 5 -19 10 -25 10 -5
0 -3 -5 5 -10z"/>
<path d="M1590 1219 c0 -5 9 -9 20 -9 11 0 20 2 20 4 0 2 -9 6 -20 9 -11 3
-20 1 -20 -4z"/>
<path d="M1720 1216 c0 -2 11 -6 25 -8 13 -3 22 -1 19 3 -5 9 -44 13 -44 5z"/>
<path d="M2335 1150 c-16 -7 -11 -9 20 -9 29 -1 36 2 25 9 -17 11 -19 11 -45
0z"/>
<path d="M1580 1134 c0 -6 7 -19 16 -30 14 -18 14 -18 3 6 -14 31 -19 36 -19
24z"/>
<path d="M2291 1105 c0 -31 2 -36 9 -20 l9 20 1 -20 1 -20 9 20 c5 11 9 15 9
8 1 -6 10 -10 21 -8 11 2 20 -2 20 -8 0 -7 4 -6 10 3 15 23 12 30 -12 30 -19
0 -20 2 -8 11 11 7 6 8 -19 4 -23 -5 -36 -3 -42 6 -6 9 -9 0 -8 -26z"/>
<path d="M1688 1093 c6 -2 18 -2 25 0 6 3 1 5 -13 5 -14 0 -19 -2 -12 -5z"/>
<path d="M1765 1075 c-7 -11 -32 -18 -81 -22 -58 -5 -73 -3 -87 11 -16 16 -17
15 -16 -26 0 -24 3 -37 6 -30 3 8 32 12 93 12 62 0 90 -4 93 -12 6 -21 14 35
8 60 -5 19 -7 20 -16 7z"/>
<path d="M1648 1073 c6 -2 18 -2 25 0 6 3 1 5 -13 5 -14 0 -19 -2 -12 -5z"/>
<path d="M2351 1054 c0 -11 3 -14 6 -6 3 7 2 16 -1 19 -3 4 -6 -2 -5 -13z"/>
<path d="M2280 1039 c0 -14 6 -26 13 -26 6 0 29 -3 49 -7 41 -8 48 -2 37 34
-4 16 -7 19 -8 8 -1 -17 -31 -26 -31 -10 0 5 -10 8 -22 7 -13 -1 -26 3 -30 9
-4 6 -8 0 -8 -15z"/>
<path d="M2285 990 c3 -5 8 -10 11 -10 2 0 4 5 4 10 0 6 -5 10 -11 10 -5 0 -7
-4 -4 -10z"/>
<path d="M1658 983 c7 -3 16 -2 19 1 4 3 -2 6 -13 5 -11 0 -14 -3 -6 -6z"/>
<path d="M2323 983 c9 -2 23 -2 30 0 6 3 -1 5 -18 5 -16 0 -22 -2 -12 -5z"/>
<path d="M2300 960 c-13 -8 -12 -10 3 -10 9 0 17 5 17 10 0 12 -1 12 -20 0z"/>
<path d="M2335 961 c-3 -6 3 -9 14 -8 11 0 17 5 15 9 -7 11 -22 10 -29 -1z"/>
<path d="M1772 930 c0 -14 2 -19 5 -12 2 6 2 18 0 25 -3 6 -5 1 -5 -13z"/>
<path d="M2265 942 c-17 -17 8 -29 78 -38 32 -4 38 -2 35 11 -1 9 -6 17 -10
17 -4 1 -28 4 -53 8 -25 4 -47 5 -50 2z"/>
<path d="M1572 900 c0 -14 2 -19 5 -12 2 6 2 18 0 25 -3 6 -5 1 -5 -13z"/>
<path d="M1592 900 c0 -14 2 -19 5 -12 2 6 2 18 0 25 -3 6 -5 1 -5 -13z"/>
<path d="M2261 894 c0 -11 3 -14 6 -6 3 7 2 16 -1 19 -3 4 -6 -2 -5 -13z"/>
<path d="M2285 892 c-12 -13 -3 -20 24 -18 41 2 48 13 11 18 -16 3 -32 2 -35
0z"/>
<path d="M1780 874 c0 -12 -86 -34 -136 -34 -20 0 -44 5 -55 10 -30 16 -36
-14 -8 -42 12 -13 19 -17 14 -10 -5 10 6 13 51 13 82 -2 145 9 151 25 2 7 0
21 -6 31 -6 10 -11 13 -11 7z"/>
<path d="M1591 866 c7 -8 98 -10 105 -3 4 4 -19 7 -51 7 -32 0 -56 -2 -54 -4z"/>
<path d="M2256 843 c-7 -16 8 -33 31 -33 6 0 14 -8 16 -17 4 -17 5 -17 6 0 1
20 27 23 34 5 4 -10 6 -10 6 0 1 6 8 12 16 12 8 0 15 7 15 15 0 11 -14 15 -57
17 l-58 1 55 7 55 7 -56 1 c-45 2 -58 -2 -63 -15z"/>
<path d="M2252 785 c0 -16 2 -22 5 -12 2 9 2 23 0 30 -3 6 -5 -1 -5 -18z"/>
<path d="M2282 775 c0 -16 2 -22 5 -12 2 9 2 23 0 30 -3 6 -5 -1 -5 -18z"/>
<path d="M2329 748 c-3 -22 -1 -34 4 -29 5 5 7 21 5 37 -3 27 -4 26 -9 -8z"/>
<path d="M2352 745 c0 -16 2 -22 5 -12 2 9 2 23 0 30 -3 6 -5 -1 -5 -18z"/>
<path d="M1562 730 c0 -19 2 -27 5 -17 2 9 2 25 0 35 -3 9 -5 1 -5 -18z"/>
<path d="M1801 734 c0 -11 3 -14 6 -6 3 7 2 16 -1 19 -3 4 -6 -2 -5 -13z"/>
<path d="M1576 698 c-3 -13 -5 -32 -5 -43 1 -11 5 -2 10 19 10 42 6 62 -5 24z"/>
<path d="M2240 699 c0 -13 35 -21 90 -23 39 0 55 3 55 12 0 9 -21 14 -72 15
-40 2 -73 0 -73 -4z"/>
<path d="M1779 670 c-4 -32 -7 -35 -49 -44 -86 -18 -166 -8 -173 22 -3 12 -6
9 -12 -12 -6 -20 -4 -31 3 -34 7 -2 13 -18 13 -35 l1 -32 9 30 c7 26 8 23 6
-17 -1 -27 1 -48 5 -48 5 0 8 19 8 43 l0 42 63 1 c75 1 167 22 166 37 -1 7 -5
23 -9 37 l-8 25 -2 -25 c-2 -21 -4 -19 -10 10 l-7 35 -4 -35z"/>
<path d="M2300 651 c15 -4 24 -14 24 -24 -1 -9 2 -17 7 -17 10 0 11 12 3 34
-4 10 -17 16 -33 15 l-26 -1 25 -7z"/>
<path d="M2356 644 c-8 -21 -8 -34 2 -34 4 0 9 11 10 25 2 28 -3 32 -12 9z"/>
<path d="M2288 593 c6 -2 18 -2 25 0 6 3 1 5 -13 5 -14 0 -19 -2 -12 -5z"/>
<path d="M2334 588 c6 -20 -8 -22 -66 -9 -28 7 -38 5 -42 -5 -3 -8 0 -14 7
-14 9 0 8 -3 -1 -9 -11 -7 18 -7 146 -2 13 1 22 7 22 16 0 11 -7 14 -24 9 -17
-4 -28 0 -36 13 -10 16 -11 16 -6 1z"/>
<path d="M1783 576 c3 -8 1 -17 -6 -19 -7 -2 -8 -8 -4 -13 4 -5 12 -2 17 6 13
20 12 40 -1 40 -6 0 -9 -6 -6 -14z"/>
<path d="M1690 570 c-20 -6 -21 -8 -5 -8 11 0 34 4 50 8 27 7 27 8 5 8 -14 0
-36 -4 -50 -8z"/>
<path d="M1770 520 c-13 -8 -13 -10 2 -10 9 0 20 5 23 10 8 13 -5 13 -25 0z"/>
<path d="M2320 521 c0 -5 -12 -12 -27 -14 -26 -4 -25 -4 5 -6 18 0 40 6 48 14
14 13 13 15 -5 15 -12 0 -21 -4 -21 -9z"/>
<path d="M2115 230 c-4 -7 -16 -9 -28 -6 -11 3 -29 0 -39 -5 -13 -7 -23 -7
-32 0 -15 13 -46 4 -46 -12 0 -5 -9 -2 -19 7 -13 11 -27 15 -40 11 -17 -5 -21
-15 -21 -46 0 -37 2 -40 23 -33 12 3 27 11 34 16 7 5 17 7 23 3 6 -4 10 4 10
19 0 16 6 26 15 26 9 0 15 -10 15 -26 0 -18 4 -25 14 -21 8 3 16 -2 19 -14 4
-15 12 -20 29 -17 19 2 24 10 26 41 3 40 22 52 22 14 0 -13 3 -26 6 -30 13
-12 34 6 35 32 2 23 2 24 6 3 7 -34 40 -48 64 -26 10 9 19 12 19 7 0 -14 26
-24 44 -17 21 8 26 42 9 59 -18 19 -28 19 -46 0 -13 -13 -16 -13 -27 0 -8 10
-24 13 -48 10 -20 -2 -42 0 -48 6 -8 7 -15 6 -19 -1z m-170 -40 c0 -8 -8 -16
-17 -18 -13 -2 -18 3 -18 18 0 15 5 20 18 18 9 -2 17 -10 17 -18z m140 0 c0
-8 -8 -16 -17 -18 -13 -2 -18 3 -18 18 0 15 5 20 18 18 9 -2 17 -10 17 -18z
m52 -12 c-3 -7 -5 -2 -5 12 0 14 2 19 5 13 2 -7 2 -19 0 -25z m80 26 c-3 -3
-12 -4 -19 -1 -8 3 -5 6 6 6 11 1 17 -2 13 -5z m70 0 c-3 -3 -12 -4 -19 -1 -8
3 -5 6 6 6 11 1 17 -2 13 -5z m-70 -30 c-3 -3 -12 -4 -19 -1 -8 3 -5 6 6 6 11
1 17 -2 13 -5z m70 0 c-3 -3 -12 -4 -19 -1 -8 3 -5 6 6 6 11 1 17 -2 13 -5z"/>
<path d="M1320 208 c0 -7 -3 -23 -6 -35 -5 -18 -2 -23 14 -23 25 0 45 23 40
47 -4 21 -48 31 -48 11z m38 -25 c-5 -25 -28 -28 -28 -4 0 12 6 21 16 21 9 0
14 -7 12 -17z"/>
<path d="M1720 212 c0 -7 -9 -12 -19 -12 -20 0 -35 -25 -25 -41 13 -22 42 -8
48 23 3 17 4 33 1 36 -3 3 -5 0 -5 -6z m-15 -31 c3 -5 1 -12 -5 -16 -5 -3 -10
1 -10 9 0 18 6 21 15 7z"/>
<path d="M1760 196 c0 -8 -3 -22 -6 -31 -5 -13 -2 -16 17 -13 27 3 38 36 17
49 -19 13 -28 11 -28 -5z m30 -21 c0 -8 -4 -15 -10 -15 -5 0 -10 7 -10 15 0 8
5 15 10 15 6 0 10 -7 10 -15z"/>
<path d="M1384 185 c-7 -17 3 -35 19 -35 7 0 6 4 -3 10 -13 8 -12 10 3 10 9 0
17 7 17 15 0 19 -29 20 -36 0z"/>
<path d="M1440 191 c0 -5 -3 -16 -6 -25 -4 -12 0 -16 15 -16 16 0 21 6 21 25
0 16 -6 25 -15 25 -8 0 -15 -4 -15 -9z"/>
<path d="M1488 177 c-3 -19 -2 -25 4 -19 6 6 8 18 6 28 -3 14 -5 12 -10 -9z"/>
<path d="M1517 193 c-14 -13 -7 -63 8 -63 14 0 35 37 35 61 0 10 -33 12 -43 2z
m23 -18 c0 -8 -4 -15 -10 -15 -5 0 -10 7 -10 15 0 8 5 15 10 15 6 0 10 -7 10
-15z"/>
<path d="M1570 191 c0 -5 -3 -18 -6 -28 -4 -13 0 -11 16 7 l21 25 -6 -24 c-5
-16 -4 -21 4 -17 19 12 13 46 -9 46 -11 0 -20 -4 -20 -9z"/>
<path d="M1624 185 c-7 -17 3 -35 19 -35 7 0 6 4 -3 10 -13 8 -12 10 3 10 9 0
17 7 17 15 0 19 -29 20 -36 0z"/>
<path d="M1818 167 c-2 -20 -1 -37 3 -37 13 0 18 30 10 52 -7 20 -9 18 -13
-15z"/>
<path d="M1847 193 c-4 -3 -7 -11 -7 -17 0 -6 5 -5 12 2 6 6 9 14 7 17 -3 3
-9 2 -12 -2z"/>
</g>
</svg>
