<svg id="Layer_1" data-name="Layer 1" xmlns="http://www.w3.org/2000/svg" viewBox="0 0 764 269.21"><defs><style>.cls-1{fill:#0a3b93;}.cls-2{fill:#1a1818;}</style></defs><title>samsungbiologicslogo</title><path class="cls-1" d="M69,347.28c1,2.46.49,5.89,0,8.34-1,3.43-3.43,7.36-10.79,7.36-6.86,0-10.79-3.93-10.79-9.81V342.38H18v8.34c0,24.52,19.12,31.87,39.72,31.87,19.62,0,35.8-6.86,38.74-25a51.89,51.89,0,0,0,0-18.14c-4.41-23.05-46.1-29.91-49-42.17a11.81,11.81,0,0,1,0-5.89c1-3.43,2.94-7.35,9.81-7.35,6.37,0,10.3,3.92,10.3,9.8v6.87H95v-7.85c0-23.53-21.58-27.46-36.78-27.46-19.61,0-35.31,6.38-38.25,24-.49,4.9-1,9.32.49,14.71C24.87,326.69,63.6,333.06,69,347.28" transform="translate(-18 -265.39)"/><path class="cls-1" d="M423.54,346.79a10.83,10.83,0,0,1,0,7.85c-1,3.43-3.43,7.36-10.3,7.36s-10.79-3.93-10.79-9.81v-10.3H373.52v8.34c0,24,19.12,31.38,39.23,31.38,19.61,0,35.8-6.86,38.25-24.52,1.47-9.31.49-15.2,0-17.65-4.41-22.56-45.61-29.42-48.55-42.17a11.94,11.94,0,0,1,0-5.89c1-3.43,2.94-7.35,9.81-7.35,6.37,0,9.81,3.92,9.81,9.8v6.87h27v-7.85c0-23.53-21.09-27.46-36.29-27.46-19.12,0-34.82,6.38-37.76,24a30.12,30.12,0,0,0,.49,14.71c4.41,22.56,42.66,28.93,48.06,42.66" transform="translate(-18 -265.39)"/><polygon class="cls-1" points="630.62 3.43 632.09 91.21 606.59 3.43 565.89 3.43 565.89 111.31 592.86 111.31 591.39 20.6 618.85 111.31 657.59 111.31 657.59 3.43 630.62 3.43"/><polygon class="cls-1" points="117.2 3.43 97.09 112.79 126.52 112.79 141.72 11.77 156.43 112.79 185.85 112.79 165.75 3.43 117.2 3.43"/><polygon class="cls-1" points="281.96 3.43 268.23 88.76 254.5 3.43 209.88 3.43 207.43 112.79 234.89 112.79 235.87 11.77 254.5 112.79 281.96 112.79 301.09 11.77 301.58 112.79 329.04 112.79 326.59 3.43 281.96 3.43"/><path class="cls-1" d="M515.24,361.51c7.35,0,9.8-5.4,10.3-7.85V268.83H553v78.45c0,2,0,5.89-.49,7.36-2,20.6-18.15,27-38.25,27s-36.29-6.37-38.25-27c0-1-.49-4.9-.49-7.36V268.83H503v85.32c2.45,2.45,4.9,7.36,12.26,7.36" transform="translate(-18 -265.39)"/><path class="cls-1" d="M742.77,360.53c7.85,0,10.79-4.91,11.28-7.85V333.06H743.26V317.37H782v29.42a48.5,48.5,0,0,1-.49,7.36c-2,19.62-19.12,27-38.25,27s-36.78-6.86-38.25-27a45.29,45.29,0,0,1-.49-7.36V300.7c0-2,.49-5.39.49-7.36,2.45-20.59,19.13-27,38.25-27s36.29,6.38,38.25,27a32.44,32.44,0,0,1,0,7.36v3.43H754.05v-5.88a21.67,21.67,0,0,0-.49-4.42c-.49-2.45-2.45-7.84-10.79-7.84-7.85,0-10.3,5.39-10.79,7.84a18.48,18.48,0,0,0-.49,5.4v53.94c1,2.45,3.43,7.36,11.28,7.36" transform="translate(-18 -265.39)"/><path class="cls-2" d="M37.12,521.86H55.27c13.73,0,18.63-9.32,18.63-16.18,0-15.21-9.81-17.66-23.05-17.66H37.12Zm0-44.63H55.76c9.81,0,14.71-5.88,14.71-15.2,0-7.84-4.9-14.22-15.2-14.22H37.12ZM24.37,532.16V437H56.74c13.73,0,18.63,4.42,22.56,9.81a25.08,25.08,0,0,1,3.92,12.75c0,11.77-4.41,19.62-17.16,22.56v.49c14.22,1.47,20.59,9.81,20.59,23.05,0,24.51-18.63,27-29.91,27H24.37Z" transform="translate(-18 -265.39)"/><rect class="cls-2" x="91.21" y="171.63" width="12.75" height="95.13"/><path class="cls-2" d="M196,497.83V465.46c0-20.1-14.23-20.59-18.64-20.59s-18.63.49-18.63,20.59v32.37c0,21.09,6.37,26,18.63,26s18.64-4.9,18.64-26m-50-.49V466c0-19.13,10.29-31.39,31.38-31.39s31.38,12.26,31.38,31.39v31.38c0,26.48-10.29,36.78-31.38,36.78S146,523.82,146,497.34" transform="translate(-18 -265.39)"/><polygon class="cls-2" points="212.82 171.63 212.82 266.76 262.35 266.76 262.35 256.46 225.57 256.46 225.57 171.63 212.82 171.63"/><path class="cls-2" d="M342.14,497.83V465.46c0-20.1-14.22-20.59-18.64-20.59-3.92,0-18.63.49-18.63,20.59v32.37c0,21.09,6.37,26,18.63,26s18.64-4.9,18.64-26m-50-.49V466c0-19.13,10.3-31.39,31.38-31.39s31.39,12.26,31.39,31.39v31.38c0,26.48-10.3,36.78-31.39,36.78s-31.38-10.3-31.38-36.78" transform="translate(-18 -265.39)"/><path class="cls-2" d="M425.5,462.52c0-11.28-4.9-17.16-17.65-17.16-3.93,0-18.64.49-18.64,20.6v31.87c0,21.09,6.38,26,18.64,26,9.31,0,15.2-2.45,17.65-4.41V491H406.87V480.18h31.38v47.07c-8.34,4.41-17.65,7.36-30.89,7.36-21.09,0-31.39-10.3-31.39-36.78V466.45c0-19.13,10.3-31.39,31.39-31.39,21.57,0,31.87,7.36,30.89,27.46Z" transform="translate(-18 -265.39)"/><rect class="cls-2" x="445.75" y="171.63" width="12.75" height="95.13"/><path class="cls-2" d="M544.66,463c0-5.39-.49-10.79-2.94-13.73s-8.83-3.92-11.28-3.92c-10.3,0-14.71,5.88-15.2,7.36-.49,1-2.94,3.43-2.94,19.61v25.5c0,23.54,7.84,26,17.65,26,3.92,0,15.69-1.47,15.69-20.11h13.24c.49,29.92-21.58,29.92-28.44,29.92-12.26,0-31.38-1-31.38-37.76v-27c0-27,12.25-34.82,32.36-34.82,19.61,0,27.46,9.81,26,28.44H544.66Z" transform="translate(-18 -265.39)"/><path class="cls-2" d="M587.32,503.71v3c0,12.75,8.83,17.16,16.67,17.16,10.3,0,17.66-3.92,17.66-15.69,0-21.09-45.12-18.64-45.12-47.57,0-16.67,12.75-26,29.43-26,18.14,0,28.44,8.34,27.95,27.95H620.67c0-10.3-3.44-17.16-15.2-17.16-7.85,0-15.21,3.92-15.21,14.22,0,21.09,45.12,18.14,45.12,48.06,0,20.1-14.71,26.48-30.89,26.48-29.43.49-29.43-21.09-29.43-30.41Z" transform="translate(-18 -265.39)"/></svg>