<?xml version="1.0" encoding="utf-8"?>
<!-- Generator: Adobe Illustrator 13.0.0, SVG Export Plug-In . SVG Version: 6.00 Build 14948)  -->
<!DOCTYPE svg PUBLIC "-//W3C//DTD SVG 1.1//EN" "http://www.w3.org/Graphics/SVG/1.1/DTD/svg11.dtd">
<svg version="1.1" id="Layer_1" xmlns="http://www.w3.org/2000/svg" xmlns:xlink="http://www.w3.org/1999/xlink" x="0px" y="0px"
	 width="301.586px" height="109.58px" viewBox="0 0 301.586 109.58" enable-background="new 0 0 301.586 109.58"
	 xml:space="preserve">
<g>
	<g>
		<polygon fill="#074CA1" points="205.834,74.551 205.834,92.369 210.127,92.369 210.127,85.728 213.934,85.728 213.934,82.083 
			210.208,82.083 210.208,74.551 		"/>
		<path fill="#074CA1" d="M199.922,101.117"/>
		<path fill="#074CA1" d="M189.635,108.406V93.828h20.572v14.579L189.635,108.406L189.635,108.406z M206.002,104.849v-7.464h-12.164
			v7.464H206.002z"/>
		<path fill="#074CA1" d="M199.922,101.117"/>
		<polygon fill="#074CA1" points="239.851,74.551 239.851,92.369 235.56,92.369 235.56,84.188 229.969,84.188 229.969,80.544 
			235.477,80.544 235.477,74.551 		"/>
		<path fill="#074CA1" d="M229.161,100.872"/>
		<path fill="#074CA1" d="M229.161,109.58c-6.391,0-11.57-3.899-11.57-8.708c0-4.807,5.182-8.704,11.57-8.704
			s11.568,3.897,11.568,8.704C240.73,105.681,235.549,109.58,229.161,109.58z M236.355,100.872c0-2.686-3.224-4.861-7.194-4.861
			c-3.973,0-7.195,2.176-7.195,4.861c0,2.688,3.224,4.863,7.195,4.863C233.131,105.735,236.355,103.56,236.355,100.872z"/>
		<path fill="#074CA1" d="M229.161,100.872"/>
		<path fill="#074CA1" d="M195.508,75.199c0,0-0.574,9.636,7.234,13.633l-2.242,3.099c0,0-5.725-3.772-7.021-7.902
			c-1.295,4.13-7.016,7.902-7.016,7.902l-2.244-3.099c7.809-3.997,7.234-13.633,7.234-13.633H195.508z"/>
		<path fill="#074CA1" d="M222.575,84.028c-1.295,4.129-6.537,7.584-6.537,7.584l-2.244-3.103c7.33-3.677,6.758-13.313,6.758-13.313
			h4.051c0,0-0.572,9.636,6.758,13.313l-2.246,3.103C229.112,91.612,223.872,88.157,222.575,84.028z"/>
		<rect x="273.518" y="75.342" fill="#074CA1" width="16.564" height="3.612"/>
		<rect x="293.163" y="73.827" fill="#074CA1" width="4.211" height="35.07"/>
		<rect x="295.391" y="86.577" fill="#074CA1" width="6.195" height="3.609"/>
		<rect x="265.39" y="73.937" fill="#074CA1" width="4.21" height="23.328"/>
		<rect x="259.931" y="81.868" fill="#074CA1" width="8.22" height="3.611"/>
		<rect x="244.725" y="75.328" fill="#074CA1" width="17.132" height="3.612"/>
		<rect x="248.484" y="93.62" fill="#074CA1" width="4.212" height="14.738"/>
		<path fill="#074CA1" d="M255.68,76.688c0,0-0.016,0.144-0.026,0.401c0.085,3.236-1.168,8.726,7.538,12.96l-2.188,2.997
			c0,0-6.276-3.37-7.773-7.61c-1.499,4.241-7.775,7.61-7.775,7.61l-2.188-2.997c8.704-4.234,7.449-9.724,7.536-12.96
			c-0.011-0.259-0.026-0.401-0.026-0.401H255.68z"/>
		<path fill="#074CA1" d="M283.728,78.374v0.609v2.043c0.204,7.776,0.472,13.427,7.251,19.438l-2.773,3.051
			c0,0-5.711-5.306-6.563-10.063c-0.854,4.758-6.563,10.063-6.563,10.063l-2.772-3.051c6.776-6.011,7.044-11.66,7.247-19.438v-2.043
			v-0.609H283.728z"/>
		<rect x="250.719" y="104.75" fill="#074CA1" width="18.992" height="3.608"/>
	</g>
	<g>
		<g>
			<path fill="#074CA1" d="M200.735,1.103C154.897-3.452,87.927,6.403,41.265,25.248l-2.789,1.196
				c0.856-0.045,1.44-0.006,1.44-0.006c7.767,0.213,7.292,5.043,7.292,5.043l0.012,2.949h-6.191v-2.003
				c0-1.421-1.728-1.516-1.728-1.516c-1.326,0-1.634,0.899-1.634,0.899c-0.734,1.373,0.521,2.557,0.521,2.557
				c0.64,0.71,3.86,2.204,3.86,2.204c1.042,0.401,2.723,1.442,2.723,1.442c3.149,1.894,2.865,5.491,2.865,5.491v2.369
				c-0.379,5.872-8.477,5.706-8.477,5.706c-8.477,0-8.291-5.563-8.291-5.563v-2.906h6.596v2c0,1.705,1.647,1.781,1.647,1.781
				c1.8,0.069,1.951-1.67,1.951-1.67c0.247-1.692-1.619-2.758-1.619-2.758c-1.847-0.947-4.925-2.605-4.925-2.605
				c-1.515-0.994-2.131-1.894-2.131-1.894c-1.089-1.374-1.018-3.504-1.018-3.504v-1.848c0-2.558,0.687-3.291,0.687-3.291
				c0.009-0.019,0.022-0.032,0.032-0.05c-45.662,21.351-40.453,43.545,2.094,47.662c46.508,4.5,116.743-4.444,163.938-25.541
				c-0.149,0.008-0.283,0.035-0.438,0.035c0,0-7.986,0.646-8.178-5.791V33.187c0,0-0.994-6.867,7.955-6.867
				c0,0,5.824-0.188,7.363,3.269c0,0,0.762,0.925,0.557,4.75h-6.203v-1.96c0,0-0.012-1.582-1.619-1.582c0,0-1.684,0.071-1.684,1.396
				v12.88c0,0-0.072,1.729,1.821,1.729c0,0,1.558-0.032,1.558-1.853v-3.725h-1.691v-3.47h7.973v7.317c0,0-0.021,1.541-0.66,2.438
				c0,0-0.474,0.706-0.763,1.022l2.595-1.299C248.51,25.808,243.278,5.327,200.735,1.103z M65.644,50.743L63.23,32.51h-0.542
				l-2.412,18.233h-6.589l4.071-23.516h10.403l4.071,23.516H65.644z M98.95,50.769l-0.148-17.717h-0.425l-3.206,17.713H88.73
				l-3.246-17.719h-0.481l-0.074,17.723h-6.122l0.516-23.521h10.341l1.981,12.873h0.485l2.073-12.872h10.239l0.663,23.521H98.95z
				 M128.757,43.507v2.369c-0.379,5.872-8.477,5.706-8.477,5.706c-8.476,0-8.292-5.563-8.292-5.563v-2.906h6.598v2.002
				c0,1.705,1.646,1.779,1.646,1.779c1.8,0.07,1.952-1.67,1.952-1.67c0.246-1.691-1.62-2.757-1.62-2.757
				c-1.847-0.946-4.925-2.606-4.925-2.606c-1.515-0.993-2.131-1.893-2.131-1.893c-1.089-1.374-1.018-3.504-1.018-3.504v-1.848
				c0-2.557,0.687-3.291,0.687-3.291c1.752-3.292,7.86-2.889,7.86-2.889c7.766,0.213,7.293,5.043,7.293,5.043l0.011,2.949h-6.191
				v-2.003c0-1.421-1.728-1.516-1.728-1.516c-1.326,0-1.634,0.899-1.634,0.899c-0.734,1.373,0.521,2.557,0.521,2.557
				c0.638,0.71,3.859,2.203,3.859,2.203c1.042,0.402,2.723,1.443,2.723,1.443C129.042,39.909,128.757,43.507,128.757,43.507z
				 M152.99,45.097c0,6.467-8.189,6.367-8.189,6.367c-9.423,0-8.732-6.677-8.732-6.677V27.149h6.725l0.022,17.781
				c0,1.994,1.891,1.894,1.891,1.894c1.8,0,1.71-1.94,1.71-1.94V27.151h6.574L152.99,45.097L152.99,45.097z M181.252,50.772h-7.309
				l-6.521-14.383h-0.275l0.368,14.383h-6.134V27.254h7.535l6.297,14.265h0.272l-0.444-14.268h6.209v23.521H181.252z"/>
		</g>
	</g>
</g>
</svg>
