<?xml version="1.0" encoding="utf-8"?>
<svg id="master-artboard" viewBox="0 0 1500 1500" version="1.1" xmlns="http://www.w3.org/2000/svg" x="0px" y="0px" width="1500px" height="1500px" enable-background="new 0 0 1500 1500">

<g transform="matrix(1, 0, 0, 1, 5.390884317506277, 61.09690832459637)">
		<path fill="#F99621" d="M1194.6,741.5c130.1,3.3,204.6-148,121.5-248.2c-119-143.6-324-258.6-553.1-258.6&#10;&#9;&#9;&#9;c-123.1,0-238.4,24.8-337.2,68.1c-25.7,11.3-19.7,49.2,8.2,51.9c361.3,34.8,675.2,121.9,675.2,121.9&#10;&#9;&#9;&#9;c-340.2-33.6-572.3-40.9-725.4-38.6c-154.6,2.3-281.1,126.2-283.8,280.8c0,2.2-0.1,4.3-0.1,6.5c0,2.1,0,4.3,0.1,6.4&#10;&#9;&#9;&#9;c3.3,192.1,162.1,345.3,354.2,345.2c152,0,369-7.7,671.4-33.1c0,0-268.8,63.5-595.2,96.4c-24.5,2.5-27.6,37-3.8,43.7&#10;&#9;&#9;&#9;c73.4,20.8,153.1,32.1,236.4,32.1c222.7,0,419.8-81.3,540.1-206c55-57,23.9-152.4-54.1-165.9c-140.2-24.2-398.2-54.2-840.1-61&#10;&#9;&#9;&#9;C408.9,783.2,863.2,733.1,1194.6,741.5z"/>
	</g></svg>