<?xml version="1.0" encoding="utf-8"?>
<svg id="master-artboard" viewBox="0 0 1500 1500" version="1.1" xmlns="http://www.w3.org/2000/svg" x="0px" y="0px" width="1500px" height="1500px" enable-background="new 0 0 1500 1500">
<path fill="#8B5C32" d="M816.2,867.5c0,0-39.1,7.4-93.5,58c-54.4,50.6-84.3,134.6-84.3,134.6s-18.9,55.1-25.7,93.8&#10;&#9;&#9;&#9;c-9.7,54.5-12.8,99.5-8.9,104.5c3,3.9,49.8,3.2,49.8-5.8c0-23.9-8.7-139.3,43.2-232.8c27-48.7,71.9-94,86.2-102.9&#10;&#9;&#9;&#9;c14.3-8.9,48.3-28.8,49-30.5C832.5,884.8,834.4,867.5,816.2,867.5z" transform="matrix(1, 0, 0, 1, 5.684341886080802e-14, 1.4210854715202004e-14)"/><path fill="#8B5C32" d="M1113.4,819.9c0,0,85.8-8.7,122.4-3.1c36.7,5.5,61.3,14.3,66.5,15.7c5.3,1.4,19.2-24.2-26-32.4&#10;&#9;&#9;&#9;c-45.2-8.2-75-13.7-105.3-12.7c-30.2,0.9-57.7,0.6-57.7,0.6v34.7" transform="matrix(1, 0, 0, 1, 5.684341886080802e-14, 1.4210854715202004e-14)"/><path fill="#6B1526" d="M1306.5,811.1c-97.5-29.7-193.2-20.4-194.1-20.3l-0.6-5.9c1-0.1,97.8-9.6,196.5,20.5L1306.5,811.1z" transform="matrix(1, 0, 0, 1, 5.684341886080802e-14, 1.4210854715202004e-14)"/><g transform="matrix(1, 0, 0, 1, 5.684341886080802e-14, 1.4210854715202004e-14)">
			<path fill="#99A738" d="M778.8,597.8c0,0,18.5-27.8,56.5-31.2c27.5-2.4-11.4,22.7,0.3,22.1"/>
		</g><path fill="#99A738" d="M839.2,583.1c0,0,24.1-23.1,61.9-18.2c27.4,3.6-16.1,19.6-4.5,21.6" transform="matrix(1, 0, 0, 1, 8.526512829121202e-14, 2.1316282072803006e-14)"/><path fill="#99A738" d="M900.6,583c0,0,27.8-18.6,64.2-7.1c26.4,8.3-19.3,16.5-8.2,20.5" transform="matrix(1, 0, 0, 1, 8.526512829121202e-14, 2.1316282072803006e-14)"/><path fill="#99A738" d="M960.8,592.4c0,0,31.7-10.6,63.7,10.1c23.2,15-22.9,10.9-13.4,17.6" transform="matrix(1, 0, 0, 1, 8.526512829121202e-14, 2.1316282072803006e-14)"/><path fill="#99A738" d="M1011.9,618.3c0,0,33.2-3.4,60,23.8c19.4,19.7-24.8,5.6-16.9,14.3" transform="matrix(1, 0, 0, 1, 8.526512829121202e-14, 2.1316282072803006e-14)"/><path fill="#99A738" d="M1054.1,656.4c0,0,33.2,3.9,53.4,36.3c14.6,23.4-25.4,0.1-19.6,10.2" transform="matrix(1, 0, 0, 1, 8.526512829121202e-14, 2.1316282072803006e-14)"/><path fill="#99A738" d="M1086,700.8c0,0,25.8,10.1,35.3,40.2c6.9,21.9-20.4-5.2-17.9,4.1" transform="matrix(1, 0, 0, 1, 8.526512829121202e-14, 2.1316282072803006e-14)"/><path fill="#99A738" d="M1104.6,744.9c0,0,17.1,14.9,16,40.8c-0.8,18.7-14.2-9.7-14.9-1.8" transform="matrix(1, 0, 0, 1, 8.526512829121202e-14, 2.1316282072803006e-14)"/><g transform="matrix(1, 0, 0, 1, 5.684341886080802e-14, 1.4210854715202004e-14)">
			<path fill="#6B1526" d="M781.3,599.4l-4.9-3.3c0.8-1.2,19.8-29,58.7-32.5c4.9-0.4,10.7-0.4,12.7,3.5c2.3,4.5-2.5,10-7.2,15.3&#10;&#9;&#9;&#9;&#9;c-1.6,1.8-4,4.6-4.3,5.5c0-0.2,0.1-0.7-0.3-1.3c-0.2-0.3-0.4-0.5-0.5-0.6l0.3,5.7c-3.1,0.1-4.4-1.2-5-2.3&#10;&#9;&#9;&#9;&#9;c-1.5-3.1,1.3-6.1,5.4-10.8c2-2.2,6-6.8,6.3-8.6c-0.5-0.2-2.2-0.7-6.8-0.3C799.6,572.8,781.5,599.2,781.3,599.4z"/>
		</g><path fill="#6B1526" d="M896.1,589.5c-3.1-0.5-4.1-2.1-4.4-3.4c-0.8-3.3,2.6-5.7,7.6-9.4c2.4-1.8,7.3-5.4,8-7.1&#10;&#9;&#9;&#9;&#9;c-0.4-0.3-2-1.2-6.6-1.8c-36-4.7-59.2,17.2-59.5,17.4l-4.1-4.3c1-1,25.6-24.1,64.4-19c4.9,0.6,10.6,1.9,11.7,6.2&#10;&#9;&#9;&#9;&#9;c1.3,4.9-4.6,9.2-10.3,13.4c-2,1.4-4.9,3.6-5.4,4.4c0.1-0.1,0.3-0.7,0-1.4c-0.1-0.3-0.3-0.5-0.4-0.7L896.1,589.5z" transform="matrix(1, 0, 0, 1, 8.526512829121202e-14, 2.1316282072803006e-14)"/><path fill="#6B1526" d="M955.5,599.2c-2.9-1.1-3.6-2.8-3.7-4.1c-0.2-3.4,3.5-5.2,9.1-7.9c2.7-1.3,8.2-4,9.1-5.6&#10;&#9;&#9;&#9;&#9;c-0.4-0.4-1.7-1.5-6.2-2.9c-34.6-10.9-61.3,6.6-61.6,6.7l-3.3-4.9c1.2-0.8,29.4-19.2,66.7-7.5c4.7,1.5,10.1,3.7,10.4,8.1&#10;&#9;&#9;&#9;&#9;c0.4,5-6.2,8.3-12.5,11.4c-2.2,1.1-5.5,2.7-6.1,3.4c0.1-0.1,0.4-0.6,0.3-1.3c0-0.3-0.2-0.6-0.3-0.8L955.5,599.2z" transform="matrix(1, 0, 0, 1, 8.526512829121202e-14, 2.1316282072803006e-14)"/><path fill="#6B1526" d="M1009.5,622.5c-2.6-1.8-2.8-3.7-2.5-4.9c0.7-3.3,4.8-4.1,10.9-5.2c2.9-0.6,8.9-1.7,10.2-2.9&#10;&#9;&#9;&#9;&#9;c-0.3-0.5-1.3-1.9-5.2-4.4c-30.4-19.6-60.9-9.9-61.2-9.8l-1.9-5.6c1.3-0.5,33.4-10.8,66.3,10.4c4.1,2.7,8.7,6.3,7.9,10.6&#10;&#9;&#9;&#9;&#9;c-1,5-8.1,6.3-15.1,7.6c-2.4,0.5-6,1.1-6.8,1.7c0.1-0.1,0.5-0.5,0.6-1.2c0-0.3,0-0.6-0.1-0.8L1009.5,622.5z M1012.5,617.4&#10;&#9;&#9;&#9;&#9;L1012.5,617.4L1012.5,617.4z" transform="matrix(1, 0, 0, 1, 8.526512829121202e-14, 2.1316282072803006e-14)"/><path fill="#6B1526" d="M1052.8,658.4c-2.1-2.3-1.9-4.2-1.4-5.3c1.4-3.1,5.5-2.9,11.8-2.7c3,0.1,9.1,0.3,10.6-0.6&#10;&#9;&#9;&#9;&#9;c-0.1-0.5-0.8-2.1-4.1-5.5c-25.4-25.8-57.2-23-57.6-23l-0.6-5.9c1.4-0.1,35-3.2,62.4,24.7c3.4,3.5,7.1,8,5.4,12.1&#10;&#9;&#9;&#9;&#9;c-2,4.6-9.3,4.4-16.4,4.2c-2.4-0.1-6.1-0.2-7,0.2c0.2-0.1,0.6-0.4,0.9-1.1c0.1-0.3,0.1-0.6,0.1-0.8L1052.8,658.4z" transform="matrix(1, 0, 0, 1, 8.526512829121202e-14, 2.1316282072803006e-14)"/><path fill="#6B1526" d="M1106.6,706.5c-3.2,0-7-1-10.8-2c-2.3-0.6-5.9-1.5-6.8-1.4c0.2,0,0.7-0.2,1.1-0.8&#10;&#9;&#9;&#9;&#9;c0.2-0.3,0.3-0.5,0.3-0.8l-5,2.8c-1.5-2.7-0.9-4.5-0.2-5.5c2.1-2.7,6-1.7,12.1-0.1c2.9,0.7,8.8,2.3,10.5,1.7&#10;&#9;&#9;&#9;&#9;c0-0.6-0.3-2.3-2.8-6.2c-19.2-30.7-50.9-34.9-51.2-34.9l0.7-5.9c1.4,0.2,34.8,4.5,55.5,37.7c2.6,4.1,5.2,9.4,2.6,12.9&#10;&#9;&#9;&#9;&#9;C1111.3,705.8,1109.1,706.5,1106.6,706.5z" transform="matrix(1, 0, 0, 1, 8.526512829121202e-14, 2.1316282072803006e-14)"/><path fill="#6B1526" d="M1120,752.7c-3.2,0-7-2.1-10.8-4.2c-1.7-0.9-4.2-2.3-5-2.5c0.2,0,0.9,0,1.5-0.6c0.4-0.4,0.6-0.8,0.6-1.1&#10;&#9;&#9;&#9;&#9;l-5.6,1.5c-0.7-2.8,0.2-4.2,1.2-5c2.5-1.9,5.6-0.2,10.3,2.4c1.9,1.1,5.7,3.1,7.4,3.4c0-0.7-0.1-2.1-1-4.9&#10;&#9;&#9;&#9;&#9;c-8.9-28.5-33.3-38.3-33.5-38.4l2.2-5.5c1.1,0.4,27.2,10.9,37,42.1c1.3,4,2.3,9-0.8,11.5C1122.4,752.4,1121.2,752.7,1120,752.7z" transform="matrix(1, 0, 0, 1, 8.526512829121202e-14, 2.1316282072803006e-14)"/><path fill="#6B1526" d="M1117.9,795.2c-3.2,0-6.2-3.4-9.1-6.7c-1-1.1-2.5-2.8-3-3.2c0.2,0.1,0.9,0.3,1.8,0&#10;&#9;&#9;&#9;&#9;c0.8-0.4,1.2-1.1,1.2-1.3l-6-0.3c0.2-2.8,1.8-3.7,2.7-4c2.8-0.9,4.9,1.5,7.8,4.9c1.1,1.2,2.8,3.2,4,4.2c0.1-0.6,0.3-1.6,0.4-3.2&#10;&#9;&#9;&#9;&#9;c1-24.2-14.8-38.3-15-38.4l3.9-4.5c0.7,0.6,18.1,16.2,17,43.2c-0.2,3.6-0.8,7.9-4.1,9.1C1118.9,795.1,1118.4,795.2,1117.9,795.2z&#10;&#9;&#9;&#9;&#9;" transform="matrix(1, 0, 0, 1, 8.526512829121202e-14, 2.1316282072803006e-14)"/><path fill="#B8C63B" d="M542.5,518.9c0,0-27.2-5.5-47-5.3c-19.8,0.3-32.3,4.2-38.2,5.3c-5.9,1-19.5,0.3-23.8,0.9&#10;&#9;&#9;&#9;c-4.3,0.6-7.5,0.4-3.6,3.9c3.9,3.6,25.7,17.9,36.9,33.1c11.2,15.2,29.8,46.6,34.7,55c4.9,8.4,16.3,23.5,21.1,28&#10;&#9;&#9;&#9;c4.8,4.4,14.7,13.8,12.1,13.7c-2.6,0-18.5-3.5-30.5-6.6c-12-3-20.7-6.4-46.2-6.6c-25.5-0.2-37.2-6.6-38.4-7.1&#10;&#9;&#9;&#9;c-1.2-0.5-9.7-5.8-9.7-5.8s13.3,24.6,29.3,36.7c16,12.1,19.7,14.4,31.9,19.3c12.2,4.9,38.1,7.7,43.8,25.6&#10;&#9;&#9;&#9;c5.8,17.9,30.6,36.3,58.6,48.7c28.1,12.4,77.7,29.9,77.7,29.9s46.5,13,58.7,15.5c12.2,2.5,47,9.9,47,9.9s37.6,8.3,50.2,14&#10;&#9;&#9;&#9;c12.5,5.8,27.9,7.7,36.5,9.1c8.6,1.4,19.9-0.4,19.9-0.4s96.2-5.4,112.9,3.6c16.8,8.9,18,8.8,27.9,30.4c9.9,21.6,14.1,66,12.8,79.6&#10;&#9;&#9;&#9;c-1.3,13.5-6,45.2-17.5,60.1c-11.6,14.8-31.8,39.9-52.9,34.4c-21.1-5.6-24-24.1-24.3-35.6c-0.3-11.5,13.1-18.2,20.1-14.7&#10;&#9;&#9;&#9;c7,3.5,14.7,9.9,15,18.5c0.3,8.6-5.7,11.2-10.5,11.2s-10.9-5.1-10.9-9.3c0-4.2,6.1-6.7,6.4-9.3c0.3-2.6,0.6-9.9-9.9-0.6&#10;&#9;&#9;&#9;c-10.5,9.3-6.3,22-1.9,28.1c4.3,6.1,16.6,13.7,27.5,10.2c10.9-3.5,20.1-15.7,20.8-31c0.6-15.3-8.9-30.3-20.8-36.1&#10;&#9;&#9;&#9;c-11.8-5.7-30.5-12.9-48-1.5c-17.5,11.4-31.7,34.7-26.7,70c5.1,35.3,41.6,46.1,54.8,52.1c13.2,5.9,52.3,1,80.5-28.3&#10;&#9;&#9;&#9;c28.2-29.3,48.7-71.9,48.7-71.9s26.7-60.4,36.8-99.3c10.1-38.9,8-72,7.6-102.4c-0.4-30.4-14.1-62-23.1-84.8&#10;&#9;&#9;&#9;c-8.9-22.8-35.2-57.6-55.3-73.3c-20.1-15.7-43.5-36.4-105.5-51.2c-61.9-14.7-138.4,9.6-138.4,9.6l-35.2,11.6l-23.7,10.1&#10;&#9;&#9;&#9;c0,0,8.9-13.2,22.5-21.7c13.6-8.5,30.9-28.2,31.1-31c0.2-2.8,3.2-11.5-33.7-27c-37-15.6-72.4-13.2-72.4-13.2s-39.8,3.9-42.2,3.9&#10;&#9;&#9;&#9;c-2.4,0-18.7,0-18.7,0s-10.5-13.9-32.6-15.3C563.1,509.9,546.4,522.1,542.5,518.9z" transform="matrix(1, 0, 0, 1, 5.684341886080802e-14, 1.4210854715202004e-14)"/><path fill="#9FA519" d="M1002.8,1004.8c10.7-16.8,46.6-77.7,41.6-137.3c-5.9-70-107.1-67.7-159.2-64.5&#10;&#9;&#9;&#9;c-52.1,3.2-149.1-22.4-212.4-40c-63.2-17.6-117.5-68.7-117.5-68.7c-4.1-3.7-21.1-11.5-31.7-11.3c-10.6,0.2-30.3-0.8-38.6-0.8&#10;&#9;&#9;&#9;c-8.3,0-27-6.6-27-6.6s0.1,0.6,0.2,1.7c3.9,2.2,7.6,3.9,13,6.1c12.2,4.9,38.1,7.7,43.8,25.6c5.8,17.9,30.6,36.3,58.6,48.7&#10;&#9;&#9;&#9;c28.1,12.4,77.7,29.9,77.7,29.9s46.5,13,58.7,15.5c12.2,2.5,47,9.9,47,9.9s37.6,8.3,50.2,14c12.5,5.8,27.9,7.7,36.5,9.1&#10;&#9;&#9;&#9;c8.6,1.4,19.9-0.4,19.9-0.4s96.2-5.4,112.9,3.6c16.8,8.9,18,8.8,27.9,30.4c9.9,21.6,14.1,66,12.8,79.6&#10;&#9;&#9;&#9;C1016.2,961.5,1012.2,988.8,1002.8,1004.8z" transform="matrix(1, 0, 0, 1, 5.684341886080802e-14, 1.4210854715202004e-14)"/><path fill="#9FA519" d="M652,789.7c0,0-23.1,15.1-32.9,19.6c-9.8,4.5-28.1,11.6-43.4,9.4c-15.3-2.3-16.4-11.1-33.5-4.5&#10;&#9;&#9;&#9;c-17.2,6.6-11.4,14.2-8.3,14c3.1-0.2,12,1.4,9.4,2.3s-11,6-16.4,11.6c-5.5,5.6-12.2,11.5-4,11.7c8.2,0.2,47.9,2.3,57.1,1.1&#10;&#9;&#9;&#9;c9.2-1.3,7-3.1,29-10c22-6.9,42-11.1,48.7-13.6c6.7-2.5,36.3-17.6,36.3-17.6L710,803l-54.4-13.4&#10;&#9;&#9;&#9;C655.6,789.7,654.7,787.4,652,789.7z" transform="matrix(1, 0, 0, 1, 5.684341886080802e-14, 1.4210854715202004e-14)"/><path fill="#9FA519" d="M664.6,729.5c0,0-24.7-2-23.1,22c1.6,24,20.1,6.4,20.1,6.4L664.6,729.5z" transform="matrix(1, 0, 0, 1, 5.684341886080802e-14, 1.4210854715202004e-14)"/><path fill="#B8C63B" d="M655.6,763c0,0,62.4,28,79.2,40c16.7,12,24.5,15,21.8,31.6c-2.8,16.6-5.7,31.1-9.9,35.5&#10;&#9;&#9;&#9;c-4.2,4.4-20.5,11.5-22,22.8c-1.5,11.3,0,31.2,2.1,28.5c2.1-2.7,13.1-12.7,15.4-11.7c2.3,1,11.1,9.6,11.4,17.3&#10;&#9;&#9;&#9;c0.3,7.7,2.2,9.4-3,18.5c-5.2,9.2-5.9,12.2,0,9.8c5.8-2.4,18.9-12.3,22.7-21.2c3.8-8.9,6.1-15.3,5.3-19.3&#10;&#9;&#9;&#9;c-0.7-4-8.1-14.9-8.1-17.5c0-2.6,4.1-12.4,10.2-19.1c6.1-6.7,20-39.1,20.1-58.7c0.1-19.6-8.9-34.6-22.6-45.6&#10;&#9;&#9;&#9;c-13.7-11-38.6-24.3-54.9-30.6c-16.3-6.3-33.5-14.5-49.4-14.9C658,727.9,629.2,743.1,655.6,763z" transform="matrix(1, 0, 0, 1, 5.684341886080802e-14, 1.4210854715202004e-14)"/><path fill="#B8C63B" d="M1033.8,815.4c0,0-17.2-7.7-40.6-14.7c-23.3-7-39.9-15.8-51.4-12.9c-11.5,3-39.6,21.2-39.6,21.2&#10;&#9;&#9;&#9;s-34,21.9-40.3,28.1c-6.3,6.2-12.7,12.7-16.7,13.8c-4,1.1-21.4,1.1-27.6,5.3c-6.2,4.2-14,12.1-14,12.1s19.8-4.5,25.3,6&#10;&#9;&#9;&#9;c5.5,10.5,2,15.5-2.4,18.6c-4.4,3.1-14.2,8.8-14.2,8.8s12.9,7.1,26.3,5.2c13.4-2,24.6-12.4,25.4-18c0.8-5.7,0.2-13.3,4-17.2&#10;&#9;&#9;&#9;c3.8-3.8,32.6-21.4,32.6-21.4l38.7-16c0,0,22,11.5,38.7,14.3c16.7,2.9,46.2,6.4,57.1,0.7C1045.9,843.6,1049.7,826.3,1033.8,815.4z&#10;&#9;&#9;&#9;" transform="matrix(1, 0, 0, 1, 5.684341886080802e-14, 1.4210854715202004e-14)"/><path fill="#E68076" d="M501.6,611.8c0,0-38.4-8.1-61.7-18.3c-23.3-10.2-67.3-35.4-67.3-35.4s-28.4-21.8-48.3-44.6&#10;&#9;&#9;&#9;c-19.9-22.8-31.8-45.1-30.3-53.7c1.5-8.6,10.5-23.7,6.5-35.1c-4-11.4-24-25.5-35.9-14.5c-11.9,11-6,23.3,0,44.1&#10;&#9;&#9;&#9;c6,20.8,31.1,59.9,41.5,72.6c10.4,12.7,36.8,42.5,69.8,61.6c33,19.1,53.8,24.1,70.1,35.6c16.3,11.5,22.4,16.5,22.4,16.5&#10;&#9;&#9;&#9;s16,0.8,26.9,3.9c10.9,3.1,40,11.3,39.5,7.4c-0.6-3.8-15.2-14.4-15.2-14.4S504.5,618.9,501.6,611.8z" transform="matrix(1, 0, 0, 1, 5.684341886080802e-14, 1.4210854715202004e-14)"/><path fill="#A95652" d="M439.8,620.3c0,0-31.8,1.8-30.2,5.7c1.6,3.9,16.9,10.6,26.8,12.1c9.8,1.4,29.7,2.4,29.7,2.4&#10;&#9;&#9;&#9;S446.7,622.1,439.8,620.3z" transform="matrix(1, 0, 0, 1, 5.684341886080802e-14, 1.4210854715202004e-14)"/><path fill="#EAB6B6" d="M294.8,427.3c2.2,7.1,0.2,15.2-2.8,16.1c-3,0.9-7.2-4.1-9.4-11.2c-2.2-7.1-1.5-13.6,1.6-14.5&#10;&#9;&#9;&#9;C287.1,416.8,292.6,420.2,294.8,427.3z" transform="matrix(1, 0, 0, 1, 5.684341886080802e-14, 1.4210854715202004e-14)"/><path fill="#EAB6B6" d="M288.5,489.8c0,0,0.9,1.3,2.5,3.7c1.5,2.3,3.9,5.6,6.6,9.6c2.7,4,6,8.5,9.5,13.3c3.5,4.9,7.4,10,11.4,15&#10;&#9;&#9;&#9;c1.9,2.6,4,5,6,7.4c2,2.4,4.1,4.7,6,7c2,2.2,4,4.4,5.8,6.4c1.9,2,3.7,3.8,5.4,5.5c1.7,1.7,3.4,3.1,4.8,4.5&#10;&#9;&#9;&#9;c1.4,1.4,2.8,2.4,3.8,3.3c2.2,1.8,3.4,2.8,3.4,2.8s-1.3-0.9-3.6-2.5c-1.2-0.8-2.6-1.7-4.1-3c-1.5-1.2-3.3-2.6-5.1-4.2&#10;&#9;&#9;&#9;c-1.8-1.6-3.7-3.4-5.7-5.3c-1.9-2-4-4-6.1-6.2c-2-2.3-4.1-4.6-6.1-7c-2-2.4-4.1-4.9-6.1-7.4c-4-5.1-7.8-10.2-11.2-15.2&#10;&#9;&#9;&#9;c-1.8-2.4-3.3-4.9-4.9-7.2c-1.5-2.3-2.9-4.5-4.2-6.5c-2.6-4.1-4.6-7.6-6-10C289.2,491.2,288.5,489.8,288.5,489.8z" transform="matrix(1, 0, 0, 1, 5.684341886080802e-14, 1.4210854715202004e-14)"/><path fill="#EAB6B6" d="M428,594.1c0,0,4.2,1.6,10.5,4.2c6.3,2.6,14.6,6,22.9,9.4c4.1,1.8,8.4,3.3,12.3,4.9&#10;&#9;&#9;&#9;c3.9,1.6,7.6,2.9,10.8,4.1c1.6,0.6,3,1.1,4.3,1.5c1.3,0.4,2.4,0.8,3.4,1.1c1.9,0.6,2.9,1,2.9,1s-1.1-0.2-3-0.6&#10;&#9;&#9;&#9;c-1-0.2-2.1-0.5-3.5-0.8c-0.7-0.1-1.4-0.3-2.2-0.5c-0.7-0.2-1.5-0.5-2.3-0.7c-1.6-0.5-3.4-1-5.2-1.6c-1.9-0.6-3.8-1.2-5.8-1.9&#10;&#9;&#9;&#9;c-4-1.5-8.2-3-12.4-4.7c-2.1-0.9-4.2-1.7-6.2-2.6c-2-0.9-4-1.8-6-2.6c-3.9-1.7-7.4-3.5-10.5-4.9c-3.1-1.4-5.5-2.8-7.3-3.7&#10;&#9;&#9;&#9;C428.9,594.7,428,594.1,428,594.1z" transform="matrix(1, 0, 0, 1, 5.684341886080802e-14, 1.4210854715202004e-14)"/><path fill="#658710" d="M1110.7,861.9c0,0-23.6,0.2-39.9-8.4c-16.3-8.6-30.3-15.9-22.7-17.4c7.7-1.5,57.6-11.7,64.4-33.1" transform="matrix(1, 0, 0, 1, 5.684341886080802e-14, 1.4210854715202004e-14)"/><path fill="#658710" d="M1094.4,719.3c0,0-9.6,23.3-39.3,38.3c-29.7,15-52.9,17.5-64.8,13.7c-15.3-4.8,15.7-2.9,38.3-52.1&#10;&#9;&#9;&#9;c22.7-49.2,20.5-69.1,20.5-69.1s23.7,27,29,38.5C1083.4,700.1,1094.4,719.3,1094.4,719.3z" transform="matrix(1, 0, 0, 1, 5.684341886080802e-14, 1.4210854715202004e-14)"/><path fill="#658710" d="M1081.8,959.9c0,0-17.7-5.6-31.5-22.4c-15.2-18.5-8.8-17.9-2.7-14.4c6.1,3.5,40.4,6,47.8,4.1" transform="matrix(1, 0, 0, 1, 5.684341886080802e-14, 1.4210854715202004e-14)"/><path fill="#658710" d="M1038.6,1041.1c0,0-10.9-8.8-15.9-25.6c-5.5-18.4-1.2-16.2,2.1-12c3.3,4.3,26.8,14.9,32.6,15.4" transform="matrix(1, 0, 0, 1, 5.684341886080802e-14, 1.4210854715202004e-14)"/><path fill="#658710" d="M978.3,1093.6c0,0-7.3-12-6.4-29.4c1-19.1,4.3-15.7,6-10.6c1.7,5.1,20.2,23.1,25.5,25.4" transform="matrix(1, 0, 0, 1, 5.684341886080802e-14, 1.4210854715202004e-14)"/><path fill="#658710" d="M900.8,1077.2c0,0,5.5-10.5,18.5-17.5c14.3-7.6,13.3-3.7,10.3-0.2c-3,3.4-7.9,24.7-7.3,29.5" transform="matrix(1, 0, 0, 1, 5.684341886080802e-14, 1.4210854715202004e-14)"/><path fill="#658710" d="M889.3,992.8c0,0,9.7,1.8,18.5,10.4c9.6,9.5,6.2,9.7,2.7,8.1c-3.5-1.5-21.7-0.2-25.4,1.5" transform="matrix(1, 0, 0, 1, 5.684341886080802e-14, 1.4210854715202004e-14)"/><path fill="#658710" d="M958.3,972.9c0,0-2,6.2-9.3,11.6c-8.1,6-8,3.8-6.6,1.6c1.4-2.2,1.4-13.9,0.3-16.3" transform="matrix(1, 0, 0, 1, 5.684341886080802e-14, 1.4210854715202004e-14)"/><path fill="#658710" d="M973.9,1031.5c0,0-4.4-2.8-7.2-9.6c-3-7.5-1.4-7,0.1-5.4c1.4,1.5,10.5,3.9,12.6,3.5" transform="matrix(1, 0, 0, 1, 5.684341886080802e-14, 1.4210854715202004e-14)"/><path fill="#658710" d="M932.5,1037.7c0,0,0-2.2,4.7-6.8c5.1-5,5.3-3.5,4.5-1.8c-0.8,1.7,0.3,10,1.4,11.6" transform="matrix(1, 0, 0, 1, 5.684341886080802e-14, 1.4210854715202004e-14)"/><path fill="#658710" d="M983.3,603.7c0,0,7,20.7-13.8,64.1c-20.8,43.4-71.4,66-67,54.5c4.4-11.5,35.3-80,15.9-138.5&#10;&#9;&#9;&#9;C918.4,583.8,965.1,591.2,983.3,603.7z" transform="matrix(1, 0, 0, 1, 5.684341886080802e-14, 1.4210854715202004e-14)"/><path fill="#8B5C32" d="M866,872.6c0,0,31.8-12.5,40.3-15.5c8.4-2.9,52-14.3,52-14.3l-14.7-10.3&#10;&#9;&#9;&#9;C943.6,832.5,896.8,849.1,866,872.6z" transform="matrix(1, 0, 0, 1, 5.684341886080802e-14, 1.4210854715202004e-14)"/><path fill="#658710" d="M835.4,584.3c0,0,21.4,30.4,1.6,83.4c-18.7,50-44.1,67.8-40.9,51.3c2.4-12.4,2.2-92.5-29.2-115.2" transform="matrix(1, 0, 0, 1, 5.684341886080802e-14, 1.4210854715202004e-14)"/><path fill="#9FA519" d="M723.6,626.5c3-3.6,8.6-8.5,15.4-14.1l-7.9,3.4c0,0,8.9-13.2,22.5-21.7c13.6-8.5,30.9-28.2,31.1-31&#10;&#9;&#9;&#9;c0.2-2.8,3.2-11.5-33.7-27c-37-15.6-72.4-13.2-72.4-13.2s-39.8,3.9-42.2,3.9c4.5,13.1,56.2-9.9,105.3,18.2&#10;&#9;&#9;&#9;c49.2,28.1-16.5,16-31.5,62.3c-15,46.3-86.5,65.4-86.5,65.4h-6.4C690.7,680.9,712.4,640.1,723.6,626.5z" transform="matrix(1, 0, 0, 1, 5.684341886080802e-14, 1.4210854715202004e-14)"/><path fill="#714A26" d="M1308,821.2c-1.8,6.6-6,11.1-9.3,10.2c-3.3-0.9-4.5-7-2.6-13.5c1.8-6.6,7-11.2,10.3-10.3&#10;&#9;&#9;&#9;C1309.6,808.5,1309.8,814.6,1308,821.2z" transform="matrix(1, 0, 0, 1, 5.684341886080802e-14, 1.4210854715202004e-14)"/><path fill="#6B1526" d="M1299.6,834.5c-0.6,0-1.1-0.1-1.7-0.2c-2.7-0.8-4.6-3.2-5.4-7c-0.6-3-0.3-6.6,0.7-10.3&#10;&#9;&#9;&#9;c2.3-8,8.8-13.8,14-12.4c4.9,1.4,6.3,8,3.7,17.3l0,0c-1,3.6-2.7,6.8-4.8,9.1C1304,833.3,1301.8,834.5,1299.6,834.5z M1305.4,810.4&#10;&#9;&#9;&#9;c-1.2,0-5,2.9-6.5,8.3c-0.8,2.7-1,5.4-0.6,7.5c0.3,1.6,0.9,2.3,1.1,2.4c0.2,0.1,1.1-0.2,2.2-1.4c1.4-1.6,2.7-4,3.4-6.7l0,0&#10;&#9;&#9;&#9;c1.8-6.4,0.9-9.6,0.4-10C1305.5,810.4,1305.4,810.4,1305.4,810.4z" transform="matrix(1, 0, 0, 1, 5.684341886080802e-14, 1.4210854715202004e-14)"/><path fill="#96A43A" d="M778,881.2c0,0,4.3-6.2,9.7-15.5c6.1-13.1,12.8-32.7,12.9-46.3c0.1-19.6-8.9-34.6-22.6-45.6&#10;&#9;&#9;&#9;c-13.7-11-38.7-24.1-54.9-30.6c-13.3-5.3-0.5-5.8-16.3-6.3c-4.4-0.1-15.2-5.1-16.9-5.6c16.3,27.4,104.6,36.3,101.2,81.3&#10;&#9;&#9;&#9;C787.8,857.8,778,881.2,778,881.2z" transform="matrix(1, 0, 0, 1, 5.684341886080802e-14, 1.4210854715202004e-14)"/><path fill="#96A43A" d="M696.8,709c0,0,14.2,11.4,14.7,24.2c0.3,7.7,0,4.8,3.2,6.4c3.2,1.6,9.5,3.8,8.1-4&#10;&#9;&#9;&#9;C721.4,727.8,714,711.7,696.8,709z" transform="matrix(1, 0, 0, 1, 5.684341886080802e-14, 1.4210854715202004e-14)"/><path fill="#6B1526" d="M508.9,520c7.7,2.7,15.9,3.3,23.7,2.1c3.9-0.6,7.7-1.7,11.3-3.3c1.8-0.7,3.7-1.6,5.6-2.5&#10;&#9;&#9;&#9;c1.9-0.8,3.8-1.6,5.8-2.3c7.8-2.9,16-5,24.5-5.4c8.5-0.4,17.3,0.9,25.1,5c7.8,4.1,14,10.6,18.5,17.7c4.5,7,8.1,14.7,10.7,22.5&#10;&#9;&#9;&#9;l3.9,11.6c1.3,3.8,2.8,7.4,5,10.7c4.2,6.6,11.1,11.2,18.4,14.9c-7.7-2.4-15.4-6.5-20.8-13.2c-5.3-6.8-7.7-14.9-10.8-22.3&#10;&#9;&#9;&#9;c-3.1-7.4-6.6-14.5-11.1-21c-4.3-6.5-9.8-12-16.5-15.5c-6.6-3.6-14.4-4.8-22.2-4.7c-7.8,0.1-15.6,1.9-23.2,4.2&#10;&#9;&#9;&#9;c-1.9,0.5-3.8,1.3-5.7,1.9c-1.9,0.7-3.7,1.4-5.7,2.1c-4,1.4-8.2,2.3-12.4,2.5C524.6,525.4,516.2,523.9,508.9,520z" transform="matrix(1, 0, 0, 1, 5.684341886080802e-14, 1.4210854715202004e-14)"/><path fill="#6B1526" d="M533.5,656.5c-0.5,0-1,0-1.4,0c-6.1-0.3-13.7-2.4-22.5-4.9c-12.3-3.5-26.3-7.5-41.4-7.9&#10;&#9;&#9;&#9;c-33.7-0.8-52.5-5.7-61-15.8c-0.9-1.1-1.1-2.5-0.6-3.7c0.7-1.6,2.1-4.8,33-6.7l0.4,5.9c-9.6,0.6-20.7,1.8-25.9,3&#10;&#9;&#9;&#9;c8.4,6.9,26.2,10.6,54.2,11.3c15.8,0.4,30.8,4.7,42.8,8.1c7.2,2,13.5,3.8,18.6,4.5c-0.3-0.3-0.6-0.5-0.9-0.8&#10;&#9;&#9;&#9;c-7.2-6.3-20.7-17.9-30.6-37.5c-17.8-34.9-39.4-62-48.4-69.3c-2.3-1.9-5.4-4.1-8.7-6.4c-11.4-8-16.8-12.1-15.2-16.4&#10;&#9;&#9;&#9;c1.2-3.3,5.6-3.4,10.1-2.9c10.5,1.1,15,0.1,23.1-1.5c6.2-1.3,13.9-2.9,27.4-4.2c31.6-3.2,59.4,5.5,60.6,5.9l-1.8,5.7&#10;&#9;&#9;&#9;c-0.3-0.1-27.9-8.7-58.2-5.6c-13.2,1.3-20.8,2.9-26.8,4.1c-8.1,1.7-13.4,2.8-24.9,1.6c-0.9-0.1-1.7-0.1-2.3-0.2&#10;&#9;&#9;&#9;c2.6,2.5,8,6.2,11.5,8.7c3.4,2.4,6.5,4.6,9,6.6c11.5,9.3,33.3,38.5,50,71.2c9.4,18.5,22.3,29.7,29.2,35.7c4.9,4.2,7.1,6.1,5.9,9&#10;&#9;&#9;&#9;C537.9,656.2,535.5,656.5,533.5,656.5z" transform="matrix(1, 0, 0, 1, 5.684341886080802e-14, 1.4210854715202004e-14)"/><path fill="#6B1526" d="M412.5,625.3c0.9,2.9,2.4,6.2,4,9.1c1.6,3,3.5,5.9,5.5,8.6c4,5.5,8.9,10.5,14.2,14.8&#10;&#9;&#9;&#9;c10.7,8.7,23.5,14.8,36.9,18.8c6.7,1.9,13.6,3.4,20.5,4.1c7,0.8,14,0.6,21.2,0.6c7.2,0,14.6,0.5,21.5,2.7&#10;&#9;&#9;&#9;c6.9,2.2,13.2,5.9,18.9,10.3c-6.1-3.7-12.5-6.9-19.4-8.5c-6.8-1.7-13.9-1.7-20.9-1.3c-7.1,0.4-14.3,0.8-21.6,0.4&#10;&#9;&#9;&#9;c-7.3-0.4-14.5-1.6-21.6-3.4c-7-2-14-4.2-20.6-7.5c-6.7-3-13-7-18.8-11.6c-5.8-4.6-11-9.9-15.4-15.9c-2.1-3-4.2-6.1-5.9-9.5&#10;&#9;&#9;&#9;c-1.8-3.3-3.2-6.6-4.3-10.5L412.5,625.3z" transform="matrix(1, 0, 0, 1, 5.684341886080802e-14, 1.4210854715202004e-14)"/><path fill="#B4B9C1" d="M623.7,569.7c0,25.4-20.6,46.1-46.1,46.1c-25.4,0-46.1-20.6-46.1-46.1c0-25.4,20.6-46.1,46.1-46.1&#10;&#9;&#9;&#9;C603,523.6,623.7,544.3,623.7,569.7z" transform="matrix(1, 0, 0, 1, 5.684341886080802e-14, 1.4210854715202004e-14)"/><path fill="#6B1526" d="M577.6,617.8c-26.5,0-48.1-21.6-48.1-48.1c0-26.5,21.6-48.1,48.1-48.1c26.5,0,48.1,21.6,48.1,48.1&#10;&#9;&#9;&#9;C625.7,596.2,604.1,617.8,577.6,617.8z M577.6,525.6c-24.3,0-44.1,19.8-44.1,44.1s19.8,44.1,44.1,44.1c24.3,0,44.1-19.8,44.1-44.1&#10;&#9;&#9;&#9;S601.9,525.6,577.6,525.6z" transform="matrix(1, 0, 0, 1, 5.684341886080802e-14, 1.4210854715202004e-14)"/><path fill="#FFFFFF" d="M615.4,563.7c0,22.1-17.9,40-40,40c-22.1,0-40-17.9-40-40c0-22.1,17.9-40,40-40&#10;&#9;&#9;&#9;C597.5,523.6,615.4,541.6,615.4,563.7z" transform="matrix(1, 0, 0, 1, 5.684341886080802e-14, 1.4210854715202004e-14)"/><path fill="#6B1526" d="M577.6,617.8c-26.5,0-48.1-21.6-48.1-48.1c0-26.5,21.6-48.1,48.1-48.1c26.5,0,48.1,21.6,48.1,48.1&#10;&#9;&#9;&#9;C625.7,596.2,604.1,617.8,577.6,617.8z M577.6,525.6c-24.3,0-44.1,19.8-44.1,44.1s19.8,44.1,44.1,44.1c24.3,0,44.1-19.8,44.1-44.1&#10;&#9;&#9;&#9;S601.9,525.6,577.6,525.6z" transform="matrix(1, 0, 0, 1, 5.684341886080802e-14, 1.4210854715202004e-14)"/><path fill="#6B1526" d="M614.9,521c0,0,0.1,0,0.3,0.1c0.2,0.1,0.4,0.2,0.7,0.2c0.3,0.1,0.6,0.2,1,0.3c0.4,0.1,1.1,0.2,1.7,0.3&#10;&#9;&#9;&#9;c1.3,0.3,3,0.5,5,0.7c2,0.3,4.3,0.3,6.9,0.4c2.6,0.2,5.5,0,8.7,0c3.2,0,6.6-0.3,10.3-0.6c1.8-0.1,3.8-0.3,5.7-0.4&#10;&#9;&#9;&#9;c2-0.2,4-0.5,6-0.7c4.2-0.5,8.6-1,13.1-1.6c9.6-1.1,19.9-0.7,30.7,0.6c10.7,1.4,21.9,3.7,33.2,7.1c5.6,1.7,11.3,3.7,16.9,5.9&#10;&#9;&#9;&#9;c5.6,2.3,11.3,4.9,16.7,8.1c2.7,1.6,5.4,3.4,8,5.4c2.6,2.1,5.1,4.4,7.2,7.7c1,1.7,1.9,3.7,2,6.3c0.1,1.2-0.2,2.5-0.6,3.7&#10;&#9;&#9;&#9;c-0.2,0.6-0.5,1.2-0.8,1.7l-0.2,0.4c0.1-0.1-0.2,0.3-0.2,0.3l-0.1,0.1l-0.3,0.5c-0.9,1.2-1.7,2.5-2.9,3.8l-1.7,1.9&#10;&#9;&#9;&#9;c-0.6,0.6-1.1,1.2-1.7,1.7c-4.5,4.6-9.4,8.5-14.1,12.5c-4.8,3.9-9.5,7.7-13.9,11.7c-4.5,3.9-8.8,8-12.7,12.2&#10;&#9;&#9;&#9;c-2,2.1-3.8,4.3-5.6,6.5c-1.7,2.3-3.5,4.5-5,6.8c-0.8,1.2-1.6,2.4-2.4,3.6c-0.8,1.2-1.6,2.3-2.4,3.5c-0.4,0.6-0.8,1.2-1.2,1.7&#10;&#9;&#9;&#9;l-1.4,1.7c-1,1.1-1.9,2.3-2.9,3.4c-2,2.1-4,4.1-6,6.1c-2.1,1.8-4.1,3.7-6.3,5.4c-8.5,6.8-17.3,12.1-25.9,16&#10;&#9;&#9;&#9;c-8.6,4-16.8,6.5-24.3,8.2c-3.8,0.7-7.3,1.4-10.6,1.6c-1.6,0.1-3.2,0.3-4.7,0.4c-1.5,0-2.9,0-4.3,0c-2.7,0.1-5.1-0.3-7.2-0.5&#10;&#9;&#9;&#9;c-1-0.1-2-0.2-2.9-0.4c-0.9-0.2-1.7-0.4-2.4-0.6c-2.8-0.7-4.3-1-4.3-1s1.5,0.2,4.4,0.5c0.7,0.1,1.5,0.2,2.4,0.3&#10;&#9;&#9;&#9;c0.9,0.1,1.8,0,2.9,0.1c2.1,0,4.5,0.2,7.1-0.1c1.3-0.1,2.7-0.2,4.2-0.4c1.5-0.2,3-0.5,4.5-0.8c3.2-0.4,6.5-1.5,10.1-2.3&#10;&#9;&#9;&#9;c7.1-2.1,14.9-5.2,22.9-9.4c8-4.2,16.3-9.7,24.1-16.4c2-1.7,3.8-3.5,5.7-5.3c1.8-1.9,3.7-3.8,5.4-5.8c0.8-1,1.6-2,2.4-3.1l1.2-1.5&#10;&#9;&#9;&#9;c0.4-0.5,0.8-1.2,1.2-1.7c0.8-1.2,1.6-2.4,2.4-3.6c0.8-1.2,1.5-2.4,2.3-3.6c1.5-2.6,3.4-4.9,5.2-7.4c1.9-2.3,3.8-4.7,5.9-6.9&#10;&#9;&#9;&#9;c4.1-4.6,8.5-8.8,13.1-12.9c9.1-8.3,19.1-15.7,27.5-24c0.5-0.5,1.1-1,1.5-1.6l1.3-1.5c0.9-0.9,1.8-2.3,2.7-3.5l0.3-0.5l0.1-0.1&#10;&#9;&#9;&#9;c0.1-0.1-0.2,0.2-0.1,0.1l0.1-0.1c0.1-0.1,0.1-0.3,0.2-0.4c0.1-0.3,0.1-0.5,0.1-0.8c0-0.6-0.3-1.5-0.9-2.4&#10;&#9;&#9;&#9;c-1.2-1.9-3.2-3.9-5.3-5.6c-2.2-1.7-4.6-3.3-7.1-4.8c-10.1-5.8-21.1-10.1-31.9-13.4c-10.8-3.3-21.6-5.7-31.8-7&#10;&#9;&#9;&#9;c-10.2-1.4-20.1-1.7-28.9-0.9c-4.6,0.5-9,0.9-13.2,1.3c-2.1,0.2-4.2,0.4-6.2,0.6c-2,0.1-4,0.2-5.9,0.3c-3.8,0.2-7.3,0.4-10.7,0.4&#10;&#9;&#9;&#9;c-3.3,0-6.3,0.1-9.1-0.2c-2.8-0.2-5.2-0.3-7.4-0.7c-2.2-0.3-4-0.5-5.5-1c-0.8-0.2-1.4-0.3-2-0.5c-0.7-0.2-1.2-0.4-1.7-0.6&#10;&#9;&#9;&#9;c-0.5-0.2-0.8-0.3-0.9-0.4c-0.2-0.1-0.3-0.1-0.3-0.1L614.9,521z" transform="matrix(1, 0, 0, 1, 5.684341886080802e-14, 1.4210854715202004e-14)"/><path fill="#6B1526" d="M585.1,644.5c0,0,0.1,0.2,0.3,0.6c0.2,0.4,0.6,0.9,0.9,1.6c0.4,0.7,0.8,1.6,1.2,2.7&#10;&#9;&#9;&#9;c0.4,1.1,0.9,2.3,1.2,3.6c0.2,0.7,0.4,1.4,0.5,2.1c0.2,0.7,0.2,1.5,0.4,2.3c0.3,1.6,0.3,3.3,0.4,5.1c0,0.9-0.1,1.8-0.1,2.7&#10;&#9;&#9;&#9;l-0.1,1.4c-0.1,0.5-0.2,0.9-0.2,1.4c-0.2,0.9-0.3,1.9-0.5,2.8c-0.2,0.9-0.5,1.8-0.8,2.7c-0.5,1.9-1.5,3.5-2.3,5.2&#10;&#9;&#9;&#9;c-0.4,0.9-0.9,1.6-1.4,2.4c-0.5,0.7-1,1.5-1.6,2.2c-1,1.4-2.4,2.6-3.5,3.7c-0.3,0.3-0.6,0.6-0.8,0.8c-0.3,0.2-0.6,0.5-0.9,0.7&#10;&#9;&#9;&#9;c-0.6,0.4-1.2,0.9-1.8,1.3c-1.1,0.8-2.1,1.6-3.2,2.1c-1,0.5-1.9,1-2.6,1.3c-1.4,0.7-2.3,1.1-2.3,1.1s0.7-0.7,1.8-1.7&#10;&#9;&#9;&#9;c0.6-0.5,1.3-1.2,2.1-1.9c0.9-0.7,1.6-1.6,2.6-2.6c0.5-0.5,0.9-1,1.4-1.5c0.2-0.3,0.5-0.5,0.8-0.8c0.2-0.3,0.4-0.6,0.7-0.9&#10;&#9;&#9;&#9;c0.9-1.2,1.9-2.4,2.8-3.8c0.8-1.4,1.8-2.8,2.4-4.3c0.7-1.5,1.5-3.1,1.9-4.7c0.3-0.8,0.6-1.6,0.8-2.4c0.2-0.8,0.3-1.7,0.5-2.5&#10;&#9;&#9;&#9;c0.4-1.6,0.5-3.3,0.7-4.9c0-1.6,0.2-3.2,0.1-4.7c0-1.5-0.1-2.9-0.2-4.3c-0.1-1.3-0.3-2.5-0.4-3.6c-0.2-1.1-0.3-2-0.5-2.8&#10;&#9;&#9;&#9;C585.4,645.4,585.1,644.5,585.1,644.5z" transform="matrix(1, 0, 0, 1, 5.684341886080802e-14, 1.4210854715202004e-14)"/><path fill="#6B1526" d="M744.8,812.8c-79.8-14-152.7-38.6-200-67.3c-24-14.6-29-26.7-32.6-35.4c-3.1-7.5-4.9-12.1-17.7-15.3&#10;&#9;&#9;&#9;c-30.5-7.8-41.8-19.6-42.3-20.1l4.3-4.1c0.1,0.1,10.8,11.1,39.4,18.4c15.7,4,18.5,10.9,21.8,18.8c3.5,8.5,7.8,19,30.2,32.6&#10;&#9;&#9;&#9;c46.7,28.4,118.8,52.7,197.9,66.6L744.8,812.8z" transform="matrix(1, 0, 0, 1, 5.684341886080802e-14, 1.4210854715202004e-14)"/><path fill="#6B1526" d="M626.8,712.3c-0.3,9,0.9,18,3.5,26.5c2.6,8.5,6.9,16.5,13,22.8c6.1,6.2,13.9,10.6,22.3,12.9&#10;&#9;&#9;&#9;c8.4,2.3,17.2,2.8,25.9,2.2l0.2,5.9c-9.2,0.1-18.6-1-27.5-3.9c-8.9-2.9-17-8.1-23.2-15.1c-6.1-7-10.1-15.6-12.3-24.4&#10;&#9;&#9;&#9;C626.7,730.4,626,721.2,626.8,712.3z" transform="matrix(1, 0, 0, 1, 5.684341886080802e-14, 1.4210854715202004e-14)"/><path fill="#6B1526" d="M689.9,731.4c15.7,2.2,30.8,7.4,45.2,13.7c14.4,6.5,28.5,13.9,41.3,23.6c6.4,4.9,12.4,10.4,17.4,16.9&#10;&#9;&#9;&#9;c5,6.5,8.9,14.3,9.8,23c0.1,1.1,0.1,2.1,0.2,3.2l0,3c0,2-0.1,4-0.1,6c-0.2,4-0.6,8-1.2,12c-1.2,8-3.3,15.9-6.2,23.4&#10;&#9;&#9;&#9;c-3,7.5-6.9,14.7-11.3,21.4c-2.2,3.4-4.5,6.6-6.8,9.8c-1.1,1.6-2.2,3.1-3.1,4.7c-0.9,1.5-1.5,2.9-1.5,3.8&#10;&#9;&#9;&#9;c-0.1,0.9,0.4,1.9,1.3,3.4c0.9,1.4,2.3,3,3.4,4.9c1.2,1.9,2.2,4,2.8,6.3c0.6,2.3,0.8,4.6,0.7,6.9c-0.3,4.5-1.5,8.6-3.1,12.5&#10;&#9;&#9;&#9;c-1.6,3.8-3.4,7.5-5.7,11c-4.5,7-10.7,13.3-18.9,16.7c-2.1,0.8-4.2,1.5-7,1.6c-0.7,0-1.5,0-2.7-0.4c-0.6-0.3-1.5-0.5-2.4-2.1&#10;&#9;&#9;&#9;c-0.4-0.8-0.5-1.9-0.3-2.6c0-0.2,0.1-0.4,0.1-0.5l0.1-0.2l0.1-0.3c0.7-1.4,1.2-2,1.7-2.9c2.1-3.2,3.8-6.4,5-9.8&#10;&#9;&#9;&#9;c1.2-3.3,1.8-6.8,1.6-10.2c-0.1-1.7-0.4-3.4-1-5c-0.5-1.6-1.3-3.5-2-5.1c-0.8-1.7-1.6-3.3-2.5-4.8c-0.9-1.4-2-2.7-3-3.3&#10;&#9;&#9;&#9;c-0.5-0.3-0.8-0.4-1.1-0.4c-0.3,0-0.6,0.1-1,0.4c-0.9,0.6-2,2-2.8,3.5l-5.2-2.9c1.1-1.9,2.3-3.9,4.5-5.6c1.1-0.8,2.7-1.5,4.4-1.6&#10;&#9;&#9;&#9;c1.7-0.1,3.3,0.5,4.5,1.3c2.4,1.5,3.8,3.3,5,5.1c1.2,1.8,2.2,3.7,3.1,5.6c0.9,1.9,1.6,3.7,2.3,5.8c0.7,2.1,1.1,4.3,1.3,6.5&#10;&#9;&#9;&#9;c0.4,4.4-0.4,8.9-1.8,12.9c-1.4,4-3.4,7.8-5.6,11.2c-0.5,0.8-1.1,1.8-1.3,2.1l0,0l0,0c0-0.1,0.1-0.2,0.1-0.3&#10;&#9;&#9;&#9;c0.1-0.5,0.1-1.3-0.2-1.9c-0.7-1.2-1.2-1.2-1.3-1.3c-0.3-0.1,0,0,0.2,0c1.2,0,2.9-0.5,4.4-1.1c6.3-2.7,11.6-8.1,15.6-14.2&#10;&#9;&#9;&#9;c2-3.1,3.7-6.4,5.1-9.8c1.4-3.4,2.4-6.9,2.6-10.2c0.2-3.3-0.6-6.3-2.4-9.1c-0.9-1.5-2.1-2.9-3.3-4.7c-0.6-0.9-1.2-2-1.8-3.2&#10;&#9;&#9;&#9;c-0.5-1.3-0.8-2.8-0.8-4.3c0.1-1.5,0.4-2.9,0.9-4.1c0.5-1.2,1-2.2,1.6-3.1c1.1-1.9,2.3-3.5,3.4-5.1c2.3-3.2,4.5-6.4,6.6-9.6&#10;&#9;&#9;&#9;c4.2-6.4,7.8-13.1,10.6-20.1c2.8-7,4.8-14.4,6.1-21.9c0.6-3.7,1-7.5,1.3-11.3c0.1-1.9,0.2-3.8,0.2-5.7l0-2.9&#10;&#9;&#9;&#9;c-0.1-0.9,0-1.8-0.2-2.6c-0.6-7.1-3.9-13.8-8.3-19.8c-4.5-6-10-11.2-16.1-15.9c-12.1-9.4-25.8-16.8-39.9-23.3&#10;&#9;&#9;&#9;C718.7,743.9,704.3,738.1,689.9,731.4z" transform="matrix(1, 0, 0, 1, 5.684341886080802e-14, 1.4210854715202004e-14)"/><path fill="#6B1526" d="M655.6,763c18.7,5.3,36.3,13.2,53.5,21.9c8.6,4.3,17.2,9.1,25.4,14c4.1,2.5,8.3,5,12.4,7.9&#10;&#9;&#9;&#9;c4,2.9,8.3,6.1,11.2,11.2c1.4,2.6,2.2,5.5,2.4,8.3c0.2,2.8,0,5.4-0.4,8c-0.7,4.8-1.4,9.5-2.3,14.4c-0.9,4.8-2,9.7-3.7,14.5&#10;&#9;&#9;&#9;c-1.8,4.8-4.4,9.7-8.7,13.5c-2.2,1.9-4.4,3.2-6.4,4.4c-2.1,1.3-4,2.4-5.8,3.7c-3.5,2.5-6.1,5.6-7.2,9.5c-1.2,3.9-1.1,8.4-0.3,12.8&#10;&#9;&#9;&#9;c0.8,4.4,2,8.9,3.7,13.3l-5.6,2.1c-1.8-4.6-3.5-9.3-4.4-14.3c-1-5-1.3-10.4,0.2-15.8c0.7-2.7,2-5.3,3.7-7.5&#10;&#9;&#9;&#9;c1.7-2.3,3.7-4.2,5.8-5.7c4.1-3.2,8.7-5.3,11.7-7.9c3-2.6,5.1-6.4,6.7-10.6c1.5-4.2,2.5-8.7,3.4-13.4c0.8-4.6,1.5-9.4,2.2-14.1&#10;&#9;&#9;&#9;c0.6-4.5,0.6-8.6-1.2-11.9c-1.8-3.3-5.3-6.3-9-9c-3.8-2.7-7.8-5.2-11.9-7.7c-8.1-5.1-16.3-9.8-24.8-14.3&#10;&#9;&#9;&#9;C689.3,781.5,672.1,773.2,655.6,763z" transform="matrix(1, 0, 0, 1, 5.684341886080802e-14, 1.4210854715202004e-14)"/><path fill="#6B1526" d="M955.8,1100.9c-14.5,0-29-4.4-42.9-13c-30.7-19.1-41.8-53.6-28.2-87.9c6-15.1,15.6-25.5,28.4-30.9&#10;&#9;&#9;&#9;c15-6.2,31.1-3.8,41.2,0.5c11.5,5,21.3,15.3,25.7,27c3.8,10.4,3.3,21.1-1.6,31.1c-0.5,1-1,2-1.5,2.9c0.1-0.1,0.2-0.2,0.4-0.3&#10;&#9;&#9;&#9;c37.6-30.2,39-80.7,36.5-108.1c-3.5-38-16.7-67-21.6-69.7l2.8-5.2c8.5,4.6,21.4,38.7,24.7,74.4c2.6,28.6,1.1,81.3-38.7,113.2&#10;&#9;&#9;&#9;c-17.9,14.4-31.4,14.2-39.5,11.5c-11.1-3.7-18.3-14.1-20.6-22.7c-1.4-5.4-3-15.6,1.8-23.6c2.8-4.7,7.4-7.8,13.6-9.3&#10;&#9;&#9;&#9;c9.9-2.4,18.3,4.1,22.2,11.5c4.1,7.7,3.3,15.8-2,20.6c-4,3.6-9,4.5-13.9,2.5c-5.3-2.2-9.9-7.5-10.1-11.9c-0.1-2.3,0.8-4.1,2.7-5.2&#10;&#9;&#9;&#9;c2.1-1.2,4.1-3.9,5-5.8c-0.8,0.3-2.1,0.9-3.9,1.9c-4.5,2.6-6.9,6.5-7.1,11.6c-0.3,8.1,4.9,16.8,8.6,19.3c3.6,2.4,12,5.9,20.3,3.7&#10;&#9;&#9;&#9;c6.3-1.7,11.4-6.4,15.1-14c4.2-8.5,4.7-17.7,1.4-26.5c-3.8-10.2-12.4-19.3-22.4-23.6c-8.9-3.9-23.2-6-36.5-0.5&#10;&#9;&#9;&#9;c-11.3,4.7-19.8,14-25.2,27.6c-15.1,38.3,4.5,67.4,25.9,80.7c19.9,12.4,40.2,15.3,60.5,8.8c38-12.2,73.2-56.9,104.6-132.9&#10;&#9;&#9;&#9;c74.4-179.9-2.7-311-105.8-356.7c-110.5-49-241.7,15.8-243,16.5l-2.7-5.3c0.3-0.2,34-17,81.1-27.3c43.5-9.6,107.9-15.5,167,10.7&#10;&#9;&#9;&#9;c58.7,26,102.9,74.5,124.3,136.5c23.5,68,18.1,146.8-15.4,227.9c-32.1,77.7-68.6,123.5-108.3,136.3&#10;&#9;&#9;&#9;C970.9,1099.7,963.4,1100.9,955.8,1100.9z M938.2,1013.5c0.2,1.3,2.1,4.4,5.5,6.2c3.2,1.7,6.1,1.4,8.6-0.9&#10;&#9;&#9;&#9;c3.9-3.6,2.9-9.5,0.8-13.4c-1.9-3.6-5.1-6.8-9-8.2c1.4,0.8,2.2,2.4,2.2,4.2C946.2,1005.4,941.9,1011.1,938.2,1013.5z M940.2,996.4&#10;&#9;&#9;&#9;c-0.9,0-1.8,0.1-2.7,0.3c-4.6,1.1-7.9,3.3-9.9,6.6c-0.2,0.4-0.5,0.8-0.7,1.2c1.6-2,3.6-3.7,6.1-5.1c3.2-1.8,5.7-2.8,7.7-3&#10;&#9;&#9;&#9;C940.6,996.4,940.4,996.4,940.2,996.4z" transform="matrix(1, 0, 0, 1, 5.684341886080802e-14, 1.4210854715202004e-14)"/><path fill="#6B1526" d="M1027.4,851.5c-7.2,3.2-14.9,3.4-22.4,2.8c-7.5-0.5-15-1.5-22.4-3c-3.7-0.9-7.4-1.7-11-2.8&#10;&#9;&#9;&#9;c-1.8-0.5-3.6-1-5.4-1.6l-5.3-1.9c-3.6-1.2-7-2.8-10.5-4.2c-3.4-1.5-6.8-3.3-10.1-5l2.6-5.3c3.4,1.3,6.7,2.8,10.1,4.2&#10;&#9;&#9;&#9;c3.4,1.2,6.8,2.7,10.2,3.8c6.8,2.5,13.8,4.4,20.9,6.2c7.1,1.7,14.2,3,21.4,3.9C1012.7,849.3,1019.8,849.9,1027.4,851.5z" transform="matrix(1, 0, 0, 1, 5.684341886080802e-14, 1.4210854715202004e-14)"/><path fill="#6B1526" d="M1019.2,809.4c-10.4-0.8-20.1-3.8-29.8-6.9c-9.7-3-19.4-6-29.1-8.8l-7.3-2c-1.4-0.4-2.1-0.5-3.1-0.6&#10;&#9;&#9;&#9;c-1-0.1-2.1,0-3.2,0.1c-4.5,0.6-9.2,2.3-13.7,4.1c-9.1,3.9-17.8,8.8-26.4,14.1c-8.6,5.2-16.9,10.8-25.1,16.7&#10;&#9;&#9;&#9;c-4.1,2.9-8.1,6-12,9.1c-1.9,1.6-3.9,3.1-5.7,4.8c-0.9,0.8-1.7,1.5-2.6,2.5l-2.7,2.7c-1.8,1.8-3.7,3.7-6,5.4c-2.2,1.7-5,3.2-7.8,4&#10;&#9;&#9;&#9;c-2.8,0.8-5.7,1.1-8.4,1.2c-2.7,0.1-5.5-0.1-7.5,0c-4.3,0.4-8.6,2.2-12.6,4.8c-3.9,2.6-7.6,5.9-10.6,9.5l-3-4.7l0,0&#10;&#9;&#9;&#9;c3.1-0.6,5.9-0.9,8.9-0.9c3,0,6,0.2,9.1,1c3,0.8,6.3,2.3,8.7,5c0.6,0.7,1.1,1.3,1.5,1.9c0.4,0.6,0.9,1.2,1.3,1.9&#10;&#9;&#9;&#9;c0.8,1.3,1.6,2.7,2.2,4.3c0.6,1.6,1,3.4,0.9,5.3c-0.1,1.9-0.7,3.8-1.6,5.3c-1.8,3.1-4.2,5.1-6.6,6.9c-2.4,1.8-4.7,3.3-7.2,4.8&#10;&#9;&#9;&#9;c-1.2,0.8-2.5,1.5-3.8,2.2c-0.7,0.4-1.3,0.7-2.1,1c-0.4,0.2-0.7,0.3-1.2,0.5c-0.2,0.1-0.4,0.2-0.7,0.2l-0.4,0.1&#10;&#9;&#9;&#9;c-0.2,0-0.2,0.1-0.9,0.1l2.8-2l0,0c0.3-0.9,0-1.7-0.1-2c-0.1-0.1-0.2-0.3-0.2-0.4c0-0.1-0.1-0.1-0.1-0.2c-0.1-0.2-0.2-0.2-0.2-0.2&#10;&#9;&#9;&#9;l0.2,0.1c0.3,0.1,0.6,0.3,1,0.4c0.7,0.3,1.5,0.6,2.3,0.8c1.6,0.5,3.3,0.8,5,1.1c3.4,0.6,6.9,0.9,10.4,0.8&#10;&#9;&#9;&#9;c6.9-0.1,13.9-1.7,19.6-5.1c2.8-1.7,5.2-3.8,7-6.4c1.7-2.6,2.7-5.6,3.1-8.9c0.1-0.8,0.2-1.6,0.2-2.5l0-1.3l0-0.7&#10;&#9;&#9;&#9;c0-0.3,0-0.7,0.1-1c0.3-2.8,1.7-4.9,3-6.6c2.7-3.4,5.7-5.8,8.8-8.1c6.2-4.5,12.6-8.2,19.1-11.9c6.5-3.6,13.3-6.9,20.1-9.9&#10;&#9;&#9;&#9;c6.8-2.9,13.8-5.6,20.8-8.1c3.5-1.2,7-2.5,10.5-3.6c3.6-1,6.8-3,11.3-1.2c-2.6,4-6.3,4.3-9.7,5.7c-3.5,1.2-6.9,2.5-10.3,3.9&#10;&#9;&#9;&#9;c-6.8,2.7-13.6,5.5-20.2,8.5c-6.7,3-13.1,6.3-19.4,10c-6.3,3.7-12.6,7.5-18.3,11.7c-2.8,2.1-5.6,4.4-7.4,6.8&#10;&#9;&#9;&#9;c-0.9,1.2-1.5,2.4-1.6,3.3c0,0.1,0,0.2,0,0.3l0,0.7l0,1.5c0,1-0.1,2-0.2,3c-0.5,4.1-1.8,8.2-4.2,11.8c-2.4,3.6-5.6,6.4-9.2,8.5&#10;&#9;&#9;&#9;c-7.1,4.1-15.1,5.6-22.9,5.7c-3.9,0-7.8-0.3-11.6-1.1c-1.9-0.4-3.8-0.9-5.7-1.5c-0.9-0.3-1.9-0.7-2.9-1.1c-0.5-0.2-1-0.4-1.5-0.8&#10;&#9;&#9;&#9;c-0.3-0.2-0.6-0.3-0.9-0.6c-0.2-0.2-0.4-0.3-0.7-0.7l-0.2-0.3c-0.1-0.1-0.2-0.3-0.3-0.5c-0.2-0.4-0.5-1.3-0.2-2.3l0,0l2.8-2&#10;&#9;&#9;&#9;c-0.5,0-0.3,0-0.4,0l0.1,0l0.3-0.1c0.2-0.1,0.5-0.2,0.8-0.3c0.5-0.2,1.1-0.5,1.7-0.8c1.1-0.6,2.3-1.3,3.5-2c2.3-1.4,4.7-3,6.8-4.6&#10;&#9;&#9;&#9;c2.1-1.6,4-3.3,5-5.1c1-1.8,1.1-3.4,0.3-5.6c-0.4-1-1-2.1-1.6-3.2c-0.3-0.5-0.7-1.1-1.1-1.6c-0.4-0.5-0.8-1.1-1.1-1.4&#10;&#9;&#9;&#9;c-1.3-1.5-3.4-2.6-5.7-3.2c-4.7-1.2-10.3-0.9-15.3,0l0,0l-8.2,1.9l5.2-6.6c3.4-4.4,7.2-8,11.7-11.1c4.5-3.1,9.7-5.5,15.5-6.1&#10;&#9;&#9;&#9;c3.1-0.2,5.4,0,7.8-0.2c2.4-0.1,4.6-0.4,6.7-1c2-0.6,3.8-1.6,5.6-3c1.8-1.4,3.5-3.1,5.3-4.8l2.7-2.7c0.8-0.9,1.9-1.9,2.9-2.8&#10;&#9;&#9;&#9;c2-1.8,4-3.4,6-5c4-3.2,8.1-6.3,12.3-9.3c8.3-6,16.8-11.7,25.6-17c8.8-5.3,17.8-10.3,27.5-14.2c4.9-1.9,9.8-3.7,15.4-4.4&#10;&#9;&#9;&#9;c1.4-0.2,2.9-0.2,4.4-0.1c1.5,0.1,3.3,0.5,4.3,0.9l7.4,2.2c9.7,3,19.4,6.2,29,9.4C1000.8,800.4,1010.4,803.7,1019.2,809.4z" transform="matrix(1, 0, 0, 1, 5.684341886080802e-14, 1.4210854715202004e-14)"/><path fill="#6B1526" d="M1030.2,794c-3.7-1.8-7.7-2.5-11.7-2.8c-4-0.2-8,0.1-11.9,0.8c-3.9,0.6-7.7,1.9-11.4,3.2&#10;&#9;&#9;&#9;c-1.8,0.7-3.6,1.5-5.5,2.3l-5.3,2.7l-2.5-5.4l5.9-2.1c2-0.6,4-1.2,6-1.7c4.1-0.9,8.2-1.7,12.4-1.9c4.2-0.2,8.3-0.1,12.4,0.6&#10;&#9;&#9;&#9;C1022.8,790.6,1026.8,791.8,1030.2,794z" transform="matrix(1, 0, 0, 1, 5.684341886080802e-14, 1.4210854715202004e-14)"/><path fill="#6B1526" d="M696.8,709c3.9,0.7,7.7,2,11.3,3.9c3.6,1.9,6.9,4.3,9.7,7.4c2.8,3.1,5.1,6.7,6.4,10.7c0.9,2,1.2,4,1.7,6.1&#10;&#9;&#9;&#9;c0.4,2.1,0.5,4.2,0.7,6.3l-5.9-0.1c0-1.8,0.2-3.7,0-5.5c-0.2-1.8-0.3-3.7-0.8-5.4c-0.7-3.6-2.3-7-4.5-10.1c-2.1-3.1-4.9-5.8-8.1-8&#10;&#9;&#9;&#9;C704.1,712,700.5,710.2,696.8,709z" transform="matrix(1, 0, 0, 1, 5.684341886080802e-14, 1.4210854715202004e-14)"/><path fill="#6B1526" d="M1002.2,848.9c1.8,2.1,4.2,4.2,6.7,5.9c2.5,1.7,5.2,3.2,8,4.3c2.8,1.1,5.9,1.7,9,1.8&#10;&#9;&#9;&#9;c3.1,0.2,6.2-0.6,9.2-1.6c-2.8,1.4-5.9,2.8-9.2,3.1c-3.2,0.4-6.6,0.3-9.9-0.4c-3.3-0.7-6.4-1.9-9.4-3.3c-3-1.5-5.8-3.2-8.6-5.5&#10;&#9;&#9;&#9;L1002.2,848.9z" transform="matrix(1, 0, 0, 1, 5.684341886080802e-14, 1.4210854715202004e-14)"/><path fill="#6B1526" d="M854.6,839c-29.2,0-54.5-11.7-55.7-12.3l2.5-5.4c0.3,0.1,30.7,14.2,61.9,11.3l0.5,5.9&#10;&#9;&#9;&#9;C860.8,838.9,857.7,839,854.6,839z" transform="matrix(1, 0, 0, 1, 5.684341886080802e-14, 1.4210854715202004e-14)"/><path fill="#6B1526" d="M780.1,923l-4.1-4.3c0.4-0.4,9.9-9.3,49.2-28.4l2.6,5.3C789.3,914.3,780.1,922.9,780.1,923z" transform="matrix(1, 0, 0, 1, 5.684341886080802e-14, 1.4210854715202004e-14)"/><path fill="#6B1526" d="M867.6,878.5l-3.2-5c0.4-0.3,41.1-26,99.6-33.8l0.8,5.9C907.6,853.3,868,878.3,867.6,878.5z" transform="matrix(1, 0, 0, 1, 5.684341886080802e-14, 1.4210854715202004e-14)"/><path fill="#6B1526" d="M775,891.1l-3.9-4.5c0.9-0.8,22.4-19,42.7-22l0.9,5.9C796.1,873.2,775.2,890.9,775,891.1z" transform="matrix(1, 0, 0, 1, 5.684341886080802e-14, 1.4210854715202004e-14)"/><path fill="#6B1526" d="M631.3,1265.3c-0.7,0-1.3,0-2,0c-14.5-0.5-28.1-3.8-28.7-3.9l-2.2-0.5l-0.1-2.2&#10;&#9;&#9;&#9;c-1.3-31.4,7.1-86.9,16-127.9c12.2-56.4,37.8-115.7,70.1-162.6c31-45,54.6-61.4,55.6-62.1l3.4,4.9c-0.2,0.2-23.8,16.6-54.1,60.5&#10;&#9;&#9;&#9;c-31.9,46.3-57.1,104.8-69.2,160.5c-8.3,38.4-16.7,92.9-16,124.1c4.4,0.9,14.7,2.9,25.3,3.3c8.7,0.3,17-1.8,20.9-3&#10;&#9;&#9;&#9;c-1.6-17-0.2-84.4,4.9-118.8c18.9-128.6,90.6-190,91.3-190.6l3.8,4.6c-0.7,0.6-70.6,60.7-89.2,187c-5.2,35.2-6.6,109.2-4.6,119.4&#10;&#9;&#9;&#9;l0.5,2.5l-2.4,0.9C654.2,1261.4,643.5,1265.3,631.3,1265.3z" transform="matrix(1, 0, 0, 1, 5.684341886080802e-14, 1.4210854715202004e-14)"/><path fill="#8B5C32" d="M660,1040.8c0,0-56.9-10.3-115.6-19.9c-58.8-9.6-17.2,5.3-8.3,10.6c8.9,5.3,107.4,36.9,117.6,32.6&#10;&#9;&#9;&#9;c10.2-4.3,10.8-14.6,10.8-14.6" transform="matrix(1, 0, 0, 1, 5.684341886080802e-14, 1.4210854715202004e-14)"/><path fill="#6B1526" d="M660,1040.8c-13.4-0.3-26.3-2.8-39.3-4.8l-39.1-6.1c-13-2-26-4.3-39-6.4c-6.5-1-13-2-19.4-2.5&#10;&#9;&#9;&#9;c-1.6-0.1-3.2-0.2-4.7-0.3c-0.8,0-1.5,0-2.2,0.1c-0.3,0-0.6,0.1-0.8,0.1c-0.1,0-0.1,0-0.1,0c0,0,0.2,0,0.6-0.4&#10;&#9;&#9;&#9;c0.1-0.1,0.2-0.2,0.3-0.4c0.1-0.2,0.2-0.4,0.2-0.6c0.1-0.4,0.1-0.8,0-1c0-0.2-0.2-0.4-0.2-0.5c-0.1-0.1-0.1-0.1-0.1-0.1&#10;&#9;&#9;&#9;c0,0,0.1,0.2,0.4,0.3c0.5,0.4,1.1,0.8,1.7,1.1c1.3,0.8,2.7,1.5,4.2,2.2c2.9,1.4,5.9,2.8,8.9,4.2c1.5,0.7,3,1.4,4.5,2.2l1.2,0.6&#10;&#9;&#9;&#9;l0.6,0.3l0.4,0.2c0.5,0.3,1.3,0.6,2,0.9c5.9,2.5,12.2,4.6,18.3,6.8c12.4,4.3,25,8.2,37.6,12.1c12.6,3.8,25.2,7.6,37.9,10.7&#10;&#9;&#9;&#9;c3.2,0.8,6.4,1.5,9.6,2c1.6,0.3,3.2,0.5,4.8,0.7c1.5,0.2,3.2,0.3,4.3,0.1c0.4,0,1.2-0.4,1.9-0.7c0.7-0.3,1.3-0.7,1.9-1.1&#10;&#9;&#9;&#9;c1.3-0.8,2.4-1.8,3.4-2.9c2.1-2.3,3.7-5,4.7-8.2c0.6,6.8-3.7,14.1-11.1,16.6c-2.1,0.4-3.8,0.3-5.5,0.2c-1.7-0.1-3.4-0.3-5.1-0.6&#10;&#9;&#9;&#9;c-3.3-0.5-6.6-1.1-9.9-1.8c-13-2.7-25.8-6.1-38.5-9.7c-12.7-3.6-25.3-7.7-37.9-11.9c-6.3-2.2-12.5-4.3-18.8-6.9&#10;&#9;&#9;&#9;c-0.8-0.4-1.5-0.6-2.5-1.2l-2.1-1.2c-1.4-0.7-2.9-1.4-4.3-2.1c-3-1.4-6-2.8-9-4.3c-1.5-0.8-3-1.6-4.5-2.5c-0.8-0.5-1.5-1-2.4-1.6&#10;&#9;&#9;&#9;c-0.4-0.3-0.9-0.7-1.4-1.4c-0.1-0.1-0.3-0.4-0.4-0.6c-0.1-0.2-0.3-0.6-0.4-1c-0.1-0.4-0.1-1.1,0-1.6c0.1-0.3,0.2-0.6,0.3-0.9&#10;&#9;&#9;&#9;c0.1-0.2,0.3-0.4,0.4-0.6c0.7-0.7,1.2-0.9,1.6-1.1c0.4-0.2,0.8-0.3,1.1-0.3c0.6-0.1,1.1-0.2,1.6-0.2c1-0.1,1.9-0.1,2.8-0.1&#10;&#9;&#9;&#9;c1.8,0,3.5,0.2,5.1,0.3c6.7,0.6,13.3,1.7,19.8,2.7c13,2.3,26,4.5,39,7l38.9,7.3C634.3,1034.6,647.4,1036.6,660,1040.8z" transform="matrix(1, 0, 0, 1, 5.684341886080802e-14, 1.4210854715202004e-14)"/><path fill="#6B1526" d="M1296.5,832.8c-61.8-25.7-181.4-10.1-182.6-9.9l-0.8-5.9c5-0.7,122.5-15.9,185.7,10.3L1296.5,832.8z" transform="matrix(1, 0, 0, 1, 5.684341886080802e-14, 1.4210854715202004e-14)"/><path fill="#6B1526" d="M655.4,790.9c-6.9,4.9-14,9.5-21.3,13.8c-7.3,4.3-14.7,8.4-22.7,11.7l-3,1.2l-3.1,1.1&#10;&#9;&#9;&#9;c-2,0.8-4.2,1.3-6.3,2c-4.4,1.1-8.7,1.6-13.1,1.8c-4.4,0.2-9-0.3-13.3-1.4c-4.4-1-8.4-3-12.1-4.3c-1.9-0.7-3.7-1.2-5.5-1.5&#10;&#9;&#9;&#9;c-0.9-0.2-1.8-0.2-2.7-0.3c-0.9,0-1.8,0-2.7,0.1c-3.6,0.3-7.3,1.7-10.4,3.7c-1.5,1-3,2.2-4,3.5l-0.7,1c-0.1,0.3-0.4,0.7-0.4,0.9&#10;&#9;&#9;&#9;c-0.1,0.3-0.2,0.6-0.1,0.8c-0.1,0.2,0,0.5,0.1,0.8c0,0,0,0.1,0,0c-0.1-0.2-0.3-0.3-0.5-0.5c-0.3-0.1-0.2-0.1-0.2-0.1&#10;&#9;&#9;&#9;c0.1,0,0.3,0,0.4,0c0.9-0.1,2.1-0.2,3.3-0.1c2.4,0.1,4.8,0.5,7,1.4c4.4,1.6,8,4.5,11.2,6.6c3.4,2.1,7,4,10.8,5.6&#10;&#9;&#9;&#9;c3.7,1.6,7.6,2.8,11.6,3.6c2,0.3,4,0.6,6.1,0.6c2,0,4.1-0.2,6.1-1.1c-1.7,1.3-3.8,2-5.9,2.4c-2.1,0.4-4.3,0.5-6.5,0.5&#10;&#9;&#9;&#9;c-4.3-0.2-8.6-1-12.7-2.3c-4.1-1.3-8.1-3-11.9-5.2c-3.9-2.3-6.9-4.7-10.5-5.9c-1.8-0.7-3.5-0.9-5.3-1c-0.9,0-1.8,0.1-3,0.2&#10;&#9;&#9;&#9;c-0.4,0-0.7,0-1.1,0c-0.5-0.1-1,0-1.7-0.4c-0.7-0.3-1.2-0.9-1.7-1.5c-0.3-0.5-0.5-1-0.6-1.5c-0.4-1.3-0.4-3.2,0.1-4.6&#10;&#9;&#9;&#9;c0.2-0.7,0.5-1.3,0.8-1.9c0.3-0.6,0.7-1.1,1-1.7c1.5-2,3.3-3.6,5.2-4.9c3.8-2.6,8.2-4.4,12.9-4.9c1.2-0.2,2.4-0.2,3.5-0.2&#10;&#9;&#9;&#9;c1.2,0.1,2.4,0.1,3.5,0.3c2.3,0.3,4.5,1,6.6,1.7c4.2,1.4,7.8,3,11.6,3.9c3.8,0.9,7.6,1.3,11.6,1.1c4-0.1,8-0.7,11.7-1.6&#10;&#9;&#9;&#9;c1.9-0.6,3.8-1.1,5.7-1.8l2.8-1l2.8-1.2c15-6.5,29.3-15.3,43.1-24.4L655.4,790.9z" transform="matrix(1, 0, 0, 1, 5.684341886080802e-14, 1.4210854715202004e-14)"/><path fill="#6B1526" d="M574.4,857.7c-5,0-10.1-0.3-15.2-0.7c-4.2-0.3-8.6-0.5-12.7-0.6c-4.1-0.1-8.2,0-11.9,0.2&#10;&#9;&#9;&#9;c-10.8,0.3-16.7,0.5-18.4-3.5c-1.4-3.3,1.8-6.6,3-7.8c1.3-1.3,2.6-2.6,3.7-3.8c7-7.2,12.6-12.9,21.6-14.5l1,5.9&#10;&#9;&#9;&#9;c-7.1,1.2-11.8,6.1-18.4,12.8c-1.2,1.2-2.5,2.5-3.8,3.9c-0.4,0.4-0.7,0.8-1,1c2.5,0.4,7.7,0.2,12,0.1c3.7-0.1,7.9-0.2,12.2-0.2&#10;&#9;&#9;&#9;c4.3,0.1,8.7,0.4,13,0.6c13.1,0.8,26.6,1.7,36-3.5c13.4-7.3,23.6-10.6,51.9-16.9c26.5-5.9,60.4-29.9,60.7-30.2l3.5,4.8&#10;&#9;&#9;&#9;c-1.4,1-35.1,25-62.9,31.1c-27.7,6.1-37.5,9.3-50.3,16.3C591.5,856.7,583.2,857.7,574.4,857.7z" transform="matrix(1, 0, 0, 1, 5.684341886080802e-14, 1.4210854715202004e-14)"/><path fill="#6B1526" d="M577.6,544.9c0,6.6-5.4,12-12,12c-6.6,0-12-5.4-12-12c0-6.6,5.4-12,12-12&#10;&#9;&#9;&#9;C572.2,532.9,577.6,538.3,577.6,544.9z" transform="matrix(1, 0, 0, 1, 5.684341886080802e-14, 1.4210854715202004e-14)"/><path fill="#FFFFFF" d="M566.6,540.6c0,2.4-1.9,4.3-4.3,4.3c-2.4,0-4.3-1.9-4.3-4.3c0-2.4,1.9-4.3,4.3-4.3&#10;&#9;&#9;&#9;C564.6,536.3,566.6,538.2,566.6,540.6z" transform="matrix(1, 0, 0, 1, 5.684341886080802e-14, 1.4210854715202004e-14)"/><path fill="#6B1526" d="M478.6,531.3c-1.3,0-2.7-0.4-4.1-1c-1.4-0.7-2.6-1.6-3.4-2.6c-0.9-1.2-1.2-2.4-0.7-3.4&#10;&#9;&#9;&#9;c0.5-1,1.6-1.5,3.1-1.6c1.2,0,2.7,0.4,4.1,1c3.2,1.6,5,4.2,4,6C481.2,530.7,480.1,531.2,478.6,531.3&#10;&#9;&#9;&#9;C478.6,531.2,478.6,531.3,478.6,531.3z M473.6,524.6C473.6,524.6,473.6,524.6,473.6,524.6c-0.7,0-1.2,0.2-1.4,0.4&#10;&#9;&#9;&#9;c-0.1,0.3,0.1,0.8,0.5,1.3c0.6,0.8,1.5,1.5,2.7,2c1.1,0.5,2.3,0.8,3.3,0.8c0.7,0,1.2-0.2,1.3-0.4c0.3-0.6-0.8-2.2-3.1-3.4&#10;&#9;&#9;&#9;C475.7,524.9,474.5,524.6,473.6,524.6z" transform="matrix(1, 0, 0, 1, 5.684341886080802e-14, 1.4210854715202004e-14)"/><path fill="#6B1526" d="M501.7,616.2c-1.1-0.2-107.4-25-167.7-87.2c-54.9-56.6-40.3-79.5-39.7-80.4l4.9,3.4&#10;&#9;&#9;&#9;c-0.1,0.1-11.7,20.6,39,73c59.1,61,163.7,85.3,164.7,85.6L501.7,616.2z" transform="matrix(1, 0, 0, 1, 5.684341886080802e-14, 1.4210854715202004e-14)"/><path fill="#6B1526" d="M466.4,642.9c0,0-0.3-0.3-0.9-0.8c-0.6-0.5-1.5-1.2-2.6-2.2c-1.2-0.9-2.7-2.1-4.4-3.4&#10;&#9;&#9;&#9;c-1.8-1.3-3.8-2.8-6.1-4.5c-2.3-1.7-5-3.3-7.9-5.2c-2.9-1.9-6.1-3.7-9.5-5.8c-3.4-2.1-7.2-3.9-11.1-6c-1.9-1.1-4-2-6.2-3&#10;&#9;&#9;&#9;c-2.1-1-4.3-2-6.5-3c-9-4-19-8.3-29.1-13.7c-10.1-5.4-20.5-11.7-30.6-19.2c-10.1-7.5-19.8-16.1-28.9-25.6&#10;&#9;&#9;&#9;c-9.3-9.4-17.5-19.9-25.3-30.7c-3.7-5.5-7.6-10.9-11-16.7c-1.7-2.8-3.5-5.7-5.2-8.5c-1.6-2.9-3.2-5.8-4.7-8.6l-2.4-4.3l-1.2-2.2&#10;&#9;&#9;&#9;l-1.1-2.2c-1.4-2.9-2.9-5.7-4.2-8.7c-2.8-5.9-5.1-11.8-7.2-17.8c-2.1-6-3.6-12.1-4.4-18.3c-0.4-3.1-0.5-6.3-0.2-9.4&#10;&#9;&#9;&#9;c0.3-3.2,1-6.4,2.4-9.4c1.5-3,3.8-5.7,6.7-7.4c2.9-1.7,6.1-2.5,9.1-2.7c6.1-0.3,11.7,1.5,16.4,4.1c2.4,1.3,4.5,2.9,6.4,4.8&#10;&#9;&#9;&#9;c0.5,0.5,0.9,0.9,1.4,1.5l0.6,0.8l0.2,0.2l0.1,0.1l0.2,0.3l0.2,0.4c0.6,1,1.2,2,1.8,2.9c2.6,4.9,3.3,9.6,3.3,14.1&#10;&#9;&#9;&#9;c0,4.5-0.9,8.5-2.2,12c-0.6,1.8-1.3,3.4-2,4.9c-0.7,1.5-1.5,2.9-2.3,4.2c-3.1,5.1-6.3,8.6-8.6,10.8c-1.2,1.1-2.1,1.9-2.7,2.4&#10;&#9;&#9;&#9;c-0.7,0.5-1,0.8-1,0.8s0.7-1.6,1.9-4.4c1.3-2.8,3.2-6.9,5.3-12.1c1-2.6,2.1-5.5,3-8.6c0.9-3.1,1.7-6.5,1.9-10.1&#10;&#9;&#9;&#9;c0.1-0.9,0.1-1.8,0-2.7c-0.1-0.9,0-1.9-0.3-2.8c-0.2-0.9-0.3-1.9-0.6-2.7c-0.3-0.8-0.6-1.7-0.9-2.5c-0.6-1-1.2-1.9-1.8-2.9&#10;&#9;&#9;&#9;l-0.2-0.4c0,0.1-0.2-0.3,0.1,0.1l-0.1-0.1l-0.1-0.1l-0.5-0.6c-0.3-0.4-0.6-0.8-1-1.1c-1.4-1.5-3.2-2.8-5.2-3.8&#10;&#9;&#9;&#9;c-3.9-2.2-8.6-3.6-13.2-3.4c-4.6,0.2-8.7,2.4-10.8,6.7c-1,2.1-1.6,4.6-1.9,7.2c-0.2,2.6-0.1,5.4,0.2,8.2&#10;&#9;&#9;&#9;c0.7,5.6,2.1,11.4,4.1,17.1c2,5.7,4.3,11.5,6.9,17.1c1.3,2.8,2.7,5.7,4.2,8.6l1.1,2.2l1.1,2.1l2.3,4.2c1.6,2.8,3.1,5.7,4.7,8.5&#10;&#9;&#9;&#9;c1.7,2.8,3.4,5.5,5.1,8.3c3.3,5.6,7.1,10.9,10.8,16.4c7.7,10.5,15.8,20.9,24.8,30c8.9,9.2,18.4,17.6,28.2,24.9&#10;&#9;&#9;&#9;c9.8,7.3,19.9,13.4,29.8,18.7c9.9,5.3,19.6,9.4,28.7,13.5c2.3,1,4.5,2.1,6.7,3.1c2.2,1,4.3,2,6.3,3.1c4,2.2,7.9,4.1,11.4,6.2&#10;&#9;&#9;&#9;c3.5,2.1,6.8,4,9.8,5.9c2.9,2,5.7,3.7,8.1,5.4c2.4,1.7,4.5,3.2,6.3,4.6c1.8,1.4,3.3,2.6,4.6,3.6c1.2,1,2.2,1.8,2.8,2.4&#10;&#9;&#9;&#9;c0.6,0.5,0.9,0.8,0.9,0.8L466.4,642.9z" transform="matrix(1, 0, 0, 1, 5.684341886080802e-14, 1.4210854715202004e-14)"/><path fill="#6B1526" d="M524.3,563.1c0,0-0.1,0.6-0.2,1.6c-0.1,1.1-0.1,2.7-0.1,4.7c0,1,0.1,2.1,0.1,3.3c0.1,1.2,0.2,2.5,0.4,3.9&#10;&#9;&#9;&#9;c0.4,2.7,1,5.8,2,9c0.5,1.6,1,3.3,1.8,4.9c0.4,0.8,0.7,1.7,1.1,2.5c0.4,0.8,0.9,1.7,1.4,2.5c0.5,0.8,0.9,1.7,1.4,2.5&#10;&#9;&#9;&#9;c0.6,0.8,1.1,1.6,1.7,2.4c1.1,1.7,2.5,3.2,3.9,4.7c2.8,3.1,6.2,5.8,9.8,8.3c1.7,1.4,3.8,2.3,5.7,3.4c1,0.5,2,1.1,2.9,1.5l3.2,1.4&#10;&#9;&#9;&#9;c4,1.6,8.4,2.7,12.7,3.2c4.3,0.4,8.6,0.3,12.7-0.5c8.2-1.5,15.4-5,21.2-8.6c5.7-3.7,10.1-7.4,13-10.2c2.9-2.8,4.4-4.5,4.4-4.5&#10;&#9;&#9;&#9;s-1.2,2-3.9,5.1c-2.7,3-6.6,7.3-12.3,11.5c-2.8,2.1-6.1,4.2-9.7,5.9c-3.6,1.8-7.7,3.3-12.1,4.2c-4.4,0.9-9.1,1.3-13.8,0.9&#10;&#9;&#9;&#9;c-4.7-0.4-9.4-1.6-13.9-3.3l-3.2-1.4c-1.2-0.6-2.1-1.1-3.2-1.7c-2-1.2-4.2-2.2-6-3.6c-1.9-1.4-3.9-2.6-5.5-4.3&#10;&#9;&#9;&#9;c-1.6-1.6-3.4-3-4.8-4.8c-1.4-1.7-2.9-3.3-4-5.2c-0.6-0.9-1.1-1.8-1.7-2.7c-0.5-0.9-0.9-1.9-1.4-2.8c-0.4-0.9-0.9-1.8-1.3-2.7&#10;&#9;&#9;&#9;c-0.3-0.9-0.7-1.8-1-2.7c-0.7-1.8-1.1-3.6-1.5-5.3c-0.8-3.4-1.2-6.7-1.3-9.5c-0.1-1.4,0-2.8,0-4c0.1-1.2,0.1-2.3,0.2-3.4&#10;&#9;&#9;&#9;c0.2-2,0.5-3.6,0.7-4.7C524.1,563.7,524.3,563.1,524.3,563.1z" transform="matrix(1, 0, 0, 1, 5.684341886080802e-14, 1.4210854715202004e-14)"/><path fill="#6B1526" d="M615.4,563.9c0,0,0.1,1.4,0,3.9c-0.2,2.5-0.5,6.1-1.7,10.3c-1.2,4.1-3.2,9-6.7,13.3&#10;&#9;&#9;&#9;c-3.4,4.3-8.3,8-13.8,10.1c-5.5,2.1-11.4,3.1-16.8,2.9c-5.5-0.1-10.5-1.5-14.5-3c-4.1-1.5-7.2-3.4-9.3-4.8&#10;&#9;&#9;&#9;c-2.1-1.4-3.1-2.4-3.1-2.4s1.2,0.8,3.3,2.1c2.2,1.2,5.4,2.8,9.4,4.1c4,1.3,8.9,2.3,14.2,2.3c5.3,0.1,10.9-0.9,16.1-3&#10;&#9;&#9;&#9;c5.2-1.9,9.9-5.3,13.2-9.3c3.4-4,5.6-8.5,7-12.5c1.4-4,2.1-7.5,2.4-10C615.4,565.3,615.4,563.9,615.4,563.9z" transform="matrix(1, 0, 0, 1, 5.684341886080802e-14, 1.4210854715202004e-14)"/><path fill="#6B1526" d="M1110.6,863.9c-2.5,0-24.7-0.2-40.7-8.7l-1-0.5c-19.2-10.2-25.4-13.8-24.8-17.6c0.2-1.5,1.5-2.5,3.7-3&#10;&#9;&#9;&#9;c5.7-1.1,56.4-11.2,62.9-31.7l3.8,1.2c-7.1,22.2-56.2,32.6-65.9,34.4c0,0,0,0-0.1,0c2.6,2.7,13.4,8.4,22.3,13.1l1,0.5&#10;&#9;&#9;&#9;c15.7,8.3,38.7,8.2,39,8.2l0,4C1110.7,863.9,1110.7,863.9,1110.6,863.9z" transform="matrix(1, 0, 0, 1, 5.684341886080802e-14, 1.4210854715202004e-14)"/><path fill="#6B1526" d="M1002,774.8c-5,0-9.1-0.6-12.3-1.6c-2.8-0.9-5.2-1.8-5.5-3.8c-0.3-2.2,1.7-3.5,5.3-5.9&#10;&#9;&#9;&#9;c7.8-5.2,23.9-16,37.3-45c22.2-48.1,20.4-67.9,20.4-68.1l3.9-0.4c0.1,0.8,1.9,21.1-20.7,70.2c-13.9,30.1-30.7,41.3-38.7,46.7&#10;&#9;&#9;&#9;c-1,0.7-2.1,1.4-2.8,2c0.4,0.2,1.1,0.4,2,0.7c10.9,3.4,33.2,1.6,63.4-13.6c28.7-14.5,38.3-37.1,38.4-37.3l3.7,1.5&#10;&#9;&#9;&#9;c-0.4,1-10.2,24.2-40.2,39.3C1033.5,770.8,1015,774.8,1002,774.8z" transform="matrix(1, 0, 0, 1, 5.684341886080802e-14, 1.4210854715202004e-14)"/><path fill="#6B1526" d="M1081.2,961.8c-0.7-0.2-18.4-5.9-32.5-23.1c-10.1-12.3-10.9-16.3-9.1-18.4c1.5-1.8,4.5-1.4,8.9,1.1&#10;&#9;&#9;&#9;c5.6,3.2,39.6,5.6,46.4,3.9l1,3.8c-7.9,2-42.7-0.5-49.3-4.3c-1.7-1-2.8-1.4-3.5-1.6c0.4,1.4,2.2,4.9,8.8,13&#10;&#9;&#9;&#9;c13.3,16.2,30.4,21.7,30.6,21.8L1081.2,961.8z" transform="matrix(1, 0, 0, 1, 5.684341886080802e-14, 1.4210854715202004e-14)"/><path fill="#6B1526" d="M1037.3,1042.6c-0.5-0.4-11.4-9.4-16.6-26.5c-3.8-12.7-3.2-16-0.9-17.1c1.8-0.9,4,0.2,6.5,3.4&#10;&#9;&#9;&#9;c2.7,3.5,25.4,14.2,31.1,14.6l-0.3,4c-6.2-0.4-30.4-11.4-34-16.1c-0.5-0.6-0.9-1-1.2-1.4c0.1,1.6,0.5,4.9,2.5,11.6&#10;&#9;&#9;&#9;c4.8,15.9,15.2,24.5,15.3,24.6L1037.3,1042.6z" transform="matrix(1, 0, 0, 1, 5.684341886080802e-14, 1.4210854715202004e-14)"/><path fill="#6B1526" d="M976.6,1094.6c-0.3-0.5-7.6-12.7-6.7-30.6c0.7-13.2,2.4-16.1,4.9-16.5c2-0.3,3.7,1.5,4.9,5.4&#10;&#9;&#9;&#9;c1.4,4.3,19.2,21.9,24.4,24.2l-1.6,3.6c-5.7-2.5-24.8-20.9-26.6-26.6c-0.2-0.7-0.5-1.3-0.7-1.7c-0.5,1.5-1.1,4.8-1.5,11.7&#10;&#9;&#9;&#9;c-0.8,16.6,6.1,28.2,6.1,28.3L976.6,1094.6z" transform="matrix(1, 0, 0, 1, 5.684341886080802e-14, 1.4210854715202004e-14)"/><path fill="#6B1526" d="M920.3,1089.3c-0.7-5.5,4.3-27.2,7.8-31.1c0.1-0.2,0.3-0.3,0.4-0.5c-1.5,0.5-4,1.5-8.2,3.8&#10;&#9;&#9;&#9;c-12.3,6.6-17.6,16.5-17.7,16.6l-3.5-1.8c0.2-0.5,5.9-11.1,19.3-18.3c10.1-5.4,13-5.3,14.4-3.5c1.2,1.5,0.6,3.6-1.8,6.3&#10;&#9;&#9;&#9;c-2.4,2.7-7.4,23.4-6.8,28L920.3,1089.3z" transform="matrix(1, 0, 0, 1, 5.684341886080802e-14, 1.4210854715202004e-14)"/><path fill="#6B1526" d="M886,1014.7l-1.7-3.6c4-1.9,21.4-3.2,26.4-1.8c-0.8-1-2.2-2.6-4.3-4.7c-8.2-8.1-17.4-9.9-17.5-9.9l0.7-3.9&#10;&#9;&#9;&#9;c0.4,0.1,10.5,2,19.6,11c6.2,6.1,7.9,9,6.4,11.1c-1,1.5-3,1.6-5.9,0.3C907,1011.9,889.5,1013.1,886,1014.7z" transform="matrix(1, 0, 0, 1, 5.684341886080802e-14, 1.4210854715202004e-14)"/><path fill="#6B1526" d="M942.1,990.4c-0.7,0-1.2-0.2-1.7-0.7c-0.8-0.7-1.3-2.1,0.3-4.7c1-1.7,1.1-12.4,0.2-14.4l3.6-1.7&#10;&#9;&#9;&#9;c1.2,2.5,1.4,11.4,0.3,16c0.8-0.5,1.7-1.2,2.9-2c6.8-5,8.6-10.6,8.6-10.7l3.8,1.2c-0.1,0.3-2.3,6.9-10.1,12.6&#10;&#9;&#9;&#9;C946.1,989.1,943.7,990.4,942.1,990.4z" transform="matrix(1, 0, 0, 1, 5.684341886080802e-14, 1.4210854715202004e-14)"/><path fill="#6B1526" d="M972.8,1033.2c-0.2-0.1-5-3.2-8-10.5c-2-4.8-2.6-7.5-0.7-8.7c0.8-0.5,2.2-0.8,4.1,1.2&#10;&#9;&#9;&#9;c1.1,1,9.1,3.2,10.8,2.9l0.7,3.9c-1.9,0.4-8.2-0.9-11.9-2.6c0.2,0.5,0.4,1.1,0.7,1.8c2.5,6.1,6.4,8.6,6.4,8.6L972.8,1033.2z" transform="matrix(1, 0, 0, 1, 5.684341886080802e-14, 1.4210854715202004e-14)"/><path fill="#6B1526" d="M941.4,1041.8c-0.9-1.4-1.9-6.6-1.9-10.3c-0.3,0.2-0.6,0.5-0.9,0.8c-3.8,3.7-4.1,5.5-4.1,5.5l-4-0.2&#10;&#9;&#9;&#9;c0-0.7,0.4-3.4,5.3-8.2c3.4-3.3,5.5-4.8,7.2-3.5c0.7,0.5,1.6,1.6,0.4,4c-0.4,1.3,0.5,8.4,1.2,9.7L941.4,1041.8z" transform="matrix(1, 0, 0, 1, 5.684341886080802e-14, 1.4210854715202004e-14)"/><path fill="#6B1526" d="M798.2,726.9c-0.4,0-0.8,0-1.1-0.1c-1.6-0.4-4.1-2.1-2.9-8.2c2.2-11.1,2.6-90.7-28.4-113.3l2.3-3.2&#10;&#9;&#9;&#9;c32.5,23.6,32.2,105.8,30,117.2c-0.5,2.6-0.1,3.5,0,3.6c0.1,0,0.4,0.1,1.2-0.2c7.2-2.6,23.1-21.6,35.8-55.8&#10;&#9;&#9;&#9;c19.2-51.4-1.1-81.3-1.3-81.6l3.2-2.3c0.9,1.3,21.7,31.9,1.8,85.3C824.9,705.9,806.4,726.9,798.2,726.9z" transform="matrix(1, 0, 0, 1, 5.684341886080802e-14, 1.4210854715202004e-14)"/><path fill="#6B1526" d="M904.5,727.2c-0.8,0-1.6-0.1-2.1-0.4c-1.6-0.7-2.8-2.4-1.8-5.2c0.3-0.8,0.7-1.8,1.2-3.1&#10;&#9;&#9;&#9;c21.6-53.2,26.5-98.3,14.6-134.1l3.8-1.2c12.2,36.7,7.2,82.7-14.7,136.8c-0.5,1.3-0.9,2.3-1.2,3c0,0.1-0.1,0.2-0.1,0.2&#10;&#9;&#9;&#9;c0.6,0.1,2.2,0,5-0.9c15.3-5.1,44.5-26.2,58.5-55.4c20.1-41.9,13.8-62.4,13.7-62.6l3.8-1.3c0.3,0.9,7,21.9-13.9,65.6&#10;&#9;&#9;&#9;C953.7,705.2,916.1,727.2,904.5,727.2z" transform="matrix(1, 0, 0, 1, 5.684341886080802e-14, 1.4210854715202004e-14)"/><path fill="#B8C63B" d="M541.1,1030c0,0-44.4,39-79.7,20.4c-35.4-18.6-60.8-32.8-72.4-26.5c-11.6,6.3,9.4-38.7,59.5-46.4&#10;&#9;&#9;&#9;C498.5,969.7,541.7,989.9,541.1,1030z" transform="matrix(1, 0, 0, 1, 5.684341886080802e-14, 1.4210854715202004e-14)"/><path fill="#6B1526" d="M482.5,1058.5c-7.6,0-15.2-1.5-22.5-5.4l-6.8-3.6c-29.8-15.7-53.3-28.1-62.8-23c-2.9,1.6-4.8,0.9-5.9,0.1&#10;&#9;&#9;&#9;c-1.1-0.9-2.2-2.7-1.3-6.2c2.9-11,25.6-39.8,64.8-45.8c31.8-4.9,61.3,1.3,78.9,16.6c11.5,10,17.5,23.5,17.2,38.9l0,1.3l-1,0.9&#10;&#9;&#9;&#9;C541.6,1033.5,512.8,1058.5,482.5,1058.5z M395.7,1019.4c13.1,0,32.9,10.4,60.2,24.8l6.8,3.6c30.4,15.9,68.7-13.7,75.4-19.2&#10;&#9;&#9;&#9;c-0.1-13-5.4-24.4-15.2-33c-16.3-14.2-44-19.9-74-15.2c-36.2,5.6-56.1,31.1-59.5,40C391.3,1019.7,393.4,1019.4,395.7,1019.4z" transform="matrix(1, 0, 0, 1, 5.684341886080802e-14, 1.4210854715202004e-14)"/><path fill="#6B1526" d="M420.8,1004.8c10.4-1.7,21-2.4,31.5-2.6c10.6-0.2,21.2,0.3,31.7,1.7c5.3,0.7,10.5,1.6,15.7,2.8&#10;&#9;&#9;&#9;c5.2,1.2,10.4,2.6,15.4,4.6c5,1.9,10,4.1,14.7,6.9c4.7,2.8,9.2,6,13.2,9.7l-4.1,4.4c-7.5-6.7-16.4-11.8-25.9-15.6&#10;&#9;&#9;&#9;c-9.5-3.8-19.6-6.4-29.8-8.2c-10.2-1.9-20.6-2.9-31.1-3.5c-5.2-0.3-10.5-0.4-15.7-0.4C431.3,1004.4,426,1004.5,420.8,1004.8z" transform="matrix(1, 0, 0, 1, 5.684341886080802e-14, 1.4210854715202004e-14)"/><path fill="#6B1526" d="M508.7,1013.7c0,0-1.4-1.9-3.9-4.7c-1.2-1.4-2.7-2.9-4.4-4.5c-1.7-1.6-3.5-3.3-5.5-4.8&#10;&#9;&#9;&#9;c-1-0.8-1.9-1.6-3-2.2c-1-0.7-2-1.4-3-2c-1-0.6-1.9-1.2-2.9-1.7c-0.9-0.5-1.8-1.1-2.7-1.4c-0.8-0.4-1.6-0.8-2.3-1.1&#10;&#9;&#9;&#9;c-0.7-0.3-1.3-0.5-1.8-0.7c-1-0.4-1.6-0.6-1.6-0.6s0.6,0.2,1.7,0.5c0.5,0.2,1.2,0.3,1.9,0.5c0.7,0.3,1.5,0.5,2.4,0.9&#10;&#9;&#9;&#9;c0.9,0.3,1.8,0.8,2.8,1.2c1,0.4,2,0.9,3.1,1.5c1.1,0.5,2.1,1.1,3.2,1.8c1.1,0.6,2.1,1.3,3.2,2c2.1,1.4,4.2,2.9,6.1,4.4&#10;&#9;&#9;&#9;c1.9,1.5,3.6,2.9,5,4.2c2.8,2.5,4.6,4.5,4.6,4.5L508.7,1013.7z" transform="matrix(1, 0, 0, 1, 5.684341886080802e-14, 1.4210854715202004e-14)"/><path fill="#6B1526" d="M462.3,1005.5c0,0-0.4-0.4-1.1-0.9c-0.7-0.6-1.7-1.4-2.9-2.3c-1.2-1-2.7-2-4.3-3.1c-0.8-0.6-1.7-1-2.5-1.6&#10;&#9;&#9;&#9;c-0.9-0.5-1.8-1.1-2.7-1.6c-0.9-0.5-1.8-1-2.8-1.4c-0.9-0.5-1.8-1-2.7-1.3c-0.9-0.4-1.8-0.7-2.6-1.1c-0.8-0.3-1.6-0.7-2.4-0.9&#10;&#9;&#9;&#9;c-3-0.8-5.1-1.4-5.1-1.4s2.1,0.3,5.2,0.8c0.8,0.1,1.6,0.4,2.5,0.6c0.9,0.2,1.8,0.5,2.8,0.8c1,0.2,1.9,0.6,2.9,1c1,0.4,2,0.7,3,1.1&#10;&#9;&#9;&#9;c1,0.4,1.9,0.9,2.9,1.3c1,0.5,1.9,0.8,2.8,1.3c1.8,1,3.5,1.8,4.8,2.6c1.4,0.8,2.5,1.5,3.4,2.1c0.8,0.5,1.2,0.8,1.2,0.8&#10;&#9;&#9;&#9;L462.3,1005.5z" transform="matrix(1, 0, 0, 1, 5.684341886080802e-14, 1.4210854715202004e-14)"/><path fill="#6B1526" d="M485,1008.1c0,0-0.6,0.1-1.8,0.4c-1.1,0.3-2.7,0.6-4.6,1.2c-1.9,0.5-4.1,1.2-6.5,1.9&#10;&#9;&#9;&#9;c-2.4,0.7-4.9,1.6-7.4,2.4c-1.2,0.5-2.5,1-3.7,1.4c-1.2,0.5-2.4,0.9-3.5,1.4c-2.2,1.1-4.4,2-6.1,2.9c-3.4,2-5.7,3.3-5.7,3.3&#10;&#9;&#9;&#9;s2.2-1.6,5.4-3.9c1.7-1.1,3.7-2.2,5.9-3.5c1.1-0.6,2.3-1.2,3.4-1.8c1.2-0.6,2.4-1.2,3.6-1.8c2.4-1.1,4.9-2.2,7.2-3.2&#10;&#9;&#9;&#9;c2.3-0.9,4.5-1.8,6.4-2.5c1.9-0.7,3.5-1.3,4.6-1.6c1.1-0.4,1.8-0.6,1.8-0.6L485,1008.1z" transform="matrix(1, 0, 0, 1, 5.684341886080802e-14, 1.4210854715202004e-14)"/><g transform="matrix(1, 0, 0, 1, 5.684341886080802e-14, 1.4210854715202004e-14)">
			<path fill="#8B5C32" d="M635.7,1181.4c0,0,49.5-9,100.8-17.4c51.2-8.3,15,4.6,7.2,9.3c-7.8,4.6-93.6,32.2-102.5,28.4&#10;&#9;&#9;&#9;&#9;c-8.9-3.8-9.4-12.7-9.4-12.7"/>
		</g><path fill="#6B1526" d="M635.7,1181.4c11-3.9,22.4-5.6,33.6-7.8c11.3-2.2,22.6-4.3,33.9-6.4c11.3-2.1,22.6-4.1,34-6.2&#10;&#9;&#9;&#9;&#9;c5.7-0.9,11.4-1.8,17.3-2.4c1.5-0.1,3-0.2,4.5-0.3c0.8,0,1.6,0,2.5,0.1c0.4,0,0.9,0.1,1.5,0.2c0.3,0.1,0.6,0.2,1,0.3&#10;&#9;&#9;&#9;&#9;c0.4,0.2,0.9,0.4,1.5,1.1c0.2,0.2,0.3,0.4,0.4,0.6c0.1,0.3,0.3,0.6,0.3,0.9c0.1,0.5,0.1,1.2,0,1.6c-0.1,0.4-0.3,0.8-0.4,1&#10;&#9;&#9;&#9;&#9;c-0.1,0.3-0.3,0.5-0.4,0.6c-0.5,0.6-0.9,1-1.3,1.3c-0.8,0.6-1.4,1-2.1,1.4c-1.4,0.8-2.7,1.5-4,2.2c-2.6,1.3-5.3,2.5-7.8,3.7&#10;&#9;&#9;&#9;&#9;c-1.3,0.6-2.6,1.2-3.8,1.8l-1.9,1c-0.8,0.5-1.5,0.7-2.2,1c-5.5,2.3-10.9,4.1-16.4,6c-11,3.6-21.9,7.1-33,10.3&#10;&#9;&#9;&#9;&#9;c-11.1,3.1-22.2,6.1-33.6,8.4c-2.8,0.6-5.7,1.1-8.6,1.5c-1.5,0.2-2.9,0.4-4.4,0.5c-1.5,0.1-3,0.2-4.9-0.2&#10;&#9;&#9;&#9;&#9;c-6.6-2.2-10.3-8.8-9.6-14.7c1,2.8,2.5,5.1,4.3,7.1c0.9,0.9,1.9,1.8,3,2.4c0.5,0.3,1.1,0.6,1.7,0.9c0.5,0.2,1.3,0.6,1.6,0.6&#10;&#9;&#9;&#9;&#9;c0.9,0.2,2.4,0.1,3.7-0.1c1.4-0.1,2.7-0.4,4.1-0.6c2.8-0.5,5.5-1.1,8.3-1.8c11.1-2.7,22.1-6,33-9.3c10.9-3.4,21.9-6.9,32.7-10.6&#10;&#9;&#9;&#9;&#9;c5.4-1.9,10.9-3.8,16-5.9c0.6-0.3,1.3-0.6,1.7-0.8l0.4-0.2l0.5-0.3l1-0.6c1.4-0.7,2.7-1.3,4-1.9c2.6-1.2,5.2-2.4,7.7-3.7&#10;&#9;&#9;&#9;&#9;c1.3-0.6,2.5-1.3,3.6-1.9c0.6-0.3,1.1-0.7,1.5-1c0.2-0.1,0.3-0.3,0.3-0.2l-0.1,0.2c0,0-0.1,0.3-0.2,0.5c-0.1,0.2-0.1,0.7,0,1.1&#10;&#9;&#9;&#9;&#9;c0,0.2,0.1,0.4,0.2,0.6c0.1,0.1,0.2,0.3,0.3,0.4c0.4,0.4,0.6,0.5,0.6,0.5c0,0,0.1,0,0,0c-0.1,0-0.4-0.1-0.7-0.1&#10;&#9;&#9;&#9;&#9;c-0.5,0-1.2-0.1-1.8-0.1c-1.3,0-2.7,0.1-4.1,0.2c-5.6,0.5-11.2,1.4-16.9,2.2c-11.3,1.8-22.7,3.8-34,5.5&#10;&#9;&#9;&#9;&#9;c-11.3,1.8-22.7,3.6-34.1,5.3C658.7,1179.1,647.4,1181.4,635.7,1181.4z" transform="matrix(1, 0, 0, 1, 8.526512829121202e-14, 2.1316282072803006e-14)"/><path fill="#B8C63B" d="M739.3,1172c0,0,38.6,34,69.5,17.8c30.8-16.2,53-28.6,63.1-23.1c10.1,5.5-8.2-33.7-51.8-40.4&#10;&#9;&#9;&#9;&#9;C776.5,1119.5,738.8,1137.1,739.3,1172z" transform="matrix(1, 0, 0, 1, 8.526512829121202e-14, 2.1316282072803006e-14)"/><path fill="#6B1526" d="M790.4,1197.2c-26.5,0-51.7-21.8-53-23l-1-0.9l0-1.3c-0.2-13.5,5-25.4,15.2-34.2&#10;&#9;&#9;&#9;&#9;c15.4-13.4,41.2-18.9,69-14.6c36.3,5.6,54.5,31.8,56.7,40.2c0.9,3.3-0.2,5-1.3,5.8c-0.8,0.7-2.7,1.5-5.5,0&#10;&#9;&#9;&#9;&#9;c-8-4.4-28.5,6.4-54.4,20l-5.9,3.1C803.7,1195.8,797,1197.2,790.4,1197.2z M742.3,1170.6c6.2,5,39.1,30.2,65.1,16.6l5.9-3.1&#10;&#9;&#9;&#9;&#9;c27.5-14.5,46.3-24.4,57.5-21c-3.7-8.3-20.8-29.2-51.3-33.9c-26.1-4-50.1,0.9-64.2,13.2C747,1149.7,742.5,1159.4,742.3,1170.6z" transform="matrix(1, 0, 0, 1, 8.526512829121202e-14, 2.1316282072803006e-14)"/><path fill="#6B1526" d="M844.2,1150c-4.6-0.2-9.2-0.3-13.7-0.2c-4.6,0-9.1,0.2-13.7,0.5c-9.1,0.6-18.2,1.5-27,3.2&#10;&#9;&#9;&#9;&#9;c-8.9,1.6-17.6,3.9-25.9,7.2c-8.3,3.3-16,7.7-22.5,13.5l-4.1-4.4c3.5-3.3,7.5-6.1,11.6-8.5c4.1-2.4,8.5-4.3,12.9-6&#10;&#9;&#9;&#9;&#9;c4.4-1.7,9-2.9,13.5-4c4.6-1.1,9.1-1.9,13.8-2.5c9.2-1.1,18.5-1.5,27.7-1.3C825.9,1147.8,835.1,1148.5,844.2,1150z" transform="matrix(1, 0, 0, 1, 8.526512829121202e-14, 2.1316282072803006e-14)"/><path fill="#6B1526" d="M764.7,1155.4c0,0,1.6-1.7,4.1-3.9c1.3-1.1,2.8-2.4,4.4-3.7c1.7-1.3,3.5-2.6,5.3-3.8&#10;&#9;&#9;&#9;&#9;c1-0.6,1.9-1.2,2.8-1.7c1-0.5,1.9-1.1,2.8-1.5c0.9-0.5,1.8-0.9,2.7-1.3c0.9-0.4,1.7-0.8,2.5-1c1.6-0.6,2.9-1,3.8-1.2&#10;&#9;&#9;&#9;&#9;c0.9-0.2,1.5-0.4,1.5-0.4s-0.5,0.2-1.4,0.5c-0.9,0.3-2.2,0.9-3.6,1.6c-0.7,0.3-1.5,0.8-2.3,1.3c-0.8,0.4-1.6,1-2.5,1.5&#10;&#9;&#9;&#9;&#9;c-0.9,0.5-1.7,1.2-2.6,1.8c-0.9,0.6-1.7,1.3-2.6,2c-1.7,1.4-3.3,2.8-4.7,4.2c-1.4,1.4-2.7,2.8-3.8,4c-2.2,2.4-3.4,4.1-3.4,4.1&#10;&#9;&#9;&#9;&#9;L764.7,1155.4z" transform="matrix(1, 0, 0, 1, 8.526512829121202e-14, 2.1316282072803006e-14)"/><path fill="#6B1526" d="M805.8,1147.7c0,0,0.4-0.3,1.1-0.7c0.7-0.5,1.7-1.1,3-1.8c1.2-0.7,2.7-1.4,4.2-2.3&#10;&#9;&#9;&#9;&#9;c0.8-0.4,1.6-0.7,2.5-1.1c0.8-0.4,1.7-0.8,2.6-1.1c0.9-0.3,1.8-0.6,2.6-1c0.9-0.3,1.7-0.7,2.6-0.9c0.8-0.2,1.7-0.4,2.4-0.7&#10;&#9;&#9;&#9;&#9;c0.8-0.2,1.5-0.5,2.2-0.5c2.7-0.4,4.6-0.7,4.6-0.7s-1.8,0.5-4.4,1.3c-0.7,0.1-1.3,0.5-2.1,0.8c-0.7,0.3-1.5,0.6-2.3,0.9&#10;&#9;&#9;&#9;&#9;c-0.8,0.3-1.6,0.7-2.4,1.2c-0.8,0.4-1.6,0.8-2.4,1.3c-0.8,0.4-1.5,0.9-2.3,1.4c-0.8,0.5-1.5,0.9-2.2,1.4c-1.4,1-2.7,1.9-3.7,2.7&#10;&#9;&#9;&#9;&#9;c-1.1,0.8-1.9,1.5-2.5,2c-0.6,0.5-0.9,0.8-0.9,0.8L805.8,1147.7z" transform="matrix(1, 0, 0, 1, 8.526512829121202e-14, 2.1316282072803006e-14)"/><path fill="#6B1526" d="M789.2,1149.3c0,0,0.6,0.2,1.5,0.5c1,0.3,2.4,0.8,4,1.5c1.7,0.6,3.5,1.4,5.6,2.2c2,0.8,4.1,1.8,6.3,2.8&#10;&#9;&#9;&#9;&#9;c1,0.5,2.1,1.1,3.1,1.6c1,0.5,2,1,3,1.6c1.9,1.1,3.6,2.1,5.1,3.1c2.8,2,4.7,3.4,4.7,3.4s-2-1.2-5-2.9c-1.6-0.8-3.4-1.6-5.4-2.5&#10;&#9;&#9;&#9;&#9;c-1-0.4-2-0.8-3.1-1.2c-1.1-0.4-2.1-0.8-3.2-1.2c-2.2-0.7-4.4-1.5-6.4-2.1c-2.1-0.6-4-1.2-5.7-1.6c-1.7-0.4-3-0.8-4-1&#10;&#9;&#9;&#9;&#9;c-1-0.2-1.5-0.3-1.5-0.3L789.2,1149.3z" transform="matrix(1, 0, 0, 1, 8.526512829121202e-14, 2.1316282072803006e-14)"/><g transform="matrix(1, 0, 0, 1, 5.684341886080802e-14, 1.4210854715202004e-14)">
			<path fill="#8B5C32" d="M1211.6,794.1c0,0,36.7-22.1,74.9-44.2c38.2-22.1,13.4-0.9,8.6,5.2c-4.8,6-64.7,53.9-72.9,53.6&#10;&#9;&#9;&#9;&#9;c-8.2-0.3-11.3-7.2-11.3-7.2"/>
		</g><path fill="#6B1526" d="M1211.6,794.1c7.4-6.7,16-11.4,24.2-16.6c8.3-5.2,16.6-10.3,25-15.4c8.3-5.1,16.7-10.1,25.1-15.2&#10;&#9;&#9;&#9;&#9;c4.3-2.5,8.5-4.9,13.1-7.1c1.1-0.6,2.3-1.1,3.5-1.6c0.6-0.3,1.3-0.5,2-0.7c0.4-0.1,0.8-0.2,1.3-0.3c0.2,0,0.6-0.1,1-0.1&#10;&#9;&#9;&#9;&#9;c0.4,0,0.9,0,1.7,0.5c0.2,0.1,0.4,0.3,0.6,0.4c0.2,0.2,0.4,0.4,0.6,0.7c0.3,0.4,0.5,1.1,0.6,1.5c0.1,0.4,0,0.8,0,1&#10;&#9;&#9;&#9;&#9;c0,0.3-0.1,0.5-0.1,0.7c-0.2,0.7-0.5,1.1-0.7,1.5c-0.4,0.7-0.9,1.3-1.3,1.8c-0.8,1.1-1.7,2-2.5,2.9c-1.7,1.9-3.4,3.6-5.1,5.3&#10;&#9;&#9;&#9;&#9;c-0.8,0.9-1.7,1.7-2.4,2.6l-1.2,1.4c-0.5,0.6-1,1-1.5,1.5c-3.7,3.5-7.4,6.6-11.2,9.8c-7.6,6.2-15.3,12.3-23.2,18.1&#10;&#9;&#9;&#9;&#9;c-7.9,5.8-15.9,11.6-24.2,16.8c-2.1,1.3-4.2,2.6-6.4,3.8c-1.1,0.6-2.2,1.2-3.4,1.7c-1.2,0.5-2.3,1.1-4.1,1.3&#10;&#9;&#9;&#9;&#9;c-6,0.2-11.1-4-12.1-9c1.7,1.8,3.6,3.2,5.6,4.1c1,0.4,2,0.8,3.1,1c0.5,0.1,1.1,0.2,1.6,0.2c0.5,0,1.2,0.1,1.4,0&#10;&#9;&#9;&#9;&#9;c0.7-0.1,1.8-0.6,2.8-1.1c1-0.5,2-1.1,3.1-1.7c2-1.3,4-2.6,6-4c7.9-5.5,15.7-11.5,23.4-17.5c7.6-6,15.3-12.1,22.7-18.3&#10;&#9;&#9;&#9;&#9;c3.7-3.1,7.5-6.3,10.9-9.5c0.4-0.4,0.9-0.8,1.1-1.1l0.2-0.2l0.3-0.4l0.7-0.8c0.9-1,1.7-1.9,2.6-2.8c1.7-1.8,3.4-3.5,5-5.2&#10;&#9;&#9;&#9;&#9;c0.8-0.9,1.6-1.7,2.3-2.6c0.3-0.4,0.6-0.8,0.8-1.2c0.1-0.2,0.1-0.3,0.1-0.2l0,0.2c0,0.1,0,0.3,0,0.6c0,0.3,0.2,0.7,0.4,1&#10;&#9;&#9;&#9;&#9;c0.1,0.2,0.3,0.4,0.4,0.5c0.1,0.1,0.3,0.2,0.4,0.3c0.6,0.3,0.8,0.2,0.9,0.3c0.1,0,0.1,0,0,0c-0.1,0-0.3,0-0.5,0.1&#10;&#9;&#9;&#9;&#9;c-0.4,0.1-0.9,0.3-1.4,0.5c-1,0.4-2.1,0.9-3.2,1.4c-4.3,2.1-8.5,4.5-12.7,6.8c-8.5,4.9-16.9,9.8-25.4,14.6&#10;&#9;&#9;&#9;&#9;c-8.5,4.9-17,9.7-25.5,14.4C1229.3,785.6,1221.1,790.8,1211.6,794.1z" transform="matrix(1, 0, 0, 1, 8.526512829121202e-14, 2.1316282072803006e-14)"/><path fill="#B8C63B" d="M1291.2,755.3c0,0,41,15.3,60.6-6.8c19.6-22.2,33.5-38.8,43.2-37.5c9.7,1.3-16.7-24.3-53.4-16.5&#10;&#9;&#9;&#9;&#9;C1304.8,702.4,1280.2,727.7,1291.2,755.3z" transform="matrix(1, 0, 0, 1, 8.526512829121202e-14, 2.1316282072803006e-14)"/><path fill="#6B1526" d="M1320.4,763.5c-15.5,0-29.3-5-30.3-5.4l-1.2-0.5l-0.5-1.2c-4.3-10.8-3.7-21.9,1.7-32.1&#10;&#9;&#9;&#9;&#9;c8.3-15.4,27.2-27.6,50.8-32.7c30.8-6.6,53.4,8.9,57.7,15c1.8,2.6,1.4,4.4,0.8,5.5c-0.5,0.9-1.8,2.3-4.8,1.8&#10;&#9;&#9;&#9;&#9;c-7.5-1-21,14.4-36.8,32.2l-3.8,4.3C1345.1,760.6,1332.2,763.5,1320.4,763.5z M1293.5,753c6.8,2.2,39.9,11.9,56.1-6.5l3.8-4.3&#10;&#9;&#9;&#9;&#9;c17-19.2,28.8-32.6,38.7-34.1c-6.2-5.6-25.4-15.9-49.9-10.7c-21.8,4.7-39.3,15.7-46.8,29.7C1291,735.3,1290.4,744.2,1293.5,753z" transform="matrix(1, 0, 0, 1, 8.526512829121202e-14, 2.1316282072803006e-14)"/><path fill="#6B1526" d="M1367.9,706.2c-3.7,1.3-7.3,2.6-10.9,4.1c-3.6,1.4-7.2,3-10.7,4.6c-7,3.3-13.9,6.7-20.4,10.8&#10;&#9;&#9;&#9;&#9;c-6.6,3.9-12.8,8.5-18.3,13.6c-5.6,5.1-10.3,10.9-13.7,17.4l-5.3-2.6c1.8-3.7,4.1-7.2,6.7-10.4c2.6-3.2,5.5-6,8.5-8.7&#10;&#9;&#9;&#9;&#9;c3-2.7,6.3-5,9.6-7.2c3.3-2.2,6.7-4.2,10.2-6.1c7-3.6,14.3-6.8,21.7-9.3C1352.6,709.7,1360.2,707.6,1367.9,706.2z" transform="matrix(1, 0, 0, 1, 8.526512829121202e-14, 2.1316282072803006e-14)"/><path fill="#6B1526" d="M1306.1,734.4c0,0,0.8-1.8,2.1-4.3c1.4-2.5,3.3-5.8,5.6-8.8c1.2-1.5,2.4-3,3.6-4.3&#10;&#9;&#9;&#9;&#9;c0.6-0.6,1.2-1.3,1.8-1.8c0.6-0.5,1.1-1.1,1.7-1.5c1.1-0.9,2-1.6,2.7-2.1c0.7-0.5,1-0.7,1-0.7s-0.3,0.3-0.9,0.9&#10;&#9;&#9;&#9;&#9;c-0.6,0.5-1.4,1.4-2.4,2.4c-0.5,0.5-0.9,1.1-1.4,1.7c-0.5,0.6-1,1.3-1.5,2c-1,1.4-2,3-2.9,4.6c-1.8,3.2-3.3,6.6-4.2,9.1&#10;&#9;&#9;&#9;&#9;c-1,2.6-1.4,4.3-1.4,4.3L1306.1,734.4z" transform="matrix(1, 0, 0, 1, 8.526512829121202e-14, 2.1316282072803006e-14)"/><path fill="#6B1526" d="M1336.4,715.8c0,0,0.2-0.3,0.7-0.9c0.4-0.6,1.1-1.4,1.8-2.3c0.8-0.9,1.7-2,2.7-3.1&#10;&#9;&#9;&#9;&#9;c0.5-0.6,1.1-1.1,1.6-1.6c0.6-0.5,1.1-1.1,1.7-1.6c1.2-1,2.4-2.1,3.6-3c0.6-0.4,1.2-0.8,1.8-1.2c0.6-0.4,1-0.8,1.6-1.1&#10;&#9;&#9;&#9;&#9;c2.1-1.1,3.5-1.9,3.5-1.9s-1.2,0.9-3.1,2.4c-0.5,0.3-0.9,0.8-1.4,1.3c-0.5,0.5-1,1-1.5,1.5c-1,1-2,2.3-3,3.4&#10;&#9;&#9;&#9;&#9;c-0.5,0.6-0.9,1.2-1.4,1.8c-0.4,0.6-0.9,1.2-1.3,1.8c-0.8,1.2-1.6,2.3-2.1,3.3c-0.6,1-1.1,1.8-1.4,2.4c-0.3,0.6-0.5,0.9-0.5,0.9&#10;&#9;&#9;&#9;&#9;L1336.4,715.8z" transform="matrix(1, 0, 0, 1, 8.526512829121202e-14, 2.1316282072803006e-14)"/><path fill="#6B1526" d="M1323.9,722c0,0,0.5,0,1.4,0c0.9,0,2.1,0,3.6,0c1.5,0,3.2,0.1,5.1,0.1c1.9,0.1,3.9,0.3,5.8,0.4&#10;&#9;&#9;&#9;&#9;c1,0.1,2,0.2,3,0.3c1,0.1,1.9,0.2,2.8,0.4c1.8,0.3,3.5,0.6,5,0.9c2.9,0.8,4.8,1.3,4.8,1.3s-1.9-0.3-4.9-0.7&#10;&#9;&#9;&#9;&#9;c-1.5-0.1-3.2-0.2-5-0.3c-0.9-0.1-1.9,0-2.8,0c-1,0-1.9,0-2.9,0c-2,0.1-3.9,0.2-5.7,0.3c-1.8,0.2-3.5,0.3-5,0.5&#10;&#9;&#9;&#9;&#9;c-1.5,0.2-2.6,0.3-3.5,0.5c-0.8,0.1-1.3,0.2-1.3,0.2L1323.9,722z" transform="matrix(1, 0, 0, 1, 8.526512829121202e-14, 2.1316282072803006e-14)"/>
</svg>