<?xml version="1.0" encoding="utf-8"?>
<svg id="master-artboard" viewBox="0 0 1500 1500" version="1.1" xmlns="http://www.w3.org/2000/svg" x="0px" y="0px" width="1500px" height="1500px" enable-background="new 0 0 1500 1500">

<g transform="matrix(1, 0, 0, 1, 8.526512829121202e-14, 2.1316282072803006e-14)">
				<path fill="#6B1526" d="M430.8,360l-3.5-0.6c0,0,0,0.4-0.3,1.1c-0.2,0.6-0.6,1.5-1.1,2.3c-1,1.7-2.4,3.2-2.4,3.2l2.6,2.4&#10;&#9;&#9;&#9;&#9;&#9;c0,0,0.4-0.4,0.9-1.1c0.5-0.7,1.3-1.6,1.9-2.6c0.6-1,1.1-2.1,1.4-3.1c0.2-0.4,0.3-0.8,0.3-1.1C430.8,360.1,430.8,360,430.8,360z&#10;&#9;&#9;&#9;&#9;&#9;"/>
			</g><path fill="#6B1526" d="M422.7,348.6l-1.1,3.4c0,0,1.9,0.5,3.3,1.6c0.7,0.5,1.3,1.2,1.6,1.7c0.3,0.5,0.5,0.9,0.5,0.9l3.3-1.3&#10;&#9;&#9;&#9;&#9;&#9;c0,0-0.2-0.6-0.8-1.5c-0.5-0.8-1.4-1.8-2.5-2.6C425.1,349.2,422.7,348.6,422.7,348.6z" transform="matrix(1, 0, 0, 1, 1.1368683772161603e-13, 2.842170943040401e-14)"/><path fill="#6B1526" d="M409,348.8l1,3.4c0,0,1.9-0.6,3.9-0.8c2-0.3,4-0.1,4-0.1l0.3-3.5c0,0-2.3-0.2-4.7,0.1&#10;&#9;&#9;&#9;&#9;&#9;C411.2,348.1,409,348.8,409,348.8z" transform="matrix(1, 0, 0, 1, 1.1368683772161603e-13, 2.842170943040401e-14)"/><path fill="#6B1526" d="M401.2,360.5l3.5,0c0,0,0-0.5,0.1-1.2c0-0.7,0.2-1.6,0.5-2.5c0.3-0.9,0.7-1.7,1.1-2.2&#10;&#9;&#9;&#9;&#9;&#9;c0.2-0.3,0.4-0.5,0.5-0.6c0.1-0.1,0.2-0.2,0.2-0.2l-2.5-2.5c0,0-0.1,0.1-0.3,0.3c-0.2,0.2-0.4,0.5-0.7,0.9&#10;&#9;&#9;&#9;&#9;&#9;c-0.6,0.8-1.2,1.9-1.6,3.1c-0.4,1.2-0.6,2.4-0.7,3.3C401.2,359.9,401.2,360.5,401.2,360.5z" transform="matrix(1, 0, 0, 1, 1.1368683772161603e-13, 2.842170943040401e-14)"/><path fill="#6B1526" d="M405,373.6l3.1-1.8c0,0-1-1.8-1.8-3.6c-0.8-1.9-1.2-3.8-1.2-3.8l-3.4,0.7c0,0,0.4,2.3,1.3,4.4&#10;&#9;&#9;&#9;&#9;&#9;C403.9,371.7,405,373.6,405,373.6z" transform="matrix(1, 0, 0, 1, 1.1368683772161603e-13, 2.842170943040401e-14)"/><path fill="#6B1526" d="M413.9,383.7l2.1-2.8c0,0-1.6-1.2-3.1-2.7c-1.5-1.4-2.7-3.1-2.7-3.1l-2.8,2.2c0,0,1.4,1.8,3,3.4&#10;&#9;&#9;&#9;&#9;&#9;C412.1,382.4,413.9,383.7,413.9,383.7z" transform="matrix(1, 0, 0, 1, 1.1368683772161603e-13, 2.842170943040401e-14)"/><path fill="#6B1526" d="M426,389.7l0.9-3.4c0,0-0.5-0.1-1.2-0.4c-0.7-0.2-1.7-0.5-2.6-1c-1-0.4-1.9-0.8-2.5-1.2&#10;&#9;&#9;&#9;&#9;&#9;c-0.7-0.4-1.1-0.6-1.1-0.6l-1.8,3c0,0,0.5,0.3,1.3,0.7c0.7,0.4,1.8,0.9,2.8,1.3c1,0.5,2.1,0.8,2.9,1.1&#10;&#9;&#9;&#9;&#9;&#9;C425.4,389.6,426,389.7,426,389.7z" transform="matrix(1, 0, 0, 1, 1.1368683772161603e-13, 2.842170943040401e-14)"/><g transform="matrix(1, 0, 0, 1, 8.526512829121202e-14, 2.1316282072803006e-14)">
				<path fill="#6B1526" d="M439.3,391l-0.2-3.5c0,0-0.5,0.1-1.3,0.1c-0.8,0-1.8,0-2.8,0c-1-0.1-2.1-0.2-2.8-0.2&#10;&#9;&#9;&#9;&#9;&#9;c-0.8-0.1-1.3-0.2-1.3-0.2l-0.5,3.5c0,0,0.6,0.1,1.4,0.2c0.8,0.1,2,0.2,3.1,0.3c1.1,0,2.2,0,3.1,0&#10;&#9;&#9;&#9;&#9;&#9;C438.7,391.1,439.3,391,439.3,391z"/>
			</g><path fill="#6B1526" d="M452.3,388.6l-1-3.4c0,0-0.5,0.1-1.3,0.4c-0.8,0.2-1.8,0.5-2.8,0.7c-1,0.2-2,0.5-2.8,0.6&#10;&#9;&#9;&#9;&#9;&#9;c-0.8,0.1-1.3,0.2-1.3,0.2l0.5,3.5c0,0,0.6-0.1,1.4-0.2c0.8-0.1,1.9-0.4,3-0.6c1.1-0.2,2.1-0.6,2.9-0.8&#10;&#9;&#9;&#9;&#9;&#9;C451.7,388.7,452.3,388.6,452.3,388.6z" transform="matrix(1, 0, 0, 1, 1.1368683772161603e-13, 2.842170943040401e-14)"/><path fill="#6B1526" d="M464.5,383.8l-1.6-3.2c0,0-1.9,1-3.8,1.8c-1,0.4-2,0.8-2.7,1.1c-0.7,0.3-1.2,0.5-1.2,0.5l1.2,3.3&#10;&#9;&#9;&#9;&#9;&#9;c0,0,0.5-0.2,1.3-0.5c0.8-0.3,1.8-0.7,2.8-1.1C462.5,384.8,464.5,383.8,464.5,383.8z" transform="matrix(1, 0, 0, 1, 1.1368683772161603e-13, 2.842170943040401e-14)"/><path fill="#6B1526" d="M475.6,376.7l-2.2-2.8c0,0-1.6,1.3-3.4,2.5c-0.8,0.6-1.8,1.1-2.4,1.6c-0.7,0.4-1.1,0.7-1.1,0.7l1.8,3&#10;&#9;&#9;&#9;&#9;&#9;c0,0,0.5-0.3,1.2-0.7c0.7-0.5,1.7-1,2.6-1.6C473.9,378.1,475.6,376.7,475.6,376.7z" transform="matrix(1, 0, 0, 1, 1.1368683772161603e-13, 2.842170943040401e-14)"/><path fill="#6B1526" d="M484.9,367.3l-2.8-2.1c0,0-0.3,0.4-0.8,1c-0.5,0.6-1.2,1.4-1.9,2.2c-1.4,1.5-2.9,2.9-2.9,2.9l2.4,2.6&#10;&#9;&#9;&#9;&#9;&#9;c0,0,1.6-1.5,3.1-3.2c0.7-0.8,1.5-1.7,2-2.3C484.6,367.7,484.9,367.3,484.9,367.3z" transform="matrix(1, 0, 0, 1, 1.1368683772161603e-13, 2.842170943040401e-14)"/><path fill="#6B1526" d="M490.9,341.6l-3.2,1.5c0,0,0.2,0.4,0.4,1c0.2,0.6,0.4,1.6,0.5,2.5c0.2,1.9-0.1,3.9-0.1,3.9l3.5,0.5&#10;&#9;&#9;&#9;&#9;&#9;c0,0,0.3-2.3,0.1-4.7c-0.1-1.2-0.4-2.4-0.7-3.3c-0.1-0.4-0.3-0.8-0.4-1.1C491,341.7,490.9,341.6,490.9,341.6z" transform="matrix(1, 0, 0, 1, 1.1368683772161603e-13, 2.842170943040401e-14)"/><g transform="matrix(1, 0, 0, 1, 8.526512829121202e-14, 2.1316282072803006e-14)">
				<path fill="#6B1526" d="M477.7,338.5l2.4,2.6c0,0,0.3-0.3,0.9-0.7c0.5-0.3,1.3-0.7,2-0.8c0.4-0.1,0.6,0,0.9,0&#10;&#9;&#9;&#9;&#9;&#9;c0.1-0.1,0.4,0.1,0.6,0.2c0.2,0.1,0.4,0.2,0.6,0.2l0.1,0l0,0l0,0c0,0-0.3-0.2-0.2-0.1l0,0l0,0l0,0l0.1,0.1&#10;&#9;&#9;&#9;&#9;&#9;c0.1,0,0.1,0.1,0.2,0.1c0.1,0.1,0.2,0.1,0.3,0.2c0.2,0.1,0.3,0.2,0.3,0.2l2.1-2.8c0,0-0.1-0.1-0.4-0.2c-0.1-0.1-0.3-0.2-0.4-0.3&#10;&#9;&#9;&#9;&#9;&#9;c-0.1-0.1-0.2-0.1-0.3-0.2l-0.1-0.1l0,0l0,0l-0.2-0.1l-0.1,0c-0.2-0.1-0.4-0.2-0.6-0.2c-0.2-0.1-0.4-0.2-0.8-0.2&#10;&#9;&#9;&#9;&#9;&#9;c-0.4-0.1-0.8-0.1-1.2-0.2c-0.4,0-0.7,0-1.1,0.1c-0.7,0-1.4,0.3-2,0.5c-0.6,0.3-1.1,0.6-1.5,0.8&#10;&#9;&#9;&#9;&#9;&#9;C478.2,338.1,477.7,338.5,477.7,338.5z"/>
			</g><path fill="#6B1526" d="M472,351.2l3.5,0.2c0,0,0.1-2,0.7-3.9c0.5-1.9,1.5-3.6,1.5-3.6l-3.1-1.8c0,0-1.2,2.1-1.8,4.3&#10;&#9;&#9;&#9;&#9;&#9;C472.2,348.8,472,351.2,472,351.2z" transform="matrix(1, 0, 0, 1, 1.1368683772161603e-13, 2.842170943040401e-14)"/><path fill="#6B1526" d="M476.1,364.4l2.7-2.2c0,0-0.3-0.4-0.7-0.9c-0.4-0.6-0.9-1.4-1.3-2.3c-0.8-1.7-1.1-3.7-1.1-3.7l-3.5,0.6&#10;&#9;&#9;&#9;&#9;&#9;c0,0,0.3,2.4,1.4,4.6c0.4,1.1,1.1,2.1,1.6,2.9C475.7,364,476.1,364.4,476.1,364.4z" transform="matrix(1, 0, 0, 1, 1.1368683772161603e-13, 2.842170943040401e-14)"/><path fill="#6B1526" d="M514,372.2l-0.5-3.5c0,0-0.5,0.1-1.3,0.2c-0.8,0.1-1.8,0.2-2.9,0.4c-1,0.2-2.1,0.2-2.9,0.3&#10;&#9;&#9;&#9;&#9;&#9;c-0.8,0.1-1.3,0.1-1.3,0.1l0.2,3.5c0,0,0.5,0,1.4-0.1c0.8,0,1.9-0.1,3-0.3c1.1-0.1,2.2-0.3,3-0.4&#10;&#9;&#9;&#9;&#9;&#9;C513.5,372.3,514,372.2,514,372.2z" transform="matrix(1, 0, 0, 1, 1.1368683772161603e-13, 2.842170943040401e-14)"/><path fill="#6B1526" d="M526.7,369.7l-0.8-3.4c0,0-0.5,0.1-1.3,0.3c-0.8,0.2-1.8,0.5-2.9,0.6c-2.1,0.4-4.2,0.8-4.2,0.8l0.6,3.5&#10;&#9;&#9;&#9;&#9;&#9;c0,0,2.1-0.4,4.3-0.8c1.1-0.2,2.1-0.4,2.9-0.6C526.2,369.8,526.7,369.7,526.7,369.7z" transform="matrix(1, 0, 0, 1, 1.1368683772161603e-13, 2.842170943040401e-14)"/><g transform="matrix(1, 0, 0, 1, 8.526512829121202e-14, 2.1316282072803006e-14)">
				<path fill="#6B1526" d="M539.2,366.3l-1-3.4c0,0-2,0.6-4.1,1.2c-1,0.3-2.1,0.6-2.8,0.8c-0.8,0.2-1.3,0.3-1.3,0.3l0.9,3.4&#10;&#9;&#9;&#9;&#9;&#9;c0,0,0.5-0.1,1.3-0.3c0.8-0.2,1.9-0.4,2.9-0.8C537.2,366.9,539.2,366.3,539.2,366.3z"/>
			</g><path d="M 551.5 362.20001220703125 L 550.2999877929688 358.8999938964844 L 542.2000122070312 361.70001220703125 L 543.2999877929688 365.1000061035156 Z" fill="#6B1526" transform="matrix(1, 0, 0, 1, 1.1368683772161603e-13, 2.842170943040401e-14)"/><path fill="#6B1526" d="M563.5,357.3L562,354c0,0-0.5,0.2-1.2,0.6c-0.7,0.3-1.7,0.8-2.7,1.2c-2,0.8-4,1.6-4,1.6l1.3,3.3&#10;&#9;&#9;&#9;&#9;&#9;c0,0,2-0.8,4-1.6c1-0.4,2-0.8,2.7-1.2C563,357.5,563.5,357.3,563.5,357.3z" transform="matrix(1, 0, 0, 1, 1.1368683772161603e-13, 2.842170943040401e-14)"/><path fill="#6B1526" d="M575.1,351.7l-1.6-3.1c0,0-1.9,1-3.8,1.9c-1.9,1-3.9,1.9-3.9,1.9l1.5,3.2c0,0,2-0.9,3.9-1.9&#10;&#9;&#9;&#9;&#9;&#9;C573.2,352.6,575.1,351.7,575.1,351.7z" transform="matrix(1, 0, 0, 1, 1.1368683772161603e-13, 2.842170943040401e-14)"/><path fill="#6B1526" d="M586.4,345.4l-1.8-3c0,0-1.8,1.1-3.7,2.1c-1.9,1-3.8,2-3.8,2l1.7,3.1c0,0,1.9-1,3.8-2.1&#10;&#9;&#9;&#9;&#9;&#9;C584.6,346.6,586.4,345.4,586.4,345.4z" transform="matrix(1, 0, 0, 1, 1.1368683772161603e-13, 2.842170943040401e-14)"/><path fill="#6B1526" d="M597.4,338.6l-2-2.9c0,0-0.4,0.3-1.1,0.7c-0.7,0.5-1.6,1-2.5,1.6c-1.8,1.1-3.6,2.3-3.6,2.3l1.8,3&#10;&#9;&#9;&#9;&#9;&#9;c0,0,1.8-1.2,3.7-2.3c0.9-0.6,1.8-1.2,2.5-1.6C597,338.9,597.4,338.6,597.4,338.6z" transform="matrix(1, 0, 0, 1, 1.1368683772161603e-13, 2.842170943040401e-14)"/><path fill="#6B1526" d="M608,331.1l-2.1-2.8c0,0-1.7,1.3-3.4,2.5c-1.7,1.2-3.5,2.5-3.5,2.5l2,2.9c0,0,1.8-1.3,3.5-2.5&#10;&#9;&#9;&#9;&#9;&#9;C606.3,332.4,608,331.1,608,331.1z" transform="matrix(1, 0, 0, 1, 1.1368683772161603e-13, 2.842170943040401e-14)"/><path fill="#6B1526" d="M491.2,355.4l-3.4-1c0,0-0.6,1.9-1.5,3.8c-0.4,0.9-0.9,1.8-1.3,2.5c-0.4,0.7-0.7,1.1-0.7,1.1l3,1.8&#10;&#9;&#9;&#9;&#9;&#9;c0,0,0.3-0.5,0.7-1.2c0.4-0.8,1-1.7,1.4-2.8C490.5,357.6,491.2,355.4,491.2,355.4z" transform="matrix(1, 0, 0, 1, 1.1368683772161603e-13, 2.842170943040401e-14)"/><path fill="#6B1526" d="M487.8,371.6l1-3.4c0,0-0.5-0.2-1.2-0.4c-0.7-0.2-1.6-0.6-2.6-1c-0.9-0.4-1.7-1-2.4-1.3&#10;&#9;&#9;&#9;&#9;&#9;c-0.6-0.4-1-0.7-1-0.7l-2.1,2.8c0,0,0.5,0.4,1.2,0.9c0.8,0.4,1.7,1.1,2.8,1.5c1.1,0.5,2.1,1,2.9,1.2&#10;&#9;&#9;&#9;&#9;&#9;C487.2,371.4,487.8,371.6,487.8,371.6z" transform="matrix(1, 0, 0, 1, 1.1368683772161603e-13, 2.842170943040401e-14)"/><path fill="#6B1526" d="M501,373.3l0-3.5c0,0-0.5,0-1.3,0c-0.8,0-1.8-0.1-2.9-0.1c-1,0-2.1-0.2-2.8-0.3&#10;&#9;&#9;&#9;&#9;&#9;c-0.8-0.1-1.3-0.2-1.3-0.2l-0.6,3.5c0,0,0.6,0.1,1.4,0.2c0.8,0.1,1.9,0.3,3.1,0.3c1.1,0.1,2.2,0.2,3.1,0.2&#10;&#9;&#9;&#9;&#9;&#9;C500.4,373.3,501,373.3,501,373.3z" transform="matrix(1, 0, 0, 1, 1.1368683772161603e-13, 2.842170943040401e-14)"/><g transform="matrix(1, 0, 0, 1, 5.684341886080802e-14, 1.4210854715202004e-14)">
			<g>
				<path fill="#6B1526" d="M349.9,369.7l1.9-3c0,0-1.8-1.1-3.5-2.4c-1.7-1.2-3.4-2.5-3.4-2.5l-2.2,2.7c0,0,1.8,1.4,3.5,2.6&#10;&#9;&#9;&#9;&#9;&#9;C348,368.5,349.9,369.7,349.9,369.7z"/>
			</g>
			<g>
				<path fill="#6B1526" d="M361.2,376.1l1.5-3.2c0,0-1.9-0.9-3.8-1.9c-1.9-1-3.7-2.1-3.7-2.1l-1.8,3c0,0,1.9,1.1,3.8,2.2&#10;&#9;&#9;&#9;&#9;&#9;C359.2,375.1,361.2,376.1,361.2,376.1z"/>
			</g>
			<g>
				<path fill="#6B1526" d="M373.4,380.9l1-3.4c0,0-2-0.6-4-1.4c-2-0.7-3.9-1.6-3.9-1.6l-1.4,3.2c0,0,2,0.9,4.1,1.6&#10;&#9;&#9;&#9;&#9;&#9;C371.3,380.3,373.4,380.9,373.4,380.9z"/>
			</g>
			<g>
				<path fill="#6B1526" d="M386.3,383.6l0.3-3.5c0,0-2.1-0.2-4.1-0.6c-2.1-0.3-4.1-0.9-4.1-0.9l-0.8,3.4c0,0,2.1,0.5,4.3,0.9&#10;&#9;&#9;&#9;&#9;&#9;C384.1,383.4,386.3,383.6,386.3,383.6z"/>
			</g>
			<g>
				<path fill="#6B1526" d="M399.6,383.2l-0.7-3.5c0,0-0.5,0.1-1.3,0.2c-0.8,0.1-1.8,0.2-2.8,0.3c-1,0.1-2.1,0.1-2.9,0.1&#10;&#9;&#9;&#9;&#9;&#9;c-0.8,0-1.3,0-1.3,0l0,3.5c0,0,0.6,0,1.4,0c0.8,0,2-0.1,3.1-0.1c1.1-0.1,2.2-0.2,3.1-0.3C399,383.3,399.6,383.2,399.6,383.2z"/>
			</g>
			<g>
				<path fill="#6B1526" d="M412.1,378.8l-1.6-3.2c0,0-1.8,1-3.7,1.8c-1.9,0.8-3.9,1.4-3.9,1.4l1,3.4c0,0,2.2-0.6,4.2-1.5&#10;&#9;&#9;&#9;&#9;&#9;C410.1,379.9,412.1,378.8,412.1,378.8z"/>
			</g>
			<g>
				<path fill="#6B1526" d="M423.1,371.4l-2.3-2.7c0,0-1.6,1.4-3.3,2.6c-0.8,0.6-1.7,1.2-2.4,1.6c-0.7,0.4-1.1,0.7-1.1,0.7l1.8,3&#10;&#9;&#9;&#9;&#9;&#9;c0,0,0.5-0.3,1.2-0.8c0.7-0.5,1.6-1.1,2.5-1.7C421.4,372.9,423.1,371.4,423.1,371.4z"/>
			</g>
		</g><path fill="#EAB6B6" d="M288.5,489.8c0,0,0.9,1.3,2.5,3.7c1.5,2.3,3.9,5.6,6.6,9.6c2.7,4,6,8.5,9.5,13.3c3.5,4.9,7.4,10,11.4,15&#10;&#9;&#9;&#9;c1.9,2.6,4,5,6,7.4c2,2.4,4.1,4.7,6,7c2,2.2,4,4.4,5.8,6.4c1.9,2,3.7,3.8,5.4,5.5c1.7,1.7,3.4,3.1,4.8,4.5&#10;&#9;&#9;&#9;c1.4,1.4,2.8,2.4,3.8,3.3c2.2,1.8,3.4,2.8,3.4,2.8s-1.3-0.9-3.6-2.5c-1.2-0.8-2.6-1.7-4.1-3c-1.5-1.2-3.3-2.6-5.1-4.2&#10;&#9;&#9;&#9;c-1.8-1.6-3.7-3.4-5.7-5.3c-1.9-2-4-4-6.1-6.2c-2-2.3-4.1-4.6-6.1-7c-2-2.4-4.1-4.9-6.1-7.4c-4-5.1-7.8-10.2-11.2-15.2&#10;&#9;&#9;&#9;c-1.8-2.4-3.3-4.9-4.9-7.2c-1.5-2.3-2.9-4.5-4.2-6.5c-2.6-4.1-4.6-7.6-6-10C289.2,491.2,288.5,489.8,288.5,489.8z" transform="matrix(1, 0, 0, 1, 5.684341886080802e-14, 1.4210854715202004e-14)"/></svg>