<?xml version="1.0" encoding="utf-8"?>
<svg id="master-artboard" viewBox="0 0 1500 1500" version="1.1" xmlns="http://www.w3.org/2000/svg" x="0px" y="0px" width="1500px" height="1500px" enable-background="new 0 0 1500 1500">

<g transform="matrix(1, 0, 0, 1, 5.684341886080802e-14, 1.4210854715202004e-14)">
			<path fill="#772B3F" d="M327.4,352.6c3.6,3.4,4.6,8.2,2.3,10.6c-2.3,2.4-7.1,1.6-10.7-1.9c-3.6-3.4-4.6-8.2-2.3-10.6&#10;&#9;&#9;&#9;&#9;C319,348.4,323.8,349.2,327.4,352.6z"/>
			<path fill="#6B1526" d="M326.2,364.9c-0.4,0-0.9,0-1.3-0.1c-2.1-0.4-4.2-1.5-6-3.2c-1.8-1.7-3-3.8-3.5-5.8&#10;&#9;&#9;&#9;&#9;c-0.5-2.1-0.1-3.9,1.1-5.1c2.4-2.5,7.3-1.7,11,1.9l0,0c1.8,1.7,3,3.8,3.5,5.8c0.5,2.1,0.1,3.9-1.1,5.1&#10;&#9;&#9;&#9;&#9;C329,364.4,327.7,364.9,326.2,364.9z M320.3,349.7c-1.3,0-2.5,0.4-3.4,1.3c-1.1,1.1-1.4,2.8-1,4.7c0.4,2,1.6,3.9,3.3,5.5&#10;&#9;&#9;&#9;&#9;c1.7,1.6,3.7,2.7,5.7,3.1c1.9,0.3,3.6-0.1,4.6-1.2c1.1-1.1,1.4-2.8,1-4.7c-0.4-2-1.6-3.9-3.3-5.6l0,0&#10;&#9;&#9;&#9;&#9;C325,350.8,322.5,349.7,320.3,349.7z"/>
		</g><path fill="#8C3A4D" d="M323.1,350c-0.4,0.2-0.8,0.5-1.2,0.8c-2.3,2.4-1.3,7.1,2.3,10.6c1.3,1.3,2.8,2.2,4.2,2.7&#10;&#9;&#9;&#9;&#9;c0.4-0.2,0.8-0.5,1.2-0.8c2.3-2.4,1.3-7.1-2.3-10.6C326.1,351.4,324.6,350.5,323.1,350z" transform="matrix(1, 0, 0, 1, 8.526512829121202e-14, 2.1316282072803006e-14)"/><path fill="#6B1526" d="M328.6,364.3l-0.1,0c-1.5-0.6-3-1.5-4.3-2.7c-1.8-1.7-3-3.8-3.5-5.8c-0.5-2.1-0.1-3.9,1.1-5.1&#10;&#9;&#9;&#9;&#9;c0.3-0.3,0.7-0.6,1.2-0.9l0.1,0l0.1,0c1.5,0.6,3,1.5,4.3,2.7c1.8,1.7,3,3.8,3.5,5.8c0.5,2.1,0.1,3.9-1.1,5.1&#10;&#9;&#9;&#9;&#9;C329.6,363.7,329.2,364,328.6,364.3L328.6,364.3z M323.1,350.2c-0.4,0.2-0.7,0.5-1,0.7c-1.1,1.1-1.4,2.8-1,4.7&#10;&#9;&#9;&#9;&#9;c0.4,2,1.6,3.9,3.3,5.5c1.2,1.2,2.6,2.1,4.1,2.6c0.4-0.2,0.7-0.5,1-0.7c1.1-1.1,1.4-2.8,1-4.7c-0.4-2-1.6-3.9-3.3-5.6&#10;&#9;&#9;&#9;&#9;C326,351.7,324.6,350.8,323.1,350.2z" transform="matrix(1, 0, 0, 1, 8.526512829121202e-14, 2.1316282072803006e-14)"/><path fill="#772B3F" d="M321.9,346.1c3.6,3.5,4.3,8.6,1.6,11.4c-2.7,2.9-7.9,2.4-11.5-1.1c-3.6-3.5-4.3-8.6-1.6-11.4&#10;&#9;&#9;&#9;&#9;C313.1,342.2,318.3,342.7,321.9,346.1z" transform="matrix(1, 0, 0, 1, 8.526512829121202e-14, 2.1316282072803006e-14)"/><path fill="#6B1526" d="M318.9,359.6c-2.4,0-4.9-1-7-3c-1.8-1.7-2.9-3.9-3.3-6.1c-0.3-2.2,0.3-4.3,1.6-5.7&#10;&#9;&#9;&#9;&#9;c2.8-2.9,8.1-2.5,11.8,1.1l0,0c1.8,1.7,2.9,3.9,3.3,6.1c0.3,2.2-0.3,4.3-1.6,5.7C322.4,359,320.7,359.6,318.9,359.6z&#10;&#9;&#9;&#9;&#9; M315.1,343.4c-1.7,0-3.3,0.6-4.5,1.8c-1.3,1.3-1.8,3.2-1.5,5.3c0.3,2.1,1.4,4.2,3.1,5.8c3.5,3.4,8.5,3.8,11.1,1.1&#10;&#9;&#9;&#9;&#9;c1.3-1.3,1.8-3.2,1.5-5.3c-0.3-2.1-1.4-4.2-3.1-5.8l0,0C319.7,344.4,317.3,343.4,315.1,343.4z" transform="matrix(1, 0, 0, 1, 8.526512829121202e-14, 2.1316282072803006e-14)"/><path fill="#8C3A4D" d="M321.9,346.1c-2.1-2-4.7-3-7.1-2.9c-0.2,0.1-0.4,0.3-0.5,0.4c-2.7,2.9-2,8,1.6,11.4c2.1,2,4.7,3,7.1,2.9&#10;&#9;&#9;&#9;&#9;c0.2-0.1,0.4-0.3,0.5-0.4C326.2,354.7,325.5,349.6,321.9,346.1z" transform="matrix(1, 0, 0, 1, 8.526512829121202e-14, 2.1316282072803006e-14)"/><path fill="#6B1526" d="M322.7,358.2c-2.5,0-5-1.1-7-3c-1.8-1.7-2.9-3.9-3.3-6.1c-0.3-2.2,0.3-4.3,1.6-5.7&#10;&#9;&#9;&#9;&#9;c0.1-0.1,0.2-0.2,0.4-0.3c0.1,0,0.1-0.1,0.2-0.1l0.1-0.1l0.1,0c2.5-0.1,5.2,1,7.3,3l0,0c1.8,1.7,2.9,3.9,3.3,6.1&#10;&#9;&#9;&#9;&#9;c0.3,2.2-0.3,4.3-1.6,5.7c-0.1,0.1-0.3,0.2-0.4,0.3c-0.1,0-0.1,0.1-0.2,0.1l-0.1,0.1l-0.1,0C322.9,358.2,322.8,358.2,322.7,358.2&#10;&#9;&#9;&#9;&#9;z M314.9,343.5c0,0-0.1,0.1-0.1,0.1c-0.1,0.1-0.2,0.2-0.3,0.3c-1.3,1.3-1.8,3.2-1.5,5.3c0.3,2.1,1.4,4.2,3.1,5.8&#10;&#9;&#9;&#9;&#9;c1.9,1.8,4.3,2.8,6.7,2.8c0.1,0,0.1,0,0.2,0c0,0,0.1-0.1,0.1-0.1c0.1-0.1,0.2-0.2,0.3-0.3c1.3-1.3,1.8-3.2,1.5-5.3&#10;&#9;&#9;&#9;&#9;c-0.3-2.1-1.4-4.2-3.1-5.8l0,0c-1.9-1.8-4.3-2.8-6.7-2.8C315,343.5,315,343.5,314.9,343.5z" transform="matrix(1, 0, 0, 1, 8.526512829121202e-14, 2.1316282072803006e-14)"/><g transform="matrix(1, 0, 0, 1, 8.526512829121202e-14, 2.1316282072803006e-14)">
				<path fill="#D9DADF" d="M301.2,338.5c0,0,29.8-22.9,35.7-24.1c5.9-1.2-1.9,7.5-5.3,12.8c-3.4,5.4-10.5,13.1-13.1,14&#10;&#9;&#9;&#9;&#9;&#9;c-2.6,0.8-2.7-0.7-6,0.3c-3.3,1-6.8,0.1-7.8-0.6C303.7,340.3,297.5,341.4,301.2,338.5z"/>
				<path fill="#6B1526" d="M309.4,342.1c-2.2,0-4.1-0.6-4.8-1c-0.3-0.2-1.1-0.2-1.9-0.2c-1.4,0-2.7-0.1-2.9-0.8&#10;&#9;&#9;&#9;&#9;&#9;c-0.1-0.5,0.2-1,1.3-1.8c1.2-0.9,29.9-23,35.8-24.2c1.2-0.3,1.9-0.1,2.3,0.4c0.9,1.3-1.7,4.9-4.5,8.8c-1,1.4-2,2.8-2.8,4.1&#10;&#9;&#9;&#9;&#9;&#9;c-3.3,5.3-10.5,13.2-13.3,14.1c-1.3,0.4-2,0.3-2.8,0.1c-0.8-0.2-1.6-0.3-3.2,0.2C311.5,342,310.4,342.1,309.4,342.1z&#10;&#9;&#9;&#9;&#9;&#9; M337.9,314.5c-0.3,0-0.6,0.1-0.9,0.1c-5.8,1.2-35.3,23.9-35.6,24.1l0,0c-1.1,0.9-1.1,1.2-1.1,1.2c0.1,0.3,1.6,0.4,2.4,0.4&#10;&#9;&#9;&#9;&#9;&#9;c0.9,0,1.7,0.1,2.1,0.3c1,0.6,4.4,1.5,7.6,0.5c1.8-0.5,2.7-0.3,3.5-0.2c0.7,0.2,1.3,0.3,2.5-0.1c2.4-0.8,9.5-8.3,13-13.8&#10;&#9;&#9;&#9;&#9;&#9;c0.8-1.2,1.8-2.7,2.8-4.1c2.3-3.2,5.1-7.1,4.4-8.2C338.5,314.6,338.2,314.5,337.9,314.5z"/>
			</g><path fill="#6B1526" d="M330.9,328.3c0,0-0.4-0.1-1.1,0c-0.7,0.1-1.7,0.4-2.8,0.8c-2.2,0.8-5,2.5-7.8,4c-2.8,1.5-5.6,3-7.8,4&#10;&#9;&#9;&#9;&#9;&#9;c-2.2,1-3.7,1.4-3.7,1.4c0,0,0.4-0.1,1-0.4c0.6-0.3,1.5-0.7,2.6-1.3c2.1-1.1,4.9-2.6,7.7-4.2c1.4-0.7,2.8-1.5,4.1-2.2&#10;&#9;&#9;&#9;&#9;&#9;c0.7-0.3,1.3-0.7,2-0.9c0.6-0.2,1.2-0.5,1.8-0.7c1.1-0.4,2.1-0.6,2.8-0.6C330.6,328.1,330.9,328.3,330.9,328.3z" transform="matrix(1, 0, 0, 1, 1.1368683772161603e-13, 2.842170943040401e-14)"/><path fill="#6B1526" d="M338.7,314.5c0,0-0.2,0.6-0.8,1.4c-0.3,0.4-0.6,0.9-1.1,1.5c-0.5,0.5-1,1.2-1.7,1.7&#10;&#9;&#9;&#9;&#9;&#9;c-0.6,0.6-1.4,1.2-2.2,1.8c-0.8,0.6-1.7,1.2-2.6,1.8c-1.9,1.2-3.9,2.4-5.8,3.8c-3.9,2.6-7.7,5.3-10.7,7.3&#10;&#9;&#9;&#9;&#9;&#9;c-1.4,1-2.7,1.7-3.6,2.3c-0.9,0.5-1.5,0.7-1.5,0.7s0.5-0.3,1.4-0.8c0.9-0.6,2.1-1.4,3.5-2.4c2.9-2,6.7-4.8,10.5-7.5&#10;&#9;&#9;&#9;&#9;&#9;c2-1.3,4-2.5,5.9-3.7c0.9-0.6,1.9-1.1,2.7-1.7c0.8-0.6,1.6-1.1,2.2-1.8c0.7-0.6,1.2-1.1,1.7-1.6c0.5-0.5,0.9-1,1.2-1.4&#10;&#9;&#9;&#9;&#9;&#9;C338.5,315,338.7,314.5,338.7,314.5z" transform="matrix(1, 0, 0, 1, 1.1368683772161603e-13, 2.842170943040401e-14)"/><path fill="#6B1526" d="M337.6,314.3c0,0-1.8,1.3-4.5,3.3c-0.7,0.5-1.4,1-2.2,1.6c-0.8,0.6-1.6,1.2-2.4,1.8&#10;&#9;&#9;&#9;&#9;&#9;c-1.6,1.4-3.3,2.7-4.9,4.3c-3.4,2.9-6.9,5.7-9.6,7.6c-0.7,0.5-1.3,0.9-1.9,1.2c-0.6,0.3-1.1,0.7-1.5,0.9&#10;&#9;&#9;&#9;&#9;&#9;c-0.9,0.4-1.4,0.7-1.4,0.7s0.5-0.3,1.3-0.7c0.4-0.2,0.9-0.6,1.5-0.9c0.6-0.4,1.2-0.8,1.9-1.3c2.7-1.9,6.2-4.8,9.5-7.8&#10;&#9;&#9;&#9;&#9;&#9;c1.6-1.5,3.4-2.9,5-4.2c0.8-0.7,1.7-1.2,2.4-1.8c0.8-0.6,1.5-1.1,2.2-1.6C335.7,315.5,337.6,314.3,337.6,314.3z" transform="matrix(1, 0, 0, 1, 1.1368683772161603e-13, 2.842170943040401e-14)"/><path fill="#6B1526" d="M329.4,318.3c0,0-1.4,1.3-3.5,3.1c-2.1,1.8-4.9,4.3-7.7,6.7c-1.4,1.2-2.9,2.4-4.2,3.5&#10;&#9;&#9;&#9;&#9;&#9;c-1.3,1.1-2.6,2.2-3.8,2.9c-1.2,0.8-2.4,0.9-3.1,1.4c-0.4,0.2-0.6,0.4-0.8,0.5c-0.2,0.1-0.3,0.2-0.3,0.2s0.1-0.1,0.3-0.2&#10;&#9;&#9;&#9;&#9;&#9;c0.2-0.1,0.4-0.4,0.7-0.6c0.7-0.5,1.8-0.8,3-1.5c1.2-0.7,2.4-1.8,3.7-3c1.3-1.1,2.7-2.4,4.1-3.6c2.9-2.4,5.7-4.8,7.9-6.6&#10;&#9;&#9;&#9;&#9;&#9;C327.9,319.5,329.4,318.3,329.4,318.3z" transform="matrix(1, 0, 0, 1, 1.1368683772161603e-13, 2.842170943040401e-14)"/><path fill="#6B1526" d="M309.2,338.1c0,0,0.6-0.2,1.6-0.3c1-0.2,2.3-0.3,3.6-0.4c1.3-0.1,2.6-0.1,3.6,0.1c0.5,0,0.9,0.2,1.2,0.3&#10;&#9;&#9;&#9;&#9;&#9;c0.3,0.1,0.4,0.1,0.4,0.1s-0.2,0-0.5-0.1c-0.3,0-0.7-0.1-1.2-0.1c-1,0-2.3,0-3.6,0.1c-1.3,0.1-2.6,0.1-3.6,0.2&#10;&#9;&#9;&#9;&#9;&#9;C309.8,338.1,309.2,338.1,309.2,338.1z" transform="matrix(1, 0, 0, 1, 1.1368683772161603e-13, 2.842170943040401e-14)"/><path fill="#6B1526" d="M312,337.8c0,0,0.3,0.3,0.8,0.6c0.5,0.3,1.2,0.8,2,1c0.4,0.2,0.8,0.3,1.1,0.3c0.4,0.1,0.7,0.2,1,0.2&#10;&#9;&#9;&#9;&#9;&#9;c0.6,0.1,1,0.1,1,0.1s-0.4,0.1-1,0.2c-0.3,0-0.7,0-1.1,0c-0.4,0-0.8-0.1-1.2-0.3c-0.4-0.1-0.8-0.4-1.1-0.5&#10;&#9;&#9;&#9;&#9;&#9;c-0.3-0.2-0.6-0.5-0.9-0.7C312.2,338.1,312,337.8,312,337.8z" transform="matrix(1, 0, 0, 1, 1.1368683772161603e-13, 2.842170943040401e-14)"/><path fill="#6B1526" d="M329.9,322.7c0,0-0.4,0.8-1.2,1.9c-0.4,0.5-0.9,1.2-1.5,1.7c-0.6,0.6-1.3,1.2-2,1.8&#10;&#9;&#9;&#9;&#9;&#9;c-0.7,0.6-1.5,1.1-2.2,1.5c-0.7,0.4-1.4,0.8-2,1.1c-1.2,0.5-2.1,0.8-2.1,0.8s0.8-0.5,1.9-1.1c0.6-0.3,1.2-0.7,1.9-1.2&#10;&#9;&#9;&#9;&#9;&#9;c0.7-0.4,1.4-0.9,2.1-1.5c0.7-0.5,1.4-1.1,2-1.7c0.6-0.5,1.1-1.1,1.6-1.6c0.4-0.5,0.8-0.9,1-1.2&#10;&#9;&#9;&#9;&#9;&#9;C329.8,322.9,329.9,322.7,329.9,322.7z" transform="matrix(1, 0, 0, 1, 1.1368683772161603e-13, 2.842170943040401e-14)"/><path fill="#662338" d="M301.2,348.6c0,0-6.6,3.6-7.5,4.3c-0.9,0.7,1.1,2.9,2.7,5.9c1.7,3,3.7,6.4,3.7,6.6c0,0.3,3.8,0.1,4.7-0.6&#10;&#9;&#9;&#9;&#9;c0.9-0.6-2.9,0.3-3.7,0c-0.8-0.3-0.6-1.1-2.6-4.5c-2-3.3-4.7-6.4-4.5-6.7c0.2-0.3,3.5-1.1,5.9-3&#10;&#9;&#9;&#9;&#9;C302.5,348.8,301.8,348.6,301.2,348.6z" transform="matrix(1, 0, 0, 1, 8.526512829121202e-14, 2.1316282072803006e-14)"/><path fill="#6B1526" d="M301,365.7c-0.4,0-0.7,0-0.8-0.1c-0.2-0.1-0.2-0.2-0.2-0.2c-0.1-0.2-0.9-1.7-1.7-3.1&#10;&#9;&#9;&#9;&#9;c-0.6-1.1-1.3-2.3-2-3.4c-0.5-0.9-1-1.6-1.4-2.4c-1.2-1.9-2-3.2-1.2-3.8c0.9-0.7,7.2-4.1,7.5-4.3l0.1,0l0.1,0&#10;&#9;&#9;&#9;&#9;c0.2,0,0.7,0.1,0.8,0.4c0.1,0.3-0.1,0.8-1.8,2.1c-1.7,1.3-3.7,2.1-4.9,2.5c-0.3,0.1-0.7,0.3-0.9,0.3c0.1,0.3,0.7,1,1.2,1.8&#10;&#9;&#9;&#9;&#9;c0.9,1.2,2.1,2.9,3.2,4.7c0.9,1.5,1.4,2.5,1.7,3.2c0.4,0.8,0.5,1,0.8,1.1c0.3,0.1,1.4,0,2.2-0.1c1.4-0.2,1.7-0.2,1.9,0.1&#10;&#9;&#9;&#9;&#9;c0.1,0.2-0.1,0.4-0.2,0.5C304.3,365.5,302.2,365.7,301,365.7z M300.4,365.3C300.4,365.3,300.4,365.3,300.4,365.3&#10;&#9;&#9;&#9;&#9;C300.4,365.3,300.4,365.3,300.4,365.3z M300.4,365.2c0.4,0.1,2.5,0,3.7-0.3c-0.2,0-0.5,0-0.7,0.1c-1.2,0.1-2,0.2-2.4,0.1&#10;&#9;&#9;&#9;&#9;c-0.5-0.2-0.7-0.6-1.1-1.4c-0.3-0.7-0.7-1.7-1.6-3.2c-1-1.7-2.3-3.4-3.1-4.6c-1.3-1.7-1.5-2-1.3-2.3c0.1-0.2,0.4-0.3,1.2-0.6&#10;&#9;&#9;&#9;&#9;c1.2-0.5,3.2-1.2,4.8-2.5c1.6-1.2,1.6-1.6,1.6-1.6c0,0-0.1,0-0.3,0c-0.7,0.4-6.5,3.6-7.4,4.2c-0.4,0.3,0.4,1.7,1.4,3.2&#10;&#9;&#9;&#9;&#9;c0.5,0.7,1,1.5,1.4,2.4c0.6,1.2,1.4,2.4,2,3.4C299.8,364.1,300.3,364.9,300.4,365.2z" transform="matrix(1, 0, 0, 1, 8.526512829121202e-14, 2.1316282072803006e-14)"/><path fill="#662338" d="M304.5,352.7c0,0-0.8,4.4,1.3,6.9c2.1,2.5,11.4,10.4,11.7,11.1c0.3,0.7,0.3,4-0.6,5.6&#10;&#9;&#9;&#9;&#9;c-0.8,1.7,2.3-3.3,1.4-5.6c-0.8-2.3-9.4-9.5-11-12C305.9,356.3,306.3,351.6,304.5,352.7z" transform="matrix(1, 0, 0, 1, 8.526512829121202e-14, 2.1316282072803006e-14)"/><path fill="#6B1526" d="M316.9,377l-0.2-0.1c-0.2-0.1-0.1-0.3,0.1-0.6c0.8-1.6,0.9-4.8,0.6-5.4c-0.2-0.3-2.3-2.2-4.3-4&#10;&#9;&#9;&#9;&#9;c-2.9-2.6-6.2-5.6-7.4-7c-2.2-2.6-1.4-6.9-1.4-7.1l0-0.1l0.1-0.1c0.3-0.2,0.6-0.2,0.9-0.1c0.6,0.3,0.9,1.3,1.2,2.7&#10;&#9;&#9;&#9;&#9;c0.3,1.2,0.6,2.6,1.2,3.6c0.7,1.1,2.7,3,4.8,5.1c2.8,2.7,5.7,5.6,6.2,6.9c0.8,2.1-1.4,6-1.7,6.2L316.9,377z M304.8,352.9&#10;&#9;&#9;&#9;&#9;c-0.1,0.7-0.5,4.4,1.3,6.6c1.2,1.4,4.6,4.5,7.3,6.9c3,2.7,4.3,3.9,4.4,4.2c0.2,0.4,0.3,1.8,0.1,3.2c0.3-1,0.6-2.2,0.3-2.9&#10;&#9;&#9;&#9;&#9;c-0.5-1.2-3.4-4.1-6.1-6.7c-2.1-2.1-4.2-4.1-4.9-5.2c-0.7-1.1-1-2.5-1.3-3.8c-0.2-1.1-0.5-2.2-0.9-2.3&#10;&#9;&#9;&#9;&#9;C305.1,352.8,305,352.8,304.8,352.9z" transform="matrix(1, 0, 0, 1, 8.526512829121202e-14, 2.1316282072803006e-14)"/><path fill="#6B1526" d="M308.6,356c-2.2,0-4.4-0.5-6.6-1.6c-3.1-1.5-5.6-3.9-7-6.8c-1.4-2.9-1.4-5.9-0.2-8.5&#10;&#9;&#9;&#9;&#9;c1.2-2.6,3.6-4.4,6.7-5.1c3.1-0.7,6.5-0.3,9.7,1.2c6.5,3.1,9.7,10,7.1,15.3l0,0C316.7,354.1,312.9,356,308.6,356z M304.6,334.2&#10;&#9;&#9;&#9;&#9;c-1,0-2,0.1-2.9,0.3c-3,0.7-5.2,2.4-6.4,4.9c-1.2,2.4-1.1,5.3,0.2,8c1.3,2.8,3.7,5.1,6.7,6.6c6.2,3,13.3,1.4,15.7-3.7l0,0&#10;&#9;&#9;&#9;&#9;c2.4-5-0.7-11.6-6.9-14.6C309,334.7,306.8,334.2,304.6,334.2z" transform="matrix(1, 0, 0, 1, 8.526512829121202e-14, 2.1316282072803006e-14)"/><path fill="#6B1526" d="M313.8,353.7c-3,0-6.3-0.8-9.4-2.3c-5-2.4-8.8-6.3-10.1-10.4l0-0.1l0-0.1c0.2-0.6,0.3-1.1,0.6-1.6&#10;&#9;&#9;&#9;&#9;c1.2-2.6,3.6-4.4,6.7-5.1c3.1-0.7,6.5-0.3,9.7,1.2c6.5,3.1,9.7,10,7.1,15.3l0,0c-0.5,1.1-1.3,2.1-2.3,2.9l-0.1,0l-0.1,0&#10;&#9;&#9;&#9;&#9;C315.3,353.6,314.6,353.7,313.8,353.7z M294.8,340.9c1.3,4,5,7.7,9.8,10.1c3.7,1.8,7.7,2.6,11.2,2.1c0.9-0.8,1.6-1.7,2.1-2.7l0,0&#10;&#9;&#9;&#9;&#9;c2.4-5-0.7-11.6-6.9-14.6c-3-1.5-6.3-1.9-9.3-1.2c-3,0.7-5.2,2.4-6.4,4.9C295.1,339.8,294.9,340.3,294.8,340.9z" transform="matrix(1, 0, 0, 1, 8.526512829121202e-14, 2.1316282072803006e-14)"/><path fill="#8C3A4D" d="M301.9,337.6c-1.7,4-7.2,5.5-12.2,3.3c-5-2.1-7.7-7.1-6-11.1c1.7-4,7.2-5.5,12.2-3.3&#10;&#9;&#9;&#9;&#9;C300.9,328.7,303.6,333.6,301.9,337.6z" transform="matrix(1, 0, 0, 1, 8.526512829121202e-14, 2.1316282072803006e-14)"/><path fill="#6B1526" d="M294.3,342.2c-1.6,0-3.2-0.3-4.8-1c-2.5-1.1-4.5-2.8-5.6-5c-1.2-2.2-1.3-4.5-0.5-6.5&#10;&#9;&#9;&#9;&#9;c1.8-4.1,7.4-5.7,12.5-3.5c5.1,2.2,7.9,7.3,6.1,11.4l0,0c-0.9,2-2.6,3.5-5,4.1C296.2,342.1,295.3,342.2,294.3,342.2z&#10;&#9;&#9;&#9;&#9; M291.2,325.8c-3.3,0-6.2,1.5-7.3,4.2c-0.8,1.9-0.6,4,0.5,6c1.1,2.1,3,3.7,5.4,4.8c2.4,1,4.9,1.2,7.2,0.6c2.2-0.6,3.9-2,4.7-3.8&#10;&#9;&#9;&#9;&#9;l0,0c1.7-3.9-1-8.7-5.9-10.8C294.3,326.1,292.7,325.8,291.2,325.8z" transform="matrix(1, 0, 0, 1, 8.526512829121202e-14, 2.1316282072803006e-14)"/><path fill="#8C3A4D" d="M278.8,337.7c0,0,5.7-2.1,6.8-4c1.2-1.8,1.2,0,1.2,0l0.7,0.9c0,0-3,6.4-3.3,8.2" transform="matrix(1, 0, 0, 1, 8.526512829121202e-14, 2.1316282072803006e-14)"/><path fill="#6B1526" d="M284.5,342.9l-0.5-0.1c0.2-1.6,2.8-7.2,3.3-8.1l-0.6-0.8l0-0.1c0-0.2-0.1-0.5-0.2-0.6c0,0-0.2,0-0.6,0.7&#10;&#9;&#9;&#9;&#9;c-1.2,1.9-6.7,4-7,4.1l-0.2-0.5c0.1,0,5.6-2.1,6.7-3.9c0.5-0.7,0.8-1,1.2-0.9c0.4,0.1,0.5,0.7,0.5,1l0.7,1l-0.1,0.1&#10;&#9;&#9;&#9;&#9;C287.7,334.8,284.7,341.2,284.5,342.9z" transform="matrix(1, 0, 0, 1, 8.526512829121202e-14, 2.1316282072803006e-14)"/><path fill="#772B3F" d="M282.4,339c1.6,1.3,2.4,3,1.8,3.8c-0.6,0.7-2.4,0.3-4.1-1.1c-1.6-1.3-2.4-3-1.8-3.8&#10;&#9;&#9;&#9;&#9;C279,337.2,280.8,337.7,282.4,339z" transform="matrix(1, 0, 0, 1, 8.526512829121202e-14, 2.1316282072803006e-14)"/><path fill="#6B1526" d="M283.3,343.4c-0.9,0-2.1-0.5-3.3-1.5c-0.8-0.7-1.4-1.5-1.8-2.2c-0.4-0.8-0.4-1.5,0-1.9&#10;&#9;&#9;&#9;&#9;c0.7-0.9,2.7-0.4,4.4,1l0,0c1.7,1.5,2.6,3.3,1.8,4.1C284.2,343.3,283.8,343.4,283.3,343.4z M279.3,337.9c-0.3,0-0.6,0.1-0.7,0.3&#10;&#9;&#9;&#9;&#9;c-0.2,0.3-0.2,0.8,0.1,1.4c0.3,0.7,0.9,1.4,1.7,2c1.6,1.3,3.2,1.7,3.7,1.1c0.5-0.5-0.2-2.1-1.8-3.4l0,0&#10;&#9;&#9;&#9;&#9;C281.1,338.3,280,337.9,279.3,337.9z" transform="matrix(1, 0, 0, 1, 8.526512829121202e-14, 2.1316282072803006e-14)"/><path fill="#FFFFFF" d="M288.6,329.7c0,2.3-1.9,4.2-4.2,4.2c-2.3,0-4.2-1.9-4.2-4.2c0-2.3,1.9-4.2,4.2-4.2&#10;&#9;&#9;&#9;&#9;C286.7,325.5,288.6,327.4,288.6,329.7z" transform="matrix(1, 0, 0, 1, 8.526512829121202e-14, 2.1316282072803006e-14)"/><path fill="#6B1526" d="M284.4,334.2c-2.4,0-4.4-2-4.4-4.4s2-4.4,4.4-4.4s4.4,2,4.4,4.4S286.9,334.2,284.4,334.2z M284.4,325.8&#10;&#9;&#9;&#9;&#9;c-2.2,0-3.9,1.8-3.9,3.9c0,2.2,1.8,3.9,3.9,3.9c2.2,0,3.9-1.8,3.9-3.9C288.4,327.5,286.6,325.8,284.4,325.8z" transform="matrix(1, 0, 0, 1, 8.526512829121202e-14, 2.1316282072803006e-14)"/><path fill="#FFFFFF" d="M295.5,331.4c0,2.6-2.1,4.6-4.6,4.6c-2.6,0-4.6-2.1-4.6-4.6c0-2.6,2.1-4.6,4.6-4.6&#10;&#9;&#9;&#9;&#9;C293.4,326.8,295.5,328.9,295.5,331.4z" transform="matrix(1, 0, 0, 1, 8.526512829121202e-14, 2.1316282072803006e-14)"/><g transform="matrix(1, 0, 0, 1, 8.526512829121202e-14, 2.1316282072803006e-14)">
				<path fill="#D9DADF" d="M309.7,336.6c0,0,37.4-14.6,43.7-13.9c6.3,0.7-4.3,7.5-9.5,12.2c-5.1,4.7-14.9,10.7-17.7,10.7&#10;&#9;&#9;&#9;&#9;&#9;c-2.9,0-2.5-1.7-6.1-1.8c-3.6-0.1-6.8-2.3-7.7-3.3C311.7,339.3,305.1,338.4,309.7,336.6z"/>
				<path fill="#6B1526" d="M326.3,345.8c-1.4,0-2.1-0.4-2.8-0.9c-0.7-0.5-1.5-0.9-3.3-1c-3.6-0.1-7-2.3-7.9-3.4&#10;&#9;&#9;&#9;&#9;&#9;c-0.2-0.3-1.1-0.6-1.8-0.9c-1.4-0.5-2.7-1-2.7-1.8c0-0.5,0.6-1,1.8-1.5c1.6-0.6,37.5-14.6,43.8-13.9c1.2,0.1,1.9,0.5,2.1,1.2&#10;&#9;&#9;&#9;&#9;&#9;c0.5,1.7-3.3,4.8-7.3,8c-1.5,1.2-3,2.4-4.2,3.5C339.1,339.7,329.3,345.8,326.3,345.8z M352.9,322.9c-7.5,0-42.7,13.8-43.1,13.9&#10;&#9;&#9;&#9;&#9;&#9;l0,0c-1.4,0.5-1.5,0.9-1.5,1c0,0.4,1.4,1,2.3,1.4c0.9,0.4,1.7,0.7,2,1.1c0.8,1.1,4,3.2,7.5,3.3c1.9,0,2.8,0.6,3.5,1&#10;&#9;&#9;&#9;&#9;&#9;c0.7,0.4,1.3,0.8,2.6,0.8c2.7,0,12.2-5.7,17.6-10.6c1.2-1.1,2.7-2.3,4.2-3.5c3.5-2.8,7.5-6.1,7.1-7.5c-0.1-0.4-0.7-0.7-1.7-0.8&#10;&#9;&#9;&#9;&#9;&#9;C353.3,322.9,353.1,322.9,352.9,322.9z"/>
			</g><path fill="#6B1526" d="M343,335.8c0,0-0.4-0.3-1.1-0.4c-0.7-0.2-1.8-0.2-3-0.1c-2.5,0.1-5.8,1-9.1,1.7&#10;&#9;&#9;&#9;&#9;&#9;c-3.3,0.7-6.7,1.3-9.2,1.6c-1.3,0.2-2.3,0.2-3.1,0.3c-0.7,0-1.2,0-1.2,0s0.4,0,1.2-0.1c0.7-0.1,1.8-0.3,3-0.5&#10;&#9;&#9;&#9;&#9;&#9;c2.5-0.5,5.8-1.1,9.1-1.8c1.7-0.3,3.3-0.7,4.9-1c0.8-0.1,1.5-0.3,2.3-0.3c0.7,0,1.4-0.2,2.1-0.1c1.3,0,2.4,0.1,3.1,0.3&#10;&#9;&#9;&#9;&#9;&#9;C342.7,335.5,343,335.8,343,335.8z" transform="matrix(1, 0, 0, 1, 1.1368683772161603e-13, 2.842170943040401e-14)"/><path fill="#6B1526" d="M355.2,323.4c0,0-0.4,0.5-1.2,1.2c-0.4,0.3-0.9,0.8-1.6,1.2c-0.6,0.4-1.4,0.9-2.2,1.3&#10;&#9;&#9;&#9;&#9;&#9;c-0.8,0.5-1.8,0.8-2.8,1.2c-1,0.4-2.1,0.7-3.3,1c-2.3,0.6-4.7,1.3-7.1,2.1c-4.8,1.5-9.5,3.1-13.1,4.3c-1.8,0.6-3.3,1-4.4,1.2&#10;&#9;&#9;&#9;&#9;&#9;c-1.1,0.2-1.7,0.3-1.7,0.3s0.6-0.1,1.7-0.4c1.1-0.3,2.5-0.8,4.3-1.4c3.6-1.2,8.3-2.9,13.1-4.5c2.4-0.8,4.8-1.4,7.1-2&#10;&#9;&#9;&#9;&#9;&#9;c1.1-0.3,2.2-0.5,3.2-1c1-0.4,2-0.7,2.8-1.1c0.9-0.4,1.6-0.8,2.3-1.2c0.7-0.4,1.2-0.8,1.6-1.1&#10;&#9;&#9;&#9;&#9;&#9;C354.9,323.9,355.2,323.4,355.2,323.4z" transform="matrix(1, 0, 0, 1, 1.1368683772161603e-13, 2.842170943040401e-14)"/><path fill="#6B1526" d="M354.2,322.8c0,0-2.3,0.8-5.6,2c-0.8,0.3-1.7,0.7-2.7,1c-1,0.4-2,0.7-3,1.2c-2,0.9-4.2,1.8-6.3,2.9&#10;&#9;&#9;&#9;&#9;&#9;c-4.3,2-8.7,3.9-12.2,5c-0.8,0.3-1.6,0.5-2.3,0.7c-0.7,0.2-1.3,0.4-1.8,0.4c-1,0.2-1.6,0.3-1.6,0.3s0.6-0.1,1.6-0.3&#10;&#9;&#9;&#9;&#9;&#9;c0.5-0.1,1.1-0.3,1.8-0.5c0.7-0.2,1.5-0.5,2.3-0.8c3.4-1.2,7.7-3.1,12-5.2c2.1-1.1,4.4-2,6.4-2.8c1-0.4,2.1-0.8,3-1.1&#10;&#9;&#9;&#9;&#9;&#9;c1-0.3,1.9-0.7,2.7-1C351.9,323.5,354.2,322.8,354.2,322.8z" transform="matrix(1, 0, 0, 1, 1.1368683772161603e-13, 2.842170943040401e-14)"/><path fill="#6B1526" d="M344.7,324.4c0,0-1.8,0.9-4.5,2.2c-2.7,1.3-6.3,2.9-10,4.6c-1.8,0.8-3.7,1.6-5.4,2.4&#10;&#9;&#9;&#9;&#9;&#9;c-1.7,0.8-3.3,1.5-4.8,1.9c-1.5,0.4-2.8,0.2-3.6,0.4c-0.4,0.1-0.7,0.2-1,0.3c-0.2,0.1-0.3,0.1-0.3,0.1s0.1-0.1,0.3-0.2&#10;&#9;&#9;&#9;&#9;&#9;c0.2-0.1,0.5-0.3,0.9-0.4c0.9-0.3,2.1-0.2,3.5-0.6c1.4-0.4,3-1.2,4.7-2c1.7-0.8,3.5-1.6,5.3-2.5c3.7-1.6,7.3-3.2,10-4.4&#10;&#9;&#9;&#9;&#9;&#9;C342.8,325.1,344.7,324.4,344.7,324.4z" transform="matrix(1, 0, 0, 1, 1.1368683772161603e-13, 2.842170943040401e-14)"/><path fill="#6B1526" d="M317.9,338.9c0,0,0.7,0.1,1.7,0.2c1,0.2,2.4,0.5,3.8,0.8c0.7,0.2,1.3,0.4,2,0.6c0.6,0.2,1.2,0.5,1.7,0.7&#10;&#9;&#9;&#9;&#9;&#9;c0.5,0.2,0.8,0.5,1.1,0.7c0.2,0.2,0.4,0.3,0.4,0.3s-0.2-0.1-0.4-0.2c-0.3-0.1-0.6-0.4-1.1-0.5c-1-0.4-2.3-0.8-3.6-1.1&#10;&#9;&#9;&#9;&#9;&#9;c-1.3-0.4-2.7-0.7-3.7-1C318.6,339.1,317.9,338.9,317.9,338.9z" transform="matrix(1, 0, 0, 1, 1.1368683772161603e-13, 2.842170943040401e-14)"/><path fill="#6B1526" d="M320.8,339.5c0,0,0.2,0.4,0.6,1c0.2,0.3,0.4,0.6,0.7,0.9c0.3,0.3,0.6,0.6,0.9,0.9c0.3,0.3,0.7,0.6,1,0.8&#10;&#9;&#9;&#9;&#9;&#9;c0.2,0.1,0.3,0.2,0.5,0.3c0.2,0.1,0.3,0.2,0.5,0.2c0.6,0.3,1,0.5,1,0.5s-0.4-0.1-1.1-0.2c-0.3-0.1-0.7-0.2-1.1-0.4&#10;&#9;&#9;&#9;&#9;&#9;c-0.4-0.2-0.8-0.5-1.2-0.8c-0.4-0.3-0.7-0.7-1-1c-0.2-0.2-0.2-0.4-0.3-0.5c-0.1-0.2-0.2-0.3-0.3-0.5&#10;&#9;&#9;&#9;&#9;&#9;C320.9,340,320.8,339.5,320.8,339.5z" transform="matrix(1, 0, 0, 1, 1.1368683772161603e-13, 2.842170943040401e-14)"/><path fill="#6B1526" d="M343.8,329.3c0,0-0.6,0.7-1.7,1.7c-0.6,0.4-1.3,1-2.1,1.4c-0.8,0.4-1.6,0.9-2.6,1.2&#10;&#9;&#9;&#9;&#9;&#9;c-0.5,0.2-0.9,0.3-1.4,0.5c-0.5,0.1-0.9,0.2-1.4,0.4c-0.9,0.2-1.7,0.4-2.4,0.5c-1.4,0.1-2.4,0.2-2.4,0.2s0.9-0.2,2.3-0.5&#10;&#9;&#9;&#9;&#9;&#9;c0.7-0.1,1.5-0.4,2.4-0.6c0.4-0.1,0.9-0.2,1.3-0.4c0.4-0.2,0.9-0.4,1.3-0.5c0.9-0.3,1.7-0.7,2.5-1.1c0.8-0.4,1.5-0.8,2.1-1.2&#10;&#9;&#9;&#9;&#9;&#9;c0.6-0.4,1.1-0.7,1.4-1C343.6,329.5,343.8,329.3,343.8,329.3z" transform="matrix(1, 0, 0, 1, 1.1368683772161603e-13, 2.842170943040401e-14)"/><path fill="#6B1526" d="M285.3,331c0,0.7-0.6,1.2-1.2,1.2c-0.7,0-1.2-0.6-1.2-1.2c0-0.7,0.6-1.2,1.2-1.2&#10;&#9;&#9;&#9;&#9;C284.7,329.7,285.3,330.3,285.3,331z" transform="matrix(1, 0, 0, 1, 8.526512829121202e-14, 2.1316282072803006e-14)"/><path fill="#6B1526" d="M295.5,365.9c-1.3,0-4.1-1.1-4.4-1.5c-0.1-0.1-0.1-0.2-0.1-0.3c0-0.2-0.1-1.9-0.3-3.5&#10;&#9;&#9;&#9;&#9;c-0.1-1.2-0.2-2.6-0.3-4c-0.1-1-0.2-1.9-0.3-2.7c-0.3-2.3-0.5-3.8,0.5-4c1.1-0.2,8.3-0.7,8.6-0.7l0.1,0l0.1,0&#10;&#9;&#9;&#9;&#9;c0.2,0.1,0.6,0.3,0.5,0.7c0,0.3-0.4,0.7-2.5,1.2c-2.1,0.5-4.3,0.3-5.6,0.2c-0.4,0-0.7-0.1-0.9,0c0,0.3,0.2,1.2,0.4,2.1&#10;&#9;&#9;&#9;&#9;c0.3,1.5,0.7,3.5,0.9,5.6c0.2,1.8,0.2,2.9,0.1,3.6c0,0.9,0,1.1,0.2,1.4c0.2,0.2,1.3,0.6,2,0.8c1.3,0.4,1.7,0.6,1.6,0.9&#10;&#9;&#9;&#9;&#9;c0,0.3-0.3,0.3-0.4,0.3C295.7,365.9,295.6,365.9,295.5,365.9z M291.5,364.2c0.4,0.3,2.3,1.1,3.5,1.3c-0.2-0.1-0.4-0.2-0.6-0.2&#10;&#9;&#9;&#9;&#9;c-1.1-0.4-1.9-0.7-2.2-0.9c-0.4-0.4-0.4-0.8-0.4-1.7c0-0.7,0-1.8-0.1-3.6c-0.2-2-0.6-4-0.9-5.5c-0.4-2.1-0.5-2.5-0.2-2.6&#10;&#9;&#9;&#9;&#9;c0.2-0.1,0.4-0.1,1.3,0c1.3,0.1,3.4,0.3,5.4-0.2c2-0.4,2.1-0.7,2.1-0.8c0,0,0,0-0.2-0.2c-0.8,0.1-7.5,0.5-8.5,0.7&#10;&#9;&#9;&#9;&#9;c-0.6,0.1-0.3,1.7-0.1,3.5c0.1,0.8,0.2,1.8,0.3,2.8c0.1,1.3,0.2,2.7,0.3,4C291.5,362.9,291.5,363.8,291.5,364.2z M291.5,364.3&#10;&#9;&#9;&#9;&#9;C291.5,364.3,291.5,364.3,291.5,364.3C291.5,364.3,291.5,364.3,291.5,364.3z" transform="matrix(1, 0, 0, 1, 8.526512829121202e-14, 2.1316282072803006e-14)"/><path fill="#772B3F" d="M318.2,350.4c-2.5,5.2-9.7,6.9-16.1,3.8c-6.4-3.1-9.5-9.8-7-14.9c2.5-5.2,9.7-6.9,16.1-3.8&#10;&#9;&#9;&#9;&#9;C317.5,338.6,320.7,345.3,318.2,350.4z" transform="matrix(1, 0, 0, 1, 8.526512829121202e-14, 2.1316282072803006e-14)"/><path fill="#8C3A4D" d="M318.2,350.4c2.5-5.2-0.7-11.9-7-14.9c-6.4-3.1-13.6-1.4-16.1,3.8c-0.2,0.5-0.4,1-0.6,1.5&#10;&#9;&#9;&#9;&#9;c1.2,3.9,4.9,7.8,10,10.3c3.9,1.9,8,2.6,11.4,2.1C316.9,352.5,317.6,351.6,318.2,350.4z" transform="matrix(1, 0, 0, 1, 8.526512829121202e-14, 2.1316282072803006e-14)"/><path fill="#6B1526" d="M290.9,336.3c-2.7,0-4.9-2.2-4.9-4.9c0-2.7,2.2-4.9,4.9-4.9s4.9,2.2,4.9,4.9&#10;&#9;&#9;&#9;&#9;C295.7,334.1,293.5,336.3,290.9,336.3z M290.9,327.1c-2.4,0-4.4,2-4.4,4.4c0,2.4,2,4.4,4.4,4.4c2.4,0,4.4-2,4.4-4.4&#10;&#9;&#9;&#9;&#9;C295.2,329,293.3,327.1,290.9,327.1z" transform="matrix(1, 0, 0, 1, 8.526512829121202e-14, 2.1316282072803006e-14)"/><path fill="#6B1526" d="M292.8,332.9c0,0.7-0.6,1.2-1.2,1.2c-0.7,0-1.2-0.6-1.2-1.2c0-0.7,0.6-1.2,1.2-1.2&#10;&#9;&#9;&#9;&#9;C292.2,331.7,292.8,332.2,292.8,332.9z" transform="matrix(1, 0, 0, 1, 8.526512829121202e-14, 2.1316282072803006e-14)"/><path fill="#662338" d="M299.2,349.4c0,0-7.5,0.5-8.6,0.7c-1.1,0.2-0.3,3.1,0,6.5c0.3,3.4,0.7,7.3,0.6,7.6&#10;&#9;&#9;&#9;&#9;c-0.1,0.3,3.4,1.6,4.5,1.5c1.1-0.2-2.8-1-3.4-1.6c-0.6-0.6-0.1-1.3-0.4-5.1c-0.4-3.9-1.5-7.7-1.2-7.9c0.3-0.2,3.6,0.5,6.6-0.2&#10;&#9;&#9;&#9;&#9;C300.4,350.2,299.8,349.7,299.2,349.4z" transform="matrix(1, 0, 0, 1, 8.526512829121202e-14, 2.1316282072803006e-14)"/><path fill="#662338" d="M307.7,353c0,0,0.2,4.4,2.8,6.4c2.6,2,13.4,7.6,13.9,8.2c0.5,0.6,1.1,3.8,0.7,5.6&#10;&#9;&#9;&#9;&#9;c-0.5,1.8,1.5-3.7,0.2-5.7c-1.3-2-11.2-7.2-13.3-9.2C309.9,356.2,309.2,351.6,307.7,353z" transform="matrix(1, 0, 0, 1, 8.526512829121202e-14, 2.1316282072803006e-14)"/><path fill="#6B1526" d="M325.2,373.9l-0.2-0.1c-0.2-0.1-0.1-0.3-0.1-0.6c0.4-1.8-0.2-4.9-0.6-5.4c-0.2-0.2-2.7-1.6-5.1-3&#10;&#9;&#9;&#9;&#9;c-3.4-1.9-7.3-4.1-8.7-5.2c-2.7-2-2.9-6.4-2.9-6.6l0-0.1l0.1-0.1c0.3-0.3,0.6-0.4,0.8-0.3c0.7,0.1,1.1,1.1,1.7,2.3&#10;&#9;&#9;&#9;&#9;c0.5,1.1,1.1,2.4,2,3.3c0.9,0.9,3.3,2.3,5.8,3.9c3.3,2,6.8,4.2,7.5,5.4c1.2,1.8,0,6.2-0.2,6.4L325.2,373.9z M308,353.1&#10;&#9;&#9;&#9;&#9;c0.1,0.7,0.5,4.4,2.7,6.1c1.4,1.1,5.5,3.3,8.7,5.1c3.5,2,5,2.8,5.2,3.1c0.3,0.4,0.7,1.7,0.8,3.1c0.1-1.1,0.1-2.3-0.4-2.9&#10;&#9;&#9;&#9;&#9;c-0.7-1.1-4.3-3.3-7.4-5.2c-2.6-1.6-5-3.1-5.9-4c-0.9-0.9-1.6-2.2-2.1-3.4c-0.5-1-0.9-2-1.4-2.1C308.3,353,308.2,353,308,353.1z" transform="matrix(1, 0, 0, 1, 8.526512829121202e-14, 2.1316282072803006e-14)"/></svg>